<?xml version="1.0" standalone="no"?>
<!DOCTYPE svg PUBLIC "-//W3C//DTD SVG 1.1//EN" "http://www.w3.org/Graphics/SVG/1.1/DTD/svg11.dtd" >
<svg xmlns="http://www.w3.org/2000/svg" xmlns:xlink="http://www.w3.org/1999/xlink" version="1.1">
<metadata>
Created by FontForge 20201107 at Tue Mar 16 16:24:29 2021
 By Unknown
Copyright (c) 1990-2020 The Monotype Corporation. All rights reserved.
</metadata>
<defs>
<font id="CenturyGothicPaneuropean" horiz-adv-x="332" >
  <font-face 
    font-family="Century Gothic Paneuropean"
    font-weight="400"
    font-stretch="normal"
    units-per-em="1000"
    panose-1="2 11 5 2 2 2 2 2 2 4"
    ascent="800"
    descent="-200"
    x-height="531"
    cap-height="718"
    bbox="-433 -230 1152 996"
    underline-thickness="50"
    underline-position="-125"
    unicode-range="U+000D-FEFF"
  />
<missing-glyph horiz-adv-x="500" 
d="M12 665h475v-665h-475v665zM440 47v571h-381v-571h381z" />
    <glyph glyph-name="f_f" unicode="ff" horiz-adv-x="553" 
d="M39 473v58h69v24q0 23 0.5 41t3.5 33.5t9 29.5t16 29q19 27 50.5 44.5t79.5 17.5q62 0 102 -35q33 35 94 35q37 0 88 -14v-67q-42 17 -73 17q-36 0 -49 -17.5t-13 -65.5v-72h111v-58h-111v-473h-69v473h-170v-473h-69v473h-69zM347 531v108q-24 46 -81 46q-31 0 -49 -11
t-27 -29.5t-11 -42t-2 -47.5v-24h170z" />
    <glyph glyph-name="f_f_i" unicode="ffi" horiz-adv-x="710" 
d="M38 531h69v24q0 52 10 90t37 64q20 18 47.5 29.5t64.5 11.5q76 0 119 -52q43 52 120 52q34 0 61.5 -10.5t47 -29t30.5 -42.5t12 -51h-70q-14 68 -81 68q-28 0 -45 -9t-27 -26t-13.5 -41t-3.5 -54v-24h110v-60h-110v-471h-69v471h-170v-471h-70v471h-69v60zM586 0v531h70
v-531h-70zM177 531h170v24v25t2 24q-12 81 -84 81q-31 0 -48.5 -11t-26.5 -29t-11 -41.5t-2 -48.5v-24z" />
    <glyph glyph-name="f_f_l" unicode="ffl" horiz-adv-x="724" 
d="M45 471v60h69v24q0 37 4 69t20 57q19 29 51.5 49t83.5 20q74 0 118 -50q45 50 117 50q74 0 119 -54q24 -29 29 -66t5 -89v-541h-70v544q0 34 -2 63t-14 46q-11 15 -27.5 24.5t-39.5 9.5q-24 0 -42 -12t-29 -29q-10 -16 -11.5 -41.5t-1.5 -55.5v-18h109v-60h-109v-471h-70
v471h-170v-471h-70v471h-69zM184 555v-24h170v18v32t1 26q-10 78 -83 78q-31 0 -48.5 -11t-26.5 -29t-11 -41.5t-2 -48.5z" />
    <glyph glyph-name="fi" unicode="fi" horiz-adv-x="470" 
d="M38 531h68v35q0 94 42.5 139.5t117.5 45.5q33 0 60 -10t46.5 -28t30.5 -42.5t13 -53.5h-69q-14 68 -82 68q-50 0 -68.5 -31.5t-18.5 -87.5v-35h109v-60h-109v-471h-72v471h-68v60zM348 531h68v-531h-68v531z" />
    <glyph glyph-name="fl" unicode="fl" horiz-adv-x="483" 
d="M38 471v60h69q0 24 0.5 39.5t1 26.5t2 20t3.5 19q12 54 52 84t97 30q45 0 79 -19.5t54 -54.5q13 -23 17 -53t4 -68v-555h-72v557q0 23 -2 46.5t-10 42t-24.5 30.5t-46.5 12q-34 0 -51.5 -17t-25.5 -49q-4 -16 -5 -35.5t-1 -55.5h109v-60h-109v-471h-72v471h-69z" />
    <glyph glyph-name=".notdef" horiz-adv-x="500" 
d="M12 665h475v-665h-475v665zM440 47v571h-381v-571h381z" />
    <glyph glyph-name=".null" horiz-adv-x="0" 
 />
    <glyph glyph-name="uni000D" unicode="&#xd;" horiz-adv-x="277" 
 />
    <glyph glyph-name="space" unicode=" " horiz-adv-x="277" 
 />
    <glyph glyph-name="A" unicode="A" horiz-adv-x="695" 
d="M340 718h17l333 -718h-75l-110 236h-315l-110 -236h-75zM222 304h251l-125 269z" />
    <glyph glyph-name="Aacute" unicode="&#xc1;" horiz-adv-x="695" 
d="M340 718h17l333 -718h-75l-110 236h-315l-110 -236h-75zM222 304h251l-125 269zM406 912h105l-134 -129h-68z" />
    <glyph glyph-name="Abreve" unicode="&#x102;" horiz-adv-x="695" 
d="M5 0l335 718h17l333 -718h-75l-110 236h-315l-110 -236h-75zM222 304h251l-125 269zM256 898q14 -26 38 -41t56 -15t56 15t38 41h64q-6 -22 -19.5 -42t-33 -35.5t-46 -25t-59.5 -9.5t-59.5 9.5t-46 25t-33 35.5t-19.5 42h64z" />
    <glyph glyph-name="Acircumflex" unicode="&#xc2;" horiz-adv-x="695" 
d="M340 718h17l333 -718h-75l-110 236h-315l-110 -236h-75zM222 304h251l-125 269zM307 906h88l132 -125h-89l-86 74l-89 -74h-91z" />
    <glyph glyph-name="Adieresis" unicode="&#xc4;" horiz-adv-x="695" 
d="M5 0l335 718h17l333 -718h-75l-110 236h-315l-110 -236h-75zM473 304l-125 269l-126 -269h251zM437 887q20 0 34.5 -15t14.5 -35t-14.5 -34.5t-34.5 -14.5t-35 14.5t-15 34.5t15 35t35 15zM214 837q0 20 15 35t35 15t34.5 -15t14.5 -35t-14.5 -34.5t-34.5 -14.5t-35 14.5
t-15 34.5z" />
    <glyph glyph-name="Agrave" unicode="&#xc0;" horiz-adv-x="695" 
d="M5 0l335 718h17l333 -718h-75l-110 236h-315l-110 -236h-75zM222 304h251l-125 269zM189 912h105l97 -129h-68z" />
    <glyph glyph-name="Amacron" unicode="&#x100;" horiz-adv-x="695" 
d="M5 0l335 718h17l333 -718h-75l-110 236h-315l-110 -236h-75zM222 304h251l-125 269zM210 816v60h279v-60h-279z" />
    <glyph glyph-name="Aogonek" unicode="&#x104;" horiz-adv-x="695" 
d="M340 718h17l333 -718q-64 -43 -64 -93q0 -52 62 -52q9 0 18.5 0.5t15.5 2.5l-5 -45q-12 -2 -21.5 -3t-20.5 -1q-48 0 -77.5 24.5t-29.5 64.5q0 26 15 52.5t42 49.5h-10l-110 236h-315l-110 -236h-75zM473 304l-125 269l-126 -269h251z" />
    <glyph glyph-name="Aring" unicode="&#xc5;" horiz-adv-x="695" 
d="M340 718h17l333 -718h-75l-110 236h-315l-110 -236h-75zM248 858q0 21 8 39.5t21.5 32t32.5 21.5t40 8t39.5 -8t32 -21.5t21.5 -32t8 -39.5t-8 -39.5t-21.5 -32.5t-32 -22t-39.5 -8t-39.5 8t-32.5 22t-22 32.5t-8 39.5zM222 304h251l-125 269zM350 799q25 0 42 17.5
t17 41.5q0 25 -19 42t-40 17q-26 0 -42.5 -17t-16.5 -42q0 -26 18 -42.5t41 -16.5z" />
    <glyph glyph-name="Aringacute" unicode="&#x1fa;" horiz-adv-x="695" 
d="M5 0l317 679q-32 9 -53 36t-21 62q0 34 19.5 60t51.5 36l80 107h105l-114 -110q27 -11 44 -36t17 -57q0 -35 -21.5 -62.5t-54.5 -36.5l315 -678h-75l-110 236h-315l-110 -236h-75zM222 304h251l-125 269zM350 718q25 0 42 17.5t17 41.5q0 25 -19 42t-40 17
q-26 0 -42.5 -17t-16.5 -42q0 -26 18 -42.5t41 -16.5z" />
    <glyph glyph-name="Atilde" unicode="&#xc3;" horiz-adv-x="695" 
d="M5 0l335 718h17l333 -718h-75l-110 236h-315l-110 -236h-75zM473 304l-125 269l-126 -269h251zM186 847q19 21 45 34t55 13q19 0 36.5 -6t33.5 -12.5t31 -12.5t30 -6q17 0 33.5 6.5t31.5 17.5l31 -47q-23 -18 -45 -28.5t-51 -10.5q-22 0 -39.5 6t-33.5 12.5t-30 12.5
t-28 6q-20 0 -37 -9t-32 -22z" />
    <glyph glyph-name="AE" unicode="&#xc6;" horiz-adv-x="947" 
d="M1 0l464 718h444v-70h-338v-224h338v-70h-338v-284h338v-70h-410v236h-260l-154 -236h-84zM283 303h216v332z" />
    <glyph glyph-name="AEacute" unicode="&#x1fc;" horiz-adv-x="947" 
d="M1 0l464 718h444v-70h-338v-224h338v-70h-338v-284h338v-70h-410v236h-260l-154 -236h-84zM499 303v332l-216 -332h216zM552 782l97 129h105l-134 -129h-68z" />
    <glyph glyph-name="B" unicode="B" horiz-adv-x="572" 
d="M87 718h152q57 0 98.5 -13t68.5 -36.5t40 -55.5t13 -70q0 -48 -22.5 -86.5t-69.5 -64.5q151 -51 151 -186q0 -40 -15.5 -77.5t-45 -66t-73 -45.5t-100.5 -17h-197v718zM159 347v-277h111q46 0 78.5 11.5t53.5 30t31 43t10 50.5q0 68 -54.5 105t-154.5 37h-75zM159 648
v-231h48q80 0 128.5 29t48.5 97q0 48 -34 76.5t-97 28.5h-94z" />
    <glyph glyph-name="C" unicode="C" horiz-adv-x="814" 
d="M56 363q0 80 29 148t81 118t122.5 78.5t154.5 28.5q98 0 177.5 -38t132.5 -113l-57 -43q-47 63 -111.5 93.5t-140.5 30.5q-64 0 -120.5 -22.5t-99.5 -63.5t-68 -97.5t-25 -125.5q0 -67 24 -123.5t66.5 -97.5t100.5 -64t126 -23q150 0 252 119l57 -43q-56 -70 -135.5 -106
t-178.5 -36q-90 0 -161.5 29.5t-122 81t-77 121t-26.5 148.5z" />
    <glyph glyph-name="Cacute" unicode="&#x106;" horiz-adv-x="814" 
d="M56 363q0 80 29 148t81 118t122.5 78.5t154.5 28.5q98 0 177.5 -38t132.5 -113l-57 -43q-47 63 -111.5 93.5t-140.5 30.5q-64 0 -120.5 -22.5t-99.5 -63.5t-68 -97.5t-25 -125.5q0 -67 24 -123.5t66.5 -97.5t100.5 -64t126 -23q150 0 252 119l57 -43q-56 -70 -135.5 -106
t-178.5 -36q-90 0 -161.5 29.5t-122 81t-77 121t-26.5 148.5zM497 911h105l-134 -129h-68z" />
    <glyph glyph-name="Ccaron" unicode="&#x10c;" horiz-adv-x="814" 
d="M443 736q98 0 177.5 -38t132.5 -113l-57 -43q-47 63 -111.5 93.5t-140.5 30.5q-64 0 -120.5 -22.5t-99.5 -63.5t-68 -97.5t-25 -125.5q0 -67 24 -123.5t66.5 -97.5t100.5 -64t126 -23q150 0 252 119l57 -43q-56 -70 -135.5 -106t-178.5 -36q-90 0 -161.5 29.5t-122 81
t-77 121t-26.5 148.5q0 80 29 148t81 118t122.5 78.5t154.5 28.5zM351 905l86 -74l90 74h91l-145 -125h-68l-142 125h88z" />
    <glyph glyph-name="Ccedilla" unicode="&#xc7;" horiz-adv-x="814" 
d="M443 736q98 0 177.5 -38t132.5 -113l-57 -43q-47 63 -111.5 93.5t-140.5 30.5q-64 0 -120.5 -22.5t-99.5 -63.5t-68 -97.5t-25 -125.5q0 -67 24 -123.5t66.5 -97.5t100.5 -64t126 -23q150 0 252 119l57 -43q-56 -70 -135.5 -106t-177.5 -36l-5 -37q32 0 52.5 -13
t20.5 -41q0 -33 -29.5 -55.5t-82.5 -22.5q-42 0 -81 15l11 34q14 -5 28.5 -7.5t29.5 -2.5q32 0 49 8t17 24q0 9 -8 15t-22 6q-8 0 -17.5 -1.5t-16.5 -3.5l11 84q-81 7 -145 39t-108.5 82.5t-68 116.5t-23.5 140q0 80 29 148t81 118t122.5 78.5t154.5 28.5z" />
    <glyph glyph-name="Ccircumflex" unicode="&#x108;" horiz-adv-x="814" 
d="M443 736q98 0 177.5 -38t132.5 -113l-57 -43q-47 63 -111.5 93.5t-140.5 30.5q-64 0 -120.5 -22.5t-99.5 -63.5t-68 -97.5t-25 -125.5q0 -67 24 -123.5t66.5 -97.5t100.5 -64t126 -23q150 0 252 119l57 -43q-56 -70 -135.5 -106t-178.5 -36q-90 0 -161.5 29.5t-122 81
t-77 121t-26.5 148.5q0 80 29 148t81 118t122.5 78.5t154.5 28.5zM398 905h88l132 -125h-89l-86 74l-89 -74h-91z" />
    <glyph glyph-name="Cdotaccent" unicode="&#x10a;" horiz-adv-x="814" 
d="M443 736q98 0 177.5 -38t132.5 -113l-57 -43q-47 63 -111.5 93.5t-140.5 30.5q-64 0 -120.5 -22.5t-99.5 -63.5t-68 -97.5t-25 -125.5q0 -67 24 -123.5t66.5 -97.5t100.5 -64t126 -23q150 0 252 119l57 -43q-56 -70 -135.5 -106t-178.5 -36q-90 0 -161.5 29.5t-122 81
t-77 121t-26.5 148.5q0 80 29 148t81 118t122.5 78.5t154.5 28.5zM441 893q23 0 39.5 -17t16.5 -40t-16.5 -39.5t-39.5 -16.5t-40 16.5t-17 39.5t17 40t40 17z" />
    <glyph glyph-name="D" unicode="D" horiz-adv-x="749" 
d="M87 718h177q101 0 181 -23t135 -69t84 -115t29 -160q0 -169 -96 -260t-300 -91h-210v718zM159 648v-578h138q153 0 237 66.5t84 213.5q0 80 -25 136.5t-71.5 92.5t-111.5 52.5t-146 16.5h-105z" />
    <glyph glyph-name="Eth" unicode="&#xd0;" horiz-adv-x="796" 
d="M17 326v67h88v325h206q50 0 95 -4t86 -15t78 -31t69 -52q49 -49 75 -116.5t26 -148.5t-25 -146t-71 -110.5t-111.5 -70t-147.5 -24.5h-280v326h-88zM362 393v-67h-189v-256h139q51 0 94 3t78.5 12.5t65 27.5t53.5 47q32 38 47 85.5t15 104.5q0 113 -59 190
q-25 33 -57.5 54t-73 33t-89.5 16.5t-108 4.5h-105v-255h189z" />
    <glyph glyph-name="Dcaron" unicode="&#x10e;" horiz-adv-x="749" 
d="M87 718h177q101 0 181 -23t135 -69t84 -115t29 -160q0 -169 -96 -260t-300 -91h-210v718zM159 70h138q153 0 237 66.5t84 213.5q0 80 -25 136.5t-71.5 92.5t-111.5 52.5t-146 16.5h-105v-578zM229 905l86 -74l90 74h91l-145 -125h-68l-142 125h88z" />
    <glyph glyph-name="Dcroat" unicode="&#x110;" horiz-adv-x="796" 
d="M17 326v67h88v325h206q50 0 95 -4t86 -15t78 -31t69 -52q49 -49 75 -116.5t26 -148.5t-25 -146t-71 -110.5t-111.5 -70t-147.5 -24.5h-280v326h-88zM362 393v-67h-189v-256h139q51 0 94 3t78.5 12.5t65 27.5t53.5 47q32 38 47 85.5t15 104.5q0 113 -59 190
q-25 33 -57.5 54t-73 33t-89.5 16.5t-108 4.5h-105v-255h189z" />
    <glyph glyph-name="E" unicode="E" horiz-adv-x="535" 
d="M87 0v718h410v-69h-338v-227h338v-68h-338v-284h338v-70h-410z" />
    <glyph glyph-name="Eacute" unicode="&#xc9;" horiz-adv-x="535" 
d="M87 0v718h410v-69h-338v-227h338v-68h-338v-284h338v-70h-410zM354 911h105l-134 -129h-68z" />
    <glyph glyph-name="Ebreve" unicode="&#x114;" horiz-adv-x="535" 
d="M87 0v718h410v-69h-338v-227h338v-68h-338v-284h338v-70h-410zM204 897q14 -26 38 -41t56 -15t56 15t38 41h64q-6 -22 -19.5 -42t-33 -35.5t-46 -25t-59.5 -9.5t-59.5 9.5t-46 25t-33 35.5t-19.5 42h64z" />
    <glyph glyph-name="Ecaron" unicode="&#x11a;" horiz-adv-x="535" 
d="M87 0v718h410v-69h-338v-227h338v-68h-338v-284h338v-70h-410zM120 905h88l86 -74l90 74h91l-145 -125h-68z" />
    <glyph glyph-name="Ecircumflex" unicode="&#xca;" horiz-adv-x="535" 
d="M87 718h410v-69h-338v-227h338v-68h-338v-284h338v-70h-410v718zM120 780l135 125h88l132 -125h-89l-86 74l-89 -74h-91z" />
    <glyph glyph-name="Edieresis" unicode="&#xcb;" horiz-adv-x="535" 
d="M87 0v718h410v-69h-338v-227h338v-68h-338v-284h338v-70h-410zM385 886q20 0 34.5 -15t14.5 -35t-14.5 -34.5t-34.5 -14.5t-35 14.5t-15 34.5t15 35t35 15zM162 836q0 20 15 35t35 15t34.5 -15t14.5 -35t-14.5 -34.5t-34.5 -14.5t-35 14.5t-15 34.5z" />
    <glyph glyph-name="Edotaccent" unicode="&#x116;" horiz-adv-x="535" 
d="M87 0v718h410v-69h-338v-227h338v-68h-338v-284h338v-70h-410zM241 836q0 23 17 40t40 17t39.5 -17t16.5 -40t-16.5 -39.5t-39.5 -16.5t-40 16.5t-17 39.5z" />
    <glyph glyph-name="Egrave" unicode="&#xc8;" horiz-adv-x="535" 
d="M87 718h410v-69h-338v-227h338v-68h-338v-284h338v-70h-410v718zM242 911l97 -129h-68l-134 129h105z" />
    <glyph glyph-name="Emacron" unicode="&#x112;" horiz-adv-x="535" 
d="M87 718h410v-69h-338v-227h338v-68h-338v-284h338v-70h-410v718zM437 875v-60h-279v60h279z" />
    <glyph glyph-name="Eogonek" unicode="&#x118;" horiz-adv-x="535" 
d="M87 718h410v-69h-338v-227h338v-68h-338v-284h338v-70h-50q-64 -43 -64 -93q0 -52 62 -52q9 0 18.5 0.5t15.5 2.5l-5 -45q-12 -2 -21.5 -3t-20.5 -1q-48 0 -77.5 24.5t-29.5 64.5q0 26 15 52.5t42 49.5h-295v718z" />
    <glyph glyph-name="F" unicode="F" horiz-adv-x="485" 
d="M87 0v718h360v-70h-288v-225h288v-70h-288v-353h-72z" />
    <glyph glyph-name="G" unicode="G" horiz-adv-x="872" 
d="M451 736q99 0 178 -35.5t151 -103.5l-55 -52q-61 60 -131.5 90.5t-140.5 30.5q-68 0 -127 -23.5t-102 -64.5t-67.5 -96.5t-24.5 -120.5q0 -62 24.5 -118t69 -98t105.5 -67t133 -25q51 0 98 14.5t84.5 42.5t63 69.5t32.5 95.5h-229v70h310v-2q0 -85 -26.5 -152t-74 -113
t-114 -70.5t-146.5 -24.5q-93 0 -168 31t-127.5 83t-81 120t-28.5 142q0 76 28.5 144.5t80 120t124.5 82t161 30.5z" />
    <glyph glyph-name="uni01F4" unicode="&#x1f4;" horiz-adv-x="872" 
d="M451 736q99 0 178 -35.5t151 -103.5l-55 -52q-61 60 -131.5 90.5t-140.5 30.5q-68 0 -127 -23.5t-102 -64.5t-67.5 -96.5t-24.5 -120.5q0 -62 24.5 -118t69 -98t105.5 -67t133 -25q51 0 98 14.5t84.5 42.5t63 69.5t32.5 95.5h-229v70h310v-2q0 -85 -26.5 -152t-74 -113
t-114 -70.5t-146.5 -24.5q-93 0 -168 31t-127.5 83t-81 120t-28.5 142q0 76 28.5 144.5t80 120t124.5 82t161 30.5zM508 912h105l-134 -129h-68z" />
    <glyph glyph-name="Gbreve" unicode="&#x11e;" horiz-adv-x="872" 
d="M57 359q0 76 28.5 144.5t80 120t124.5 82t161 30.5q99 0 178 -35.5t151 -103.5l-55 -52q-61 60 -131.5 90.5t-140.5 30.5q-68 0 -127 -23.5t-102 -64.5t-67.5 -96.5t-24.5 -120.5q0 -62 24.5 -118t69 -98t105.5 -67t133 -25q51 0 98 14.5t84.5 42.5t63 69.5t32.5 95.5
h-229v70h310v-2q0 -85 -26.5 -152t-74 -113t-114 -70.5t-146.5 -24.5q-93 0 -168 31t-127.5 83t-81 120t-28.5 142zM358 898q14 -26 38 -41t56 -15t56 15t38 41h64q-6 -22 -19.5 -42t-33 -35.5t-46 -25t-59.5 -9.5t-59.5 9.5t-46 25t-33 35.5t-19.5 42h64z" />
    <glyph glyph-name="Gcircumflex" unicode="&#x11c;" horiz-adv-x="872" 
d="M451 736q99 0 178 -35.5t151 -103.5l-55 -52q-61 60 -131.5 90.5t-140.5 30.5q-68 0 -127 -23.5t-102 -64.5t-67.5 -96.5t-24.5 -120.5q0 -62 24.5 -118t69 -98t105.5 -67t133 -25q51 0 98 14.5t84.5 42.5t63 69.5t32.5 95.5h-229v70h310v-2q0 -85 -26.5 -152t-74 -113
t-114 -70.5t-146.5 -24.5q-93 0 -168 31t-127.5 83t-81 120t-28.5 142q0 76 28.5 144.5t80 120t124.5 82t161 30.5zM274 781l135 125h88l132 -125h-89l-86 74l-89 -74h-91z" />
    <glyph glyph-name="uni0122" unicode="&#x122;" horiz-adv-x="872" 
d="M451 736q99 0 178 -35.5t151 -103.5l-55 -52q-61 60 -131.5 90.5t-140.5 30.5q-68 0 -127 -23.5t-102 -64.5t-67.5 -96.5t-24.5 -120.5q0 -62 24.5 -118t69 -98t105.5 -67t133 -25q51 0 98 14.5t84.5 42.5t63 69.5t32.5 95.5h-229v70h310v-2q0 -85 -26.5 -152t-74 -113
t-114 -70.5t-146.5 -24.5q-93 0 -168 31t-127.5 83t-81 120t-28.5 142q0 76 28.5 144.5t80 120t124.5 82t161 30.5zM377 -187l36 132h85l-63 -132h-58z" />
    <glyph glyph-name="Gdotaccent" unicode="&#x120;" horiz-adv-x="872" 
d="M451 736q99 0 178 -35.5t151 -103.5l-55 -52q-61 60 -131.5 90.5t-140.5 30.5q-68 0 -127 -23.5t-102 -64.5t-67.5 -96.5t-24.5 -120.5q0 -62 24.5 -118t69 -98t105.5 -67t133 -25q51 0 98 14.5t84.5 42.5t63 69.5t32.5 95.5h-229v70h310v-2q0 -85 -26.5 -152t-74 -113
t-114 -70.5t-146.5 -24.5q-93 0 -168 31t-127.5 83t-81 120t-28.5 142q0 76 28.5 144.5t80 120t124.5 82t161 30.5zM452 894q23 0 39.5 -17t16.5 -40t-16.5 -39.5t-39.5 -16.5t-40 16.5t-17 39.5t17 40t40 17z" />
    <glyph glyph-name="H" unicode="H" horiz-adv-x="683" 
d="M87 0v718h72v-301h366v301h72v-718h-72v347h-366v-347h-72z" />
    <glyph glyph-name="Hbar" unicode="&#x126;" horiz-adv-x="683" 
d="M87 605v113h72v-113h366v113h72v-113h64v-67h-64v-538h-72v347h-366v-347h-72v538h-65v67h65zM159 417h366v121h-366v-121z" />
    <glyph glyph-name="Hcircumflex" unicode="&#x124;" horiz-adv-x="683" 
d="M159 718v-301h366v301h72v-718h-72v347h-366v-347h-72v718h72zM299 904h88l132 -125h-89l-86 74l-89 -74h-91z" />
    <glyph glyph-name="I" unicode="I" horiz-adv-x="245" 
d="M87 718h72v-718h-72v718z" />
    <glyph glyph-name="IJ" unicode="&#x132;" horiz-adv-x="727" 
d="M327 118q29 -28 63.5 -46.5t70.5 -18.5q49 0 77.5 32.5t28.5 114.5v518h72v-530q0 -108 -47 -156.5t-132 -48.5q-54 0 -99 23t-74 52zM87 0v718h72v-718h-72z" />
    <glyph glyph-name="Iacute" unicode="&#xcd;" horiz-adv-x="245" 
d="M179 911h105l-134 -129h-68zM87 718h72v-718h-72v718z" />
    <glyph glyph-name="Ibreve" unicode="&#x12c;" horiz-adv-x="245" 
d="M159 718v-718h-72v718h72zM29 897q14 -26 38 -41t56 -15t56 15t38 41h64q-6 -22 -19.5 -42t-33 -35.5t-46 -25t-59.5 -9.5t-59.5 9.5t-46 25t-33 35.5t-19.5 42h64z" />
    <glyph glyph-name="Icircumflex" unicode="&#xce;" horiz-adv-x="245" 
d="M87 0v718h72v-718h-72zM80 905h88l132 -125h-89l-86 74l-89 -74h-91z" />
    <glyph glyph-name="Idieresis" unicode="&#xcf;" horiz-adv-x="245" 
d="M87 0v718h72v-718h-72zM210 886q20 0 34.5 -15t14.5 -35t-14.5 -34.5t-34.5 -14.5t-35 14.5t-15 34.5t15 35t35 15zM-13 836q0 20 15 35t35 15t34.5 -15t14.5 -35t-14.5 -34.5t-34.5 -14.5t-35 14.5t-15 34.5z" />
    <glyph glyph-name="Idotaccent" unicode="&#x130;" horiz-adv-x="245" 
d="M87 0v718h72v-718h-72zM66 836q0 23 17 40t40 17t39.5 -17t16.5 -40t-16.5 -39.5t-39.5 -16.5t-40 16.5t-17 39.5z" />
    <glyph glyph-name="Igrave" unicode="&#xcc;" horiz-adv-x="245" 
d="M-38 911h105l97 -129h-68zM87 718h72v-718h-72v718z" />
    <glyph glyph-name="Imacron" unicode="&#x12a;" horiz-adv-x="245" 
d="M-17 875h279v-60h-279v60zM87 718h72v-718h-72v718z" />
    <glyph glyph-name="Iogonek" unicode="&#x12e;" horiz-adv-x="245" 
d="M36 -102q0 26 15 52.5t42 49.5h-6v718h72v-718h-1q-64 -43 -64 -93q0 -52 62 -52q9 0 18.5 0.5t15.5 2.5l-5 -45q-12 -2 -21.5 -3t-20.5 -1q-48 0 -77.5 24.5t-29.5 64.5z" />
    <glyph glyph-name="Itilde" unicode="&#x128;" horiz-adv-x="245" 
d="M87 0v718h72v-718h-72zM-41 846q19 21 45 34t55 13q19 0 36.5 -6t33.5 -12.5t31 -12.5t30 -6q17 0 33.5 6.5t31.5 17.5l31 -47q-23 -18 -45 -28.5t-51 -10.5q-22 0 -39.5 6t-33.5 12.5t-30 12.5t-28 6q-20 0 -37 -9t-32 -22z" />
    <glyph glyph-name="J" unicode="J" horiz-adv-x="482" 
d="M82 118q29 -28 63.5 -46.5t70.5 -18.5q49 0 77.5 32.5t28.5 114.5v518h72v-530q0 -108 -47 -156.5t-132 -48.5q-54 0 -99 23t-74 52z" />
    <glyph glyph-name="Jcircumflex" unicode="&#x134;" horiz-adv-x="482" 
d="M82 118q29 -28 63.5 -46.5t70.5 -18.5q49 0 77.5 32.5t28.5 114.5v518h72v-530q0 -108 -47 -156.5t-132 -48.5q-54 0 -99 23t-74 52zM184 780l135 125h88l132 -125h-89l-86 74l-89 -74h-91z" />
    <glyph glyph-name="K" unicode="K" horiz-adv-x="570" 
d="M87 0v718h72v-298l290 298h88l-318 -331l351 -387h-89l-322 356v-356h-72z" />
    <glyph glyph-name="uni0136" unicode="&#x136;" horiz-adv-x="570" 
d="M570 0h-89l-322 356v-356h-72v718h72v-298l290 298h88l-318 -331zM263 -55h85l-63 -132h-58z" />
    <glyph glyph-name="L" unicode="L" horiz-adv-x="462" 
d="M159 718v-648h276v-70h-348v718h72z" />
    <glyph glyph-name="Lacute" unicode="&#x139;" horiz-adv-x="462" 
d="M184 912h105l-134 -129h-68zM159 718v-648h276v-70h-348v718h72z" />
    <glyph glyph-name="Lcaron" unicode="&#x13d;" horiz-adv-x="462" 
d="M87 0v718h72v-648h276v-70h-348zM236 716h75v-71q0 -24 -1.5 -44t-5.5 -38.5t-10.5 -36.5t-17.5 -38l-32 19q26 52 29 95h-37v114z" />
    <glyph glyph-name="uni013B" unicode="&#x13b;" horiz-adv-x="462" 
d="M159 718v-648h276v-70h-348v718h72zM225 -55h85l-63 -132h-58z" />
    <glyph glyph-name="Ldot" unicode="&#x13f;" horiz-adv-x="463" 
d="M87 718h72v-648h276v-70h-348v718zM291 387q0 25 17.5 43.5t42.5 18.5q24 0 42 -18t18 -44t-17.5 -43t-42.5 -17q-26 0 -43 17.5t-17 42.5z" />
    <glyph glyph-name="Lslash" unicode="&#x141;" horiz-adv-x="518" 
d="M44 191v85l99 83v359h72v-299l129 108v-86l-129 -107v-264h276v-70h-348v274z" />
    <glyph glyph-name="M" unicode="M" horiz-adv-x="919" 
d="M157 718h12l292 -589l289 589h12l102 -718h-70l-66 488q-1 7 -2 13t-2 13l-254 -514h-18l-245 490q-3 7 -6.5 13.5t-6.5 13.5q-1 -8 -2 -15t-2 -15l-65 -487h-70z" />
    <glyph glyph-name="N" unicode="N" horiz-adv-x="736" 
d="M87 0v718h15l476 -550v550h72v-718h-16l-475 543v-543h-72z" />
    <glyph glyph-name="Nacute" unicode="&#x143;" horiz-adv-x="736" 
d="M102 718l476 -550v550h72v-718h-16l-475 543v-543h-72v718h15zM331 781l97 129h105l-134 -129h-68z" />
    <glyph glyph-name="Ncaron" unicode="&#x147;" horiz-adv-x="736" 
d="M102 718l476 -550v550h72v-718h-16l-475 543v-543h-72v718h15zM194 904h88l86 -74l90 74h91l-145 -125h-68z" />
    <glyph glyph-name="uni0145" unicode="&#x145;" horiz-adv-x="736" 
d="M87 0v718h15l476 -550v550h72v-718h-16l-475 543v-543h-72zM339 -55h85l-63 -132h-58z" />
    <glyph glyph-name="Eng" unicode="&#x14a;" horiz-adv-x="777" 
d="M87 718h72v-87q96 105 234 105q76 0 136.5 -30.5t103 -83t65.5 -121.5t23 -146q0 -76 -19.5 -143.5t-56.5 -118.5t-90 -81t-120 -30q-106 0 -177 92l52 44q50 -68 127 -68q51 0 90 26.5t65.5 70.5t40 100t13.5 114q0 64 -19.5 120t-54 97.5t-83 65.5t-106.5 24
q-67 0 -126 -34t-98 -88v-546h-72v718z" />
    <glyph glyph-name="Ntilde" unicode="&#xd1;" horiz-adv-x="736" 
d="M102 718l476 -550v550h72v-718h-16l-475 543v-543h-72v718h15zM208 845q19 21 45 34t55 13q19 0 36.5 -6t33.5 -12.5t31 -12.5t30 -6q17 0 33.5 6.5t31.5 17.5l31 -47q-23 -18 -45 -28.5t-51 -10.5q-22 0 -39.5 6t-33.5 12.5t-30 12.5t-28 6q-20 0 -37 -9t-32 -22z" />
    <glyph glyph-name="O" unicode="O" horiz-adv-x="869" 
d="M56 356q0 80 29 149.5t79.5 120.5t118.5 80.5t146 29.5q82 0 152 -29t121.5 -79.5t81 -119.5t29.5 -149q0 -79 -29 -148t-80 -120t-120 -80t-149 -29q-83 0 -152.5 30t-120 81.5t-78.5 119.5t-28 143zM131 356q0 -66 24.5 -122t66 -96.5t96 -63t115.5 -22.5
q63 0 118.5 23t97 63.5t65.5 97.5t24 124q0 68 -25.5 124.5t-67.5 97t-97 62.5t-115 22q-59 0 -113.5 -22.5t-96.5 -63.5t-67 -98t-25 -126z" />
    <glyph glyph-name="Oacute" unicode="&#xd3;" horiz-adv-x="869" 
d="M56 356q0 80 29 149.5t79.5 120.5t118.5 80.5t146 29.5q82 0 152 -29t121.5 -79.5t81 -119.5t29.5 -149q0 -79 -29 -148t-80 -120t-120 -80t-149 -29q-83 0 -152.5 30t-120 81.5t-78.5 119.5t-28 143zM433 52q63 0 118.5 23t97 63.5t65.5 97.5t24 124q0 68 -25.5 124.5
t-67.5 97t-97 62.5t-115 22q-59 0 -113.5 -22.5t-96.5 -63.5t-67 -98t-25 -126q0 -66 24.5 -122t66 -96.5t96 -63t115.5 -22.5zM484 912h105l-134 -129h-68z" />
    <glyph glyph-name="Obreve" unicode="&#x14e;" horiz-adv-x="869" 
d="M56 356q0 80 29 149.5t79.5 120.5t118.5 80.5t146 29.5q82 0 152 -29t121.5 -79.5t81 -119.5t29.5 -149q0 -79 -29 -148t-80 -120t-120 -80t-149 -29q-83 0 -152.5 30t-120 81.5t-78.5 119.5t-28 143zM433 52q63 0 118.5 23t97 63.5t65.5 97.5t24 124q0 68 -25.5 124.5
t-67.5 97t-97 62.5t-115 22q-59 0 -113.5 -22.5t-96.5 -63.5t-67 -98t-25 -126q0 -66 24.5 -122t66 -96.5t96 -63t115.5 -22.5zM334 898q14 -26 38 -41t56 -15t56 15t38 41h64q-6 -22 -19.5 -42t-33 -35.5t-46 -25t-59.5 -9.5t-59.5 9.5t-46 25t-33 35.5t-19.5 42h64z" />
    <glyph glyph-name="Ocircumflex" unicode="&#xd4;" horiz-adv-x="869" 
d="M429 736q82 0 152 -29t121.5 -79.5t81 -119.5t29.5 -149q0 -79 -29 -148t-80 -120t-120 -80t-149 -29q-83 0 -152.5 30t-120 81.5t-78.5 119.5t-28 143q0 80 29 149.5t79.5 120.5t118.5 80.5t146 29.5zM131 356q0 -66 24.5 -122t66 -96.5t96 -63t115.5 -22.5
q63 0 118.5 23t97 63.5t65.5 97.5t24 124q0 68 -25.5 124.5t-67.5 97t-97 62.5t-115 22q-59 0 -113.5 -22.5t-96.5 -63.5t-67 -98t-25 -126zM250 781l135 125h88l132 -125h-89l-86 74l-89 -74h-91z" />
    <glyph glyph-name="Odieresis" unicode="&#xd6;" horiz-adv-x="869" 
d="M56 356q0 80 29 149.5t79.5 120.5t118.5 80.5t146 29.5q82 0 152 -29t121.5 -79.5t81 -119.5t29.5 -149q0 -79 -29 -148t-80 -120t-120 -80t-149 -29q-83 0 -152.5 30t-120 81.5t-78.5 119.5t-28 143zM131 356q0 -66 24.5 -122t66 -96.5t96 -63t115.5 -22.5
q63 0 118.5 23t97 63.5t65.5 97.5t24 124q0 68 -25.5 124.5t-67.5 97t-97 62.5t-115 22q-59 0 -113.5 -22.5t-96.5 -63.5t-67 -98t-25 -126zM515 887q20 0 34.5 -15t14.5 -35t-14.5 -34.5t-34.5 -14.5t-35 14.5t-15 34.5t15 35t35 15zM292 837q0 20 15 35t35 15t34.5 -15
t14.5 -35t-14.5 -34.5t-34.5 -14.5t-35 14.5t-15 34.5z" />
    <glyph glyph-name="Ograve" unicode="&#xd2;" horiz-adv-x="869" 
d="M56 356q0 80 29 149.5t79.5 120.5t118.5 80.5t146 29.5q82 0 152 -29t121.5 -79.5t81 -119.5t29.5 -149q0 -79 -29 -148t-80 -120t-120 -80t-149 -29q-83 0 -152.5 30t-120 81.5t-78.5 119.5t-28 143zM433 52q63 0 118.5 23t97 63.5t65.5 97.5t24 124q0 68 -25.5 124.5
t-67.5 97t-97 62.5t-115 22q-59 0 -113.5 -22.5t-96.5 -63.5t-67 -98t-25 -126q0 -66 24.5 -122t66 -96.5t96 -63t115.5 -22.5zM267 912h105l97 -129h-68z" />
    <glyph glyph-name="Ohungarumlaut" unicode="&#x150;" horiz-adv-x="869" 
d="M56 356q0 80 29 149.5t79.5 120.5t118.5 80.5t146 29.5q82 0 152 -29t121.5 -79.5t81 -119.5t29.5 -149q0 -79 -29 -148t-80 -120t-120 -80t-149 -29q-83 0 -152.5 30t-120 81.5t-78.5 119.5t-28 143zM433 52q63 0 118.5 23t97 63.5t65.5 97.5t24 124q0 68 -25.5 124.5
t-67.5 97t-97 62.5t-115 22q-59 0 -113.5 -22.5t-96.5 -63.5t-67 -98t-25 -126q0 -66 24.5 -122t66 -96.5t96 -63t115.5 -22.5zM460 783l107 151h105l-144 -151h-68zM306 783l107 151h105l-145 -151h-67z" />
    <glyph glyph-name="Omacron" unicode="&#x14c;" horiz-adv-x="869" 
d="M56 356q0 80 29 149.5t79.5 120.5t118.5 80.5t146 29.5q82 0 152 -29t121.5 -79.5t81 -119.5t29.5 -149q0 -79 -29 -148t-80 -120t-120 -80t-149 -29q-83 0 -152.5 30t-120 81.5t-78.5 119.5t-28 143zM433 52q63 0 118.5 23t97 63.5t65.5 97.5t24 124q0 68 -25.5 124.5
t-67.5 97t-97 62.5t-115 22q-59 0 -113.5 -22.5t-96.5 -63.5t-67 -98t-25 -126q0 -66 24.5 -122t66 -96.5t96 -63t115.5 -22.5zM288 816v60h279v-60h-279z" />
    <glyph glyph-name="Oslash" unicode="&#xd8;" horiz-adv-x="868" 
d="M429 736q66 0 124.5 -19t106.5 -54l73 86l51 -42l-74 -87q49 -51 76 -117t27 -144q0 -79 -29 -148t-80 -120t-120 -80t-149 -29q-61 0 -114.5 16.5t-98.5 46.5l-80 -95l-52 42l80 94q-54 52 -84 122t-30 148q0 80 29 149.5t79.5 120.5t118.5 80.5t146 29.5zM217 142
l396 466q-39 28 -85 43t-95 15q-59 0 -113.5 -22.5t-96.5 -63.5t-67 -98t-25 -126q0 -65 23 -119.5t63 -94.5zM433 52q63 0 118.5 23t97 63.5t65.5 97.5t24 124q0 61 -20.5 112.5t-55.5 90.5l-393 -463q74 -48 164 -48z" />
    <glyph glyph-name="Oslashacute" unicode="&#x1fe;" horiz-adv-x="868" 
d="M56 356q0 80 29 149.5t79.5 120.5t118.5 80.5t146 29.5q66 0 124.5 -19t106.5 -54l73 86l51 -42l-74 -87q49 -51 76 -117t27 -144q0 -79 -29 -148t-80 -120t-120 -80t-149 -29q-61 0 -114.5 16.5t-98.5 46.5l-80 -95l-52 42l80 94q-54 52 -84 122t-30 148zM217 142
l396 466q-39 28 -85 43t-95 15q-59 0 -113.5 -22.5t-96.5 -63.5t-67 -98t-25 -126q0 -65 23 -119.5t63 -94.5zM269 100q74 -48 164 -48q63 0 118.5 23t97 63.5t65.5 97.5t24 124q0 61 -20.5 112.5t-55.5 90.5zM482 911h105l-134 -129h-68z" />
    <glyph glyph-name="Otilde" unicode="&#xd5;" horiz-adv-x="869" 
d="M56 356q0 80 29 149.5t79.5 120.5t118.5 80.5t146 29.5q82 0 152 -29t121.5 -79.5t81 -119.5t29.5 -149q0 -79 -29 -148t-80 -120t-120 -80t-149 -29q-83 0 -152.5 30t-120 81.5t-78.5 119.5t-28 143zM131 356q0 -66 24.5 -122t66 -96.5t96 -63t115.5 -22.5
q63 0 118.5 23t97 63.5t65.5 97.5t24 124q0 68 -25.5 124.5t-67.5 97t-97 62.5t-115 22q-59 0 -113.5 -22.5t-96.5 -63.5t-67 -98t-25 -126zM264 847q19 21 45 34t55 13q19 0 36.5 -6t33.5 -12.5t31 -12.5t30 -6q17 0 33.5 6.5t31.5 17.5l31 -47q-23 -18 -45 -28.5
t-51 -10.5q-22 0 -39.5 6t-33.5 12.5t-30 12.5t-28 6q-20 0 -37 -9t-32 -22z" />
    <glyph glyph-name="OE" unicode="&#x152;" horiz-adv-x="1190" 
d="M437 736q85 0 165 -39.5t140 -117.5v139h410v-70h-339v-224h339v-70h-339v-284h339v-70h-410v139q-28 -36 -59 -65t-67.5 -49.5t-80.5 -31.5t-99 -11q-86 0 -156 31.5t-120 83.5t-77 119.5t-27 139.5q0 80 29.5 149.5t81.5 120.5t121.5 80.5t148.5 29.5zM131 361
q0 -63 23.5 -119.5t65 -98.5t98 -66.5t122.5 -24.5q64 0 119.5 24.5t96 66.5t64 98t23.5 119q0 68 -26.5 124t-69.5 96.5t-98.5 63t-114.5 22.5q-60 0 -115 -24t-96.5 -65.5t-66.5 -97t-25 -118.5z" />
    <glyph glyph-name="P" unicode="P" horiz-adv-x="567" 
d="M87 718h194q53 0 99.5 -8.5t81.5 -30t55 -58.5t20 -94q0 -59 -21.5 -96.5t-58 -59t-84 -29.5t-98.5 -8h-116v-334h-72v718zM159 648v-244h119q40 0 74 5t58.5 19t38 38t13.5 61t-13.5 60.5t-37.5 37t-56 18.5t-69 5h-127z" />
    <glyph glyph-name="Thorn" unicode="&#xde;" horiz-adv-x="592" 
d="M159 718v-167h121q61 0 108.5 -10.5t80.5 -34t50.5 -60t17.5 -87.5q0 -99 -66 -146t-207 -47h-105v-166h-72v718h72zM159 481v-245h119q40 0 73.5 5t58 19t38.5 38t14 61q0 36 -13.5 60t-37.5 37.5t-56 19t-69 5.5h-127z" />
    <glyph glyph-name="Q" unicode="Q" horiz-adv-x="869" 
d="M429 736q82 0 152 -29t121.5 -79.5t81 -119.5t29.5 -149q0 -85 -33 -157.5t-91 -124.5l106 -134h-88l-73 93q-44 -26 -93.5 -40t-105.5 -14q-83 0 -152.5 30t-120 81.5t-78.5 119.5t-28 143q0 80 29 149.5t79.5 120.5t118.5 80.5t146 29.5zM433 52q43 0 82 10.5t74 30.5
l-161 204h88l128 -162q44 41 69 98.5t25 126.5q0 68 -25.5 124.5t-67.5 97t-97 62.5t-115 22q-59 0 -113.5 -22.5t-96.5 -63.5t-67 -98t-25 -126q0 -66 24.5 -122t66 -96.5t96 -63t115.5 -22.5z" />
    <glyph glyph-name="R" unicode="R" horiz-adv-x="592" 
d="M292 718q63 0 109.5 -13.5t76.5 -38.5t44.5 -60.5t14.5 -78.5q0 -49 -18 -85t-51 -60t-78.5 -36t-101.5 -12l259 -334h-89l-254 334h-45v-334h-72v718h205zM159 404h129q80 0 127 29t47 94q0 53 -37.5 87t-118.5 34h-147v-244z" />
    <glyph glyph-name="Racute" unicode="&#x154;" horiz-adv-x="592" 
d="M292 718q63 0 109.5 -13.5t76.5 -38.5t44.5 -60.5t14.5 -78.5q0 -49 -18 -85t-51 -60t-78.5 -36t-101.5 -12l259 -334h-89l-254 334h-45v-334h-72v718h205zM288 404q80 0 127 29t47 94q0 53 -37.5 87t-118.5 34h-147v-244h129zM325 911h105l-134 -129h-68z" />
    <glyph glyph-name="Rcaron" unicode="&#x158;" horiz-adv-x="592" 
d="M87 0v718h205q63 0 109.5 -13.5t76.5 -38.5t44.5 -60.5t14.5 -78.5q0 -49 -18 -85t-51 -60t-78.5 -36t-101.5 -12l259 -334h-89l-254 334h-45v-334h-72zM159 404h129q80 0 127 29t47 94q0 53 -37.5 87t-118.5 34h-147v-244zM179 905l86 -74l90 74h91l-145 -125h-68
l-142 125h88z" />
    <glyph glyph-name="uni0156" unicode="&#x156;" horiz-adv-x="592" 
d="M87 0v718h205q63 0 109.5 -13.5t76.5 -38.5t44.5 -60.5t14.5 -78.5q0 -49 -18 -85t-51 -60t-78.5 -36t-101.5 -12l259 -334h-89l-254 334h-45v-334h-72zM159 404h129q80 0 127 29t47 94q0 53 -37.5 87t-118.5 34h-147v-244zM216 -187l36 132h85l-63 -132h-58z" />
    <glyph glyph-name="S" unicode="S" horiz-adv-x="487" 
d="M25 134l61 37q65 -119 150 -119q28 0 52.5 9.5t42.5 26t28 39t10 47.5t-11 47t-34 46.5t-60 55t-89 72.5q-27 21 -46.5 40t-32 38.5t-19 42t-6.5 52.5q0 37 13.5 68t37 53t55.5 34.5t68 12.5q33 0 60 -9.5t49.5 -25t41.5 -37t37 -45.5l-58 -45q-29 38 -58.5 63t-73.5 25
q-23 0 -41 -7.5t-30.5 -20.5t-19 -29t-6.5 -34q0 -36 21 -65.5t57 -55.5q48 -35 88.5 -66.5t70 -64t45.5 -67.5t16 -77q0 -38 -15 -73t-42 -61.5t-64 -42.5t-81 -16q-75 0 -126 39.5t-91 112.5z" />
    <glyph glyph-name="Sacute" unicode="&#x15a;" horiz-adv-x="487" 
d="M25 134l61 37q65 -119 150 -119q28 0 52.5 9.5t42.5 26t28 39t10 47.5t-11 47t-34 46.5t-60 55t-89 72.5q-27 21 -46.5 40t-32 38.5t-19 42t-6.5 52.5q0 37 13.5 68t37 53t55.5 34.5t68 12.5q33 0 60 -9.5t49.5 -25t41.5 -37t37 -45.5l-58 -45q-29 38 -58.5 63t-73.5 25
q-23 0 -41 -7.5t-30.5 -20.5t-19 -29t-6.5 -34q0 -36 21 -65.5t57 -55.5q48 -35 88.5 -66.5t70 -64t45.5 -67.5t16 -77q0 -38 -15 -73t-42 -61.5t-64 -42.5t-81 -16q-75 0 -126 39.5t-91 112.5zM207 782l97 129h105l-134 -129h-68z" />
    <glyph glyph-name="Scaron" unicode="&#x160;" horiz-adv-x="487" 
d="M25 134l61 37q65 -119 150 -119q28 0 52.5 9.5t42.5 26t28 39t10 47.5t-11 47t-34 46.5t-60 55t-89 72.5q-27 21 -46.5 40t-32 38.5t-19 42t-6.5 52.5q0 37 13.5 68t37 53t55.5 34.5t68 12.5q33 0 60 -9.5t49.5 -25t41.5 -37t37 -45.5l-58 -45q-29 38 -58.5 63t-73.5 25
q-23 0 -41 -7.5t-30.5 -20.5t-19 -29t-6.5 -34q0 -36 21 -65.5t57 -55.5q48 -35 88.5 -66.5t70 -64t45.5 -67.5t16 -77q0 -38 -15 -73t-42 -61.5t-64 -42.5t-81 -16q-75 0 -126 39.5t-91 112.5zM158 905l86 -74l90 74h91l-145 -125h-68l-142 125h88z" />
    <glyph glyph-name="Scedilla" unicode="&#x15e;" horiz-adv-x="487" 
d="M86 171q65 -119 150 -119q28 0 52.5 9.5t42.5 26t28 39t10 47.5t-11 47t-34 46.5t-60 55t-89 72.5q-27 21 -46.5 40t-32 38.5t-19 42t-6.5 52.5q0 37 13.5 68t37 53t55.5 34.5t68 12.5q33 0 60 -9.5t49.5 -25t41.5 -37t37 -45.5l-58 -45q-29 38 -58.5 63t-73.5 25
q-23 0 -41 -7.5t-30.5 -20.5t-19 -29t-6.5 -34q0 -36 21 -65.5t57 -55.5q48 -35 88.5 -66.5t70 -64t45.5 -67.5t16 -77q0 -36 -13.5 -69t-37.5 -59t-57 -43t-73 -21l-5 -37q32 0 52.5 -13t20.5 -41q0 -33 -29.5 -55.5t-82.5 -22.5q-42 0 -81 15l11 34q14 -5 28.5 -7.5
t29.5 -2.5q32 0 49 8t17 24q0 9 -8 15t-22 6q-8 0 -17.5 -1.5t-16.5 -3.5l11 82q-66 6 -112 44.5t-83 106.5z" />
    <glyph glyph-name="Scircumflex" unicode="&#x15c;" horiz-adv-x="487" 
d="M25 134l61 37q65 -119 150 -119q28 0 52.5 9.5t42.5 26t28 39t10 47.5t-11 47t-34 46.5t-60 55t-89 72.5q-27 21 -46.5 40t-32 38.5t-19 42t-6.5 52.5q0 37 13.5 68t37 53t55.5 34.5t68 12.5q33 0 60 -9.5t49.5 -25t41.5 -37t37 -45.5l-58 -45q-29 38 -58.5 63t-73.5 25
q-23 0 -41 -7.5t-30.5 -20.5t-19 -29t-6.5 -34q0 -36 21 -65.5t57 -55.5q48 -35 88.5 -66.5t70 -64t45.5 -67.5t16 -77q0 -38 -15 -73t-42 -61.5t-64 -42.5t-81 -16q-75 0 -126 39.5t-91 112.5zM205 905h88l132 -125h-89l-86 74l-89 -74h-91z" />
    <glyph glyph-name="uni0218" unicode="&#x218;" horiz-adv-x="487" 
d="M25 134l61 37q65 -119 150 -119q28 0 52.5 9.5t42.5 26t28 39t10 47.5t-11 47t-34 46.5t-60 55t-89 72.5q-27 21 -46.5 40t-32 38.5t-19 42t-6.5 52.5q0 37 13.5 68t37 53t55.5 34.5t68 12.5q33 0 60 -9.5t49.5 -25t41.5 -37t37 -45.5l-58 -45q-29 38 -58.5 63t-73.5 25
q-23 0 -41 -7.5t-30.5 -20.5t-19 -29t-6.5 -34q0 -36 21 -65.5t57 -55.5q48 -35 88.5 -66.5t70 -64t45.5 -67.5t16 -77q0 -38 -15 -73t-42 -61.5t-64 -42.5t-81 -16q-75 0 -126 39.5t-91 112.5zM157 -187l36 132h85l-63 -132h-58z" />
    <glyph glyph-name="Germandbls" unicode="&#x1e9e;" horiz-adv-x="607" 
d="M75 465q0 134 71.5 193.5t204.5 59.5q65 0 101 -5t59 -10v-66q-69 -10 -108.5 -40t-39.5 -80q0 -24 8.5 -43t23.5 -36.5t36 -34.5t45 -38q26 -21 45.5 -42t33 -43.5t20.5 -48.5t7 -57q0 -42 -12.5 -77t-37.5 -60.5t-61 -40t-84 -14.5q-35 0 -64 9t-53 24t-43.5 33.5
t-34.5 37.5l56 52q31 -37 63 -61.5t83 -24.5q53 0 83 31.5t30 83.5q0 45 -23.5 78.5t-69.5 71.5q-26 22 -49 43t-40 44t-26.5 48t-9.5 55q0 45 20.5 81.5t72.5 59.5h-31q-52 0 -90 -9t-63.5 -30t-38 -56t-12.5 -88v-465h-72v465z" />
    <glyph glyph-name="uni018F" unicode="&#x18f;" horiz-adv-x="850" 
d="M56 366h663q-4 66 -26.5 121.5t-60.5 95t-89.5 61.5t-113.5 22q-52 0 -95 -13t-77.5 -37t-62.5 -57.5t-51 -74.5l-63 36q24 46 58.5 85.5t78 68.5t97 45.5t115.5 16.5q86 0 153.5 -30.5t114.5 -82.5t72 -119.5t25 -142.5q0 -76 -26 -145t-75 -121t-118 -82.5t-155 -30.5
q-75 0 -141 24t-115.5 70.5t-78.5 113.5t-29 153v23zM426 54q55 0 104 19t87.5 52t64 77t34.5 94h-583q6 -61 33 -106.5t67.5 -75.5t90.5 -45t102 -15z" />
    <glyph glyph-name="T" unicode="T" horiz-adv-x="426" 
d="M16 718h394v-70h-160v-648h-72v648h-162v70z" />
    <glyph glyph-name="Tbar" unicode="&#x166;" horiz-adv-x="426" 
d="M16 718h394v-70h-160v-269h137v-67h-137v-312h-72v312h-138v67h138v269h-162v70z" />
    <glyph glyph-name="Tcaron" unicode="&#x164;" horiz-adv-x="426" 
d="M410 718v-70h-160v-648h-72v648h-162v70h394zM40 904h88l86 -74l90 74h91l-145 -125h-68z" />
    <glyph glyph-name="uni0162" unicode="&#x162;" horiz-adv-x="426" 
d="M16 648v70h394v-70h-160v-648h-14l-7 -54q32 0 52.5 -13t20.5 -41q0 -33 -29.5 -55.5t-82.5 -22.5q-42 0 -81 15l11 34q14 -5 28.5 -7.5t29.5 -2.5q32 0 49 8t17 24q0 9 -8 15t-22 6q-8 0 -17.5 -1.5t-16.5 -3.5l13 99h-15v648h-162z" />
    <glyph glyph-name="uni021A" unicode="&#x21a;" horiz-adv-x="426" 
d="M16 648v70h394v-70h-160v-648h-72v648h-162zM127 -187l36 132h85l-63 -132h-58z" />
    <glyph glyph-name="U" unicode="U" horiz-adv-x="655" 
d="M90 718h72v-481q0 -39 10 -73t31 -59t52 -39t73 -14t73.5 14.5t52 39t30.5 58t10 70.5v484h72v-467q0 -128 -63.5 -198.5t-174.5 -70.5t-174.5 70.5t-63.5 198.5v467z" />
    <glyph glyph-name="Uacute" unicode="&#xda;" horiz-adv-x="655" 
d="M90 718h72v-481q0 -39 10 -73t31 -59t52 -39t73 -14t73.5 14.5t52 39t30.5 58t10 70.5v484h72v-467q0 -128 -63.5 -198.5t-174.5 -70.5t-174.5 70.5t-63.5 198.5v467zM287 782l97 129h105l-134 -129h-68z" />
    <glyph glyph-name="Ubreve" unicode="&#x16c;" horiz-adv-x="655" 
d="M162 718v-481q0 -39 10 -73t31 -59t52 -39t73 -14t73.5 14.5t52 39t30.5 58t10 70.5v484h72v-467q0 -128 -63.5 -198.5t-174.5 -70.5t-174.5 70.5t-63.5 198.5v467h72zM234 897q14 -26 38 -41t56 -15t56 15t38 41h64q-6 -22 -19.5 -42t-33 -35.5t-46 -25t-59.5 -9.5
t-59.5 9.5t-46 25t-33 35.5t-19.5 42h64z" />
    <glyph glyph-name="Ucircumflex" unicode="&#xdb;" horiz-adv-x="655" 
d="M90 251v467h72v-481q0 -39 10 -73t31 -59t52 -39t73 -14t73.5 14.5t52 39t30.5 58t10 70.5v484h72v-467q0 -128 -63.5 -198.5t-174.5 -70.5t-174.5 70.5t-63.5 198.5zM150 780l135 125h88l132 -125h-89l-86 74l-89 -74h-91z" />
    <glyph glyph-name="Udieresis" unicode="&#xdc;" horiz-adv-x="655" 
d="M90 718h72v-481q0 -39 10 -73t31 -59t52 -39t73 -14t73.5 14.5t52 39t30.5 58t10 70.5v484h72v-467q0 -128 -63.5 -198.5t-174.5 -70.5t-174.5 70.5t-63.5 198.5v467zM415 886q20 0 34.5 -15t14.5 -35t-14.5 -34.5t-34.5 -14.5t-35 14.5t-15 34.5t15 35t35 15zM192 836
q0 20 15 35t35 15t34.5 -15t14.5 -35t-14.5 -34.5t-34.5 -14.5t-35 14.5t-15 34.5z" />
    <glyph glyph-name="Ugrave" unicode="&#xd9;" horiz-adv-x="655" 
d="M162 718v-481q0 -39 10 -73t31 -59t52 -39t73 -14t73.5 14.5t52 39t30.5 58t10 70.5v484h72v-467q0 -128 -63.5 -198.5t-174.5 -70.5t-174.5 70.5t-63.5 198.5v467h72zM167 911h105l97 -129h-68z" />
    <glyph glyph-name="Uhungarumlaut" unicode="&#x170;" horiz-adv-x="655" 
d="M90 718h72v-481q0 -39 10 -73t31 -59t52 -39t73 -14t73.5 14.5t52 39t30.5 58t10 70.5v484h72v-467q0 -128 -63.5 -198.5t-174.5 -70.5t-174.5 70.5t-63.5 198.5v467zM360 782l107 151h105l-144 -151h-68zM206 782l107 151h105l-145 -151h-67z" />
    <glyph glyph-name="Umacron" unicode="&#x16a;" horiz-adv-x="655" 
d="M90 718h72v-481q0 -39 10 -73t31 -59t52 -39t73 -14t73.5 14.5t52 39t30.5 58t10 70.5v484h72v-467q0 -128 -63.5 -198.5t-174.5 -70.5t-174.5 70.5t-63.5 198.5v467zM188 815v60h279v-60h-279z" />
    <glyph glyph-name="Uogonek" unicode="&#x172;" horiz-adv-x="655" 
d="M162 718v-481q0 -39 10 -73t31 -59t52 -39t73 -14t73.5 14.5t52 39t30.5 58t10 70.5v484h72v-467q0 -116 -53 -185t-147 -82q-43 -36 -43 -77q0 -52 62 -52q9 0 18.5 0.5t15.5 2.5l-5 -45q-12 -2 -21.5 -3t-20.5 -1q-48 0 -77.5 24.5t-29.5 64.5q0 44 39 85
q-100 8 -157 77.5t-57 190.5v467h72z" />
    <glyph glyph-name="Uring" unicode="&#x16e;" horiz-adv-x="655" 
d="M90 718h72v-481q0 -39 10 -73t31 -59t52 -39t73 -14t73.5 14.5t52 39t30.5 58t10 70.5v484h72v-467q0 -128 -63.5 -198.5t-174.5 -70.5t-174.5 70.5t-63.5 198.5v467zM226 857q0 21 8 39.5t21.5 32t32.5 21.5t40 8t39.5 -8t32 -21.5t21.5 -32t8 -39.5t-8 -39.5
t-21.5 -32.5t-32 -22t-39.5 -8t-39.5 8t-32.5 22t-22 32.5t-8 39.5zM269 857q0 -26 18 -42.5t41 -16.5q25 0 42 17.5t17 41.5q0 25 -19 42t-40 17q-26 0 -42.5 -17t-16.5 -42z" />
    <glyph glyph-name="Utilde" unicode="&#x168;" horiz-adv-x="655" 
d="M162 718v-481q0 -39 10 -73t31 -59t52 -39t73 -14t73.5 14.5t52 39t30.5 58t10 70.5v484h72v-467q0 -128 -63.5 -198.5t-174.5 -70.5t-174.5 70.5t-63.5 198.5v467h72zM164 846q19 21 45 34t55 13q19 0 36.5 -6t33.5 -12.5t31 -12.5t30 -6q17 0 33.5 6.5t31.5 17.5
l31 -47q-23 -18 -45 -28.5t-51 -10.5q-22 0 -39.5 6t-33.5 12.5t-30 12.5t-28 6q-20 0 -37 -9t-32 -22z" />
    <glyph glyph-name="V" unicode="V" horiz-adv-x="702" 
d="M33 718h78l238 -555l242 555h78l-312 -718h-16z" />
    <glyph glyph-name="W" unicode="W" horiz-adv-x="960" 
d="M47 718h74l148 -528q8 21 16.5 42t16.5 43l171 443h15l173 -446q8 -20 16 -40.5t16 -41.5q6 20 12 40.5t11 40.5l124 447h73l-205 -718h-14l-189 485q-6 16 -12.5 32t-12.5 33q-7 -17 -13.5 -32.5t-12.5 -32.5l-189 -485h-13z" />
    <glyph glyph-name="Wacute" unicode="&#x1e82;" horiz-adv-x="960" 
d="M121 718l148 -528q8 21 16.5 42t16.5 43l171 443h15l173 -446q8 -20 16 -40.5t16 -41.5q6 20 12 40.5t11 40.5l124 447h73l-205 -718h-14l-189 485q-6 16 -12.5 32t-12.5 33q-7 -17 -13.5 -32.5t-12.5 -32.5l-189 -485h-13l-205 718h74zM439 783l97 129h105l-134 -129
h-68z" />
    <glyph glyph-name="Wcircumflex" unicode="&#x174;" horiz-adv-x="960" 
d="M47 718h74l148 -528q8 21 16.5 42t16.5 43l171 443h15l173 -446q8 -20 16 -40.5t16 -41.5q6 20 12 40.5t11 40.5l124 447h73l-205 -718h-14l-189 485q-6 16 -12.5 32t-12.5 33q-7 -17 -13.5 -32.5t-12.5 -32.5l-189 -485h-13zM302 781l135 125h88l132 -125h-89l-86 74
l-89 -74h-91z" />
    <glyph glyph-name="Wdieresis" unicode="&#x1e84;" horiz-adv-x="960" 
d="M47 718h74l148 -528q8 21 16.5 42t16.5 43l171 443h15l173 -446q8 -20 16 -40.5t16 -41.5q6 20 12 40.5t11 40.5l124 447h73l-205 -718h-14l-189 485q-6 16 -12.5 32t-12.5 33q-7 -17 -13.5 -32.5t-12.5 -32.5l-189 -485h-13zM517 837q0 20 15 35t35 15t34.5 -15
t14.5 -35t-14.5 -34.5t-34.5 -14.5t-35 14.5t-15 34.5zM344 837q0 20 15 35t35 15t34.5 -15t14.5 -35t-14.5 -34.5t-34.5 -14.5t-35 14.5t-15 34.5z" />
    <glyph glyph-name="Wgrave" unicode="&#x1e80;" horiz-adv-x="960" 
d="M121 718l148 -528q8 21 16.5 42t16.5 43l171 443h15l173 -446q8 -20 16 -40.5t16 -41.5q6 20 12 40.5t11 40.5l124 447h73l-205 -718h-14l-189 485q-6 16 -12.5 32t-12.5 33q-7 -17 -13.5 -32.5t-12.5 -32.5l-189 -485h-13l-205 718h74zM319 912h105l97 -129h-68z" />
    <glyph glyph-name="X" unicode="X" horiz-adv-x="609" 
d="M263 370l-213 348h84l172 -280l173 280h83l-214 -348l228 -370h-84l-186 301l-188 -301h-84z" />
    <glyph glyph-name="Y" unicode="Y" horiz-adv-x="561" 
d="M15 718h83l184 -296l181 296h83l-228 -375v-343h-72v343z" />
    <glyph glyph-name="Yacute" unicode="&#xdd;" horiz-adv-x="561" 
d="M98 718l184 -296l181 296h83l-228 -375v-343h-72v343l-231 375h83zM337 910h105l-134 -129h-68z" />
    <glyph glyph-name="Ycircumflex" unicode="&#x176;" horiz-adv-x="561" 
d="M15 718h83l184 -296l181 296h83l-228 -375v-343h-72v343zM238 904h88l132 -125h-89l-86 74l-89 -74h-91z" />
    <glyph glyph-name="Ydieresis" unicode="&#x178;" horiz-adv-x="561" 
d="M15 718h83l184 -296l181 296h83l-228 -375v-343h-72v343zM318 835q0 20 15 35t35 15t34.5 -15t14.5 -35t-14.5 -34.5t-34.5 -14.5t-35 14.5t-15 34.5zM145 835q0 20 15 35t35 15t34.5 -15t14.5 -35t-14.5 -34.5t-34.5 -14.5t-35 14.5t-15 34.5z" />
    <glyph glyph-name="Ygrave" unicode="&#x1ef2;" horiz-adv-x="561" 
d="M15 718h83l184 -296l181 296h83l-228 -375v-343h-72v343zM120 910h105l97 -129h-68z" />
    <glyph glyph-name="Z" unicode="Z" horiz-adv-x="480" 
d="M329 648h-270v70h379l-300 -648h285v-70h-396z" />
    <glyph glyph-name="Zacute" unicode="&#x179;" horiz-adv-x="480" 
d="M304 911h105l-134 -129h-68zM329 648h-270v70h379l-300 -648h285v-70h-396z" />
    <glyph glyph-name="Zcaron" unicode="&#x17d;" horiz-adv-x="480" 
d="M27 0l302 648h-270v70h379l-300 -648h285v-70h-396zM158 905l86 -74l90 74h91l-145 -125h-68l-142 125h88z" />
    <glyph glyph-name="Zdotaccent" unicode="&#x17b;" horiz-adv-x="480" 
d="M329 648h-270v70h379l-300 -648h285v-70h-396zM248 893q23 0 39.5 -17t16.5 -40t-16.5 -39.5t-39.5 -16.5t-40 16.5t-17 39.5t17 40t40 17z" />
    <glyph glyph-name="A.ss02" horiz-adv-x="695" 
d="M340 718h17l333 -718h-75l-129 276h-277l-129 -276h-75zM241 344h214l-107 229z" />
    <glyph glyph-name="Aacute.ss02" horiz-adv-x="695" 
d="M340 718h17l333 -718h-75l-129 276h-277l-129 -276h-75zM241 344h214l-107 229zM406 912h105l-134 -129h-68z" />
    <glyph glyph-name="Abreve.ss02" horiz-adv-x="695" 
d="M340 718h17l333 -718h-75l-129 276h-277l-129 -276h-75zM241 344h214l-107 229zM256 898q14 -26 38 -41t56 -15t56 15t38 41h64q-6 -22 -19.5 -42t-33 -35.5t-46 -25t-59.5 -9.5t-59.5 9.5t-46 25t-33 35.5t-19.5 42h64z" />
    <glyph glyph-name="Acircumflex.ss02" horiz-adv-x="695" 
d="M340 718h17l333 -718h-75l-129 276h-277l-129 -276h-75zM241 344h214l-107 229zM307 906h88l132 -125h-89l-86 74l-89 -74h-91z" />
    <glyph glyph-name="Adieresis.ss02" horiz-adv-x="695" 
d="M5 0l335 718h17l333 -718h-75l-129 276h-277l-129 -276h-75zM455 344l-107 229l-107 -229h214zM437 887q20 0 34.5 -15t14.5 -35t-14.5 -34.5t-34.5 -14.5t-35 14.5t-15 34.5t15 35t35 15zM214 837q0 20 15 35t35 15t34.5 -15t14.5 -35t-14.5 -34.5t-34.5 -14.5t-35 14.5
t-15 34.5z" />
    <glyph glyph-name="Agrave.ss02" horiz-adv-x="695" 
d="M5 0l335 718h17l333 -718h-75l-129 276h-277l-129 -276h-75zM241 344h214l-107 229zM189 912h105l97 -129h-68z" />
    <glyph glyph-name="Amacron.ss02" horiz-adv-x="695" 
d="M5 0l335 718h17l333 -718h-75l-129 276h-277l-129 -276h-75zM241 344h214l-107 229zM210 816v60h279v-60h-279z" />
    <glyph glyph-name="Aogonek.ss02" horiz-adv-x="695" 
d="M340 718h17l333 -718h-4q-64 -43 -64 -93q0 -52 62 -52q9 0 18.5 0.5t15.5 2.5l-5 -45q-12 -2 -21.5 -3t-20.5 -1q-48 0 -77.5 24.5t-29.5 64.5q0 26 15 52.5t42 49.5h-6l-129 276h-277l-129 -276h-75zM241 344h214l-107 229z" />
    <glyph glyph-name="Aring.ss02" horiz-adv-x="695" 
d="M340 718h17l333 -718h-75l-129 276h-277l-129 -276h-75zM248 858q0 21 8 39.5t21.5 32t32.5 21.5t40 8t39.5 -8t32 -21.5t21.5 -32t8 -39.5t-8 -39.5t-21.5 -32.5t-32 -22t-39.5 -8t-39.5 8t-32.5 22t-22 32.5t-8 39.5zM241 344h214l-107 229zM350 799q25 0 42 17.5
t17 41.5q0 25 -19 42t-40 17q-26 0 -42.5 -17t-16.5 -42q0 -26 18 -42.5t41 -16.5z" />
    <glyph glyph-name="Atilde.ss02" horiz-adv-x="695" 
d="M5 0l335 718h17l333 -718h-75l-129 276h-277l-129 -276h-75zM455 344l-107 229l-107 -229h214zM186 847q19 21 45 34t55 13q19 0 36.5 -6t33.5 -12.5t31 -12.5t30 -6q17 0 33.5 6.5t31.5 17.5l31 -47q-23 -18 -45 -28.5t-51 -10.5q-22 0 -39.5 6t-33.5 12.5t-30 12.5
t-28 6q-20 0 -37 -9t-32 -22z" />
    <glyph glyph-name="B.ss02" horiz-adv-x="538" 
d="M239 718q45 0 79 -13t56.5 -35.5t33.5 -52.5t11 -64q0 -36 -16 -67.5t-45 -49.5q78 -21 119 -77t41 -129q0 -46 -16 -87.5t-48.5 -73t-82.5 -50.5t-119 -19h-165v718h152zM159 387v-317h91q96 0 144.5 41t48.5 119q0 79 -54.5 118t-154.5 39h-75zM234 457q30 0 50.5 8
t34 21.5t19.5 30.5t6 36q0 18 -5.5 35t-17.5 30.5t-31.5 21.5t-47.5 8h-83v-191h75z" />
    <glyph glyph-name="E.ss02" horiz-adv-x="535" 
d="M87 0v718h410v-70h-338v-185h338v-70h-338v-323h338v-70h-410z" />
    <glyph glyph-name="Eacute.ss02" horiz-adv-x="535" 
d="M87 0v718h410v-70h-338v-185h338v-70h-338v-323h338v-70h-410zM354 911h105l-134 -129h-68z" />
    <glyph glyph-name="Ebreve.ss02" horiz-adv-x="535" 
d="M87 0v718h410v-70h-338v-185h338v-70h-338v-323h338v-70h-410zM204 897q14 -26 38 -41t56 -15t56 15t38 41h64q-6 -22 -19.5 -42t-33 -35.5t-46 -25t-59.5 -9.5t-59.5 9.5t-46 25t-33 35.5t-19.5 42h64z" />
    <glyph glyph-name="Ecaron.ss02" horiz-adv-x="535" 
d="M87 0v718h410v-70h-338v-185h338v-70h-338v-323h338v-70h-410zM120 905h88l86 -74l90 74h91l-145 -125h-68z" />
    <glyph glyph-name="Ecircumflex.ss02" horiz-adv-x="535" 
d="M87 718h410v-70h-338v-185h338v-70h-338v-323h338v-70h-410v718zM120 780l135 125h88l132 -125h-89l-86 74l-89 -74h-91z" />
    <glyph glyph-name="Edieresis.ss02" horiz-adv-x="535" 
d="M87 0v718h410v-70h-338v-185h338v-70h-338v-323h338v-70h-410zM385 886q20 0 34.5 -15t14.5 -35t-14.5 -34.5t-34.5 -14.5t-35 14.5t-15 34.5t15 35t35 15zM162 836q0 20 15 35t35 15t34.5 -15t14.5 -35t-14.5 -34.5t-34.5 -14.5t-35 14.5t-15 34.5z" />
    <glyph glyph-name="Edotaccent.ss02" horiz-adv-x="535" 
d="M87 0v718h410v-70h-338v-185h338v-70h-338v-323h338v-70h-410zM241 836q0 23 17 40t40 17t39.5 -17t16.5 -40t-16.5 -39.5t-39.5 -16.5t-40 16.5t-17 39.5z" />
    <glyph glyph-name="Egrave.ss02" horiz-adv-x="535" 
d="M87 718h410v-70h-338v-185h338v-70h-338v-323h338v-70h-410v718zM242 911l97 -129h-68l-134 129h105z" />
    <glyph glyph-name="Emacron.ss02" horiz-adv-x="535" 
d="M87 718h410v-70h-338v-185h338v-70h-338v-323h338v-70h-410v718zM437 875v-60h-279v60h279z" />
    <glyph glyph-name="F.ss02" horiz-adv-x="485" 
d="M87 0v718h360v-70h-288v-185h288v-70h-288v-393h-72z" />
    <glyph glyph-name="G.ss02" horiz-adv-x="872" 
d="M451 736q55 0 101.5 -10.5t87 -29t75 -44t65.5 -55.5l-55 -52q-61 60 -126 90.5t-146 30.5q-64 0 -122.5 -22t-102.5 -62t-70 -96t-26 -125q0 -62 21.5 -118t61.5 -98t97.5 -67t129.5 -25q65 0 118.5 19t93.5 56t64 90t29 121h-281v70h357v-34q0 -81 -25 -152.5
t-73.5 -125t-120.5 -84t-165 -30.5t-164.5 31t-119.5 83t-73 120t-25 142q0 80 30 149t82.5 119.5t125 79.5t156.5 29z" />
    <glyph glyph-name="Gbreve.ss02" horiz-adv-x="872" 
d="M57 359q0 80 30 149t82.5 119.5t125 79.5t156.5 29q55 0 101.5 -10.5t87 -29t75 -44t65.5 -55.5l-55 -52q-61 60 -126 90.5t-146 30.5q-64 0 -122.5 -22t-102.5 -62t-70 -96t-26 -125q0 -62 21.5 -118t61.5 -98t97.5 -67t129.5 -25q65 0 118.5 19t93.5 56t64 90t29 121
h-281v70h357v-34q0 -81 -25 -152.5t-73.5 -125t-120.5 -84t-165 -30.5t-164.5 31t-119.5 83t-73 120t-25 142zM358 898q14 -26 38 -41t56 -15t56 15t38 41h64q-6 -22 -19.5 -42t-33 -35.5t-46 -25t-59.5 -9.5t-59.5 9.5t-46 25t-33 35.5t-19.5 42h64z" />
    <glyph glyph-name="Gcircumflex.ss02" horiz-adv-x="872" 
d="M451 736q55 0 101.5 -10.5t87 -29t75 -44t65.5 -55.5l-55 -52q-61 60 -126 90.5t-146 30.5q-64 0 -122.5 -22t-102.5 -62t-70 -96t-26 -125q0 -62 21.5 -118t61.5 -98t97.5 -67t129.5 -25q65 0 118.5 19t93.5 56t64 90t29 121h-281v70h357v-34q0 -81 -25 -152.5
t-73.5 -125t-120.5 -84t-165 -30.5t-164.5 31t-119.5 83t-73 120t-25 142q0 80 30 149t82.5 119.5t125 79.5t156.5 29zM274 781l135 125h88l132 -125h-89l-86 74l-89 -74h-91z" />
    <glyph glyph-name="uni0122.ss02" horiz-adv-x="872" 
d="M451 736q55 0 101.5 -10.5t87 -29t75 -44t65.5 -55.5l-55 -52q-61 60 -126 90.5t-146 30.5q-64 0 -122.5 -22t-102.5 -62t-70 -96t-26 -125q0 -62 21.5 -118t61.5 -98t97.5 -67t129.5 -25q65 0 118.5 19t93.5 56t64 90t29 121h-281v70h357v-34q0 -81 -25 -152.5
t-73.5 -125t-120.5 -84t-165 -30.5t-164.5 31t-119.5 83t-73 120t-25 142q0 80 30 149t82.5 119.5t125 79.5t156.5 29zM377 -187l36 132h85l-63 -132h-58z" />
    <glyph glyph-name="Gdotaccent.ss02" horiz-adv-x="872" 
d="M57 359q0 80 30 149t82.5 119.5t125 79.5t156.5 29q55 0 101.5 -10.5t87 -29t75 -44t65.5 -55.5l-55 -52q-61 60 -126 90.5t-146 30.5q-64 0 -122.5 -22t-102.5 -62t-70 -96t-26 -125q0 -62 21.5 -118t61.5 -98t97.5 -67t129.5 -25q65 0 118.5 19t93.5 56t64 90t29 121
h-281v70h357v-34q0 -81 -25 -152.5t-73.5 -125t-120.5 -84t-165 -30.5t-164.5 31t-119.5 83t-73 120t-25 142zM452 894q23 0 39.5 -17t16.5 -40t-16.5 -39.5t-39.5 -16.5t-40 16.5t-17 39.5t17 40t40 17z" />
    <glyph glyph-name="H.ss02" horiz-adv-x="683" 
d="M87 0v718h72v-241h366v241h72v-718h-72v407h-366v-407h-72z" />
    <glyph glyph-name="Hbar.ss02" horiz-adv-x="683" 
d="M87 625v93h72v-93h366v93h72v-93h64v-67h-64v-558h-72v407h-366v-407h-72v558h-65v67h65zM159 477h366v81h-366v-81z" />
    <glyph glyph-name="Hcircumflex.ss02" horiz-adv-x="683" 
d="M159 718v-241h366v241h72v-718h-72v407h-366v-407h-72v718h72zM299 904h88l132 -125h-89l-86 74l-89 -74h-91z" />
    <glyph glyph-name="K.ss02" horiz-adv-x="570" 
d="M87 0v718h72v-251l229 251h85l-170 -186l267 -532h-81l-237 477l-93 -103v-374h-72z" />
    <glyph glyph-name="uni0136.ss02" horiz-adv-x="570" 
d="M87 0v718h72v-251l229 251h85l-170 -186l267 -532h-81l-237 477l-93 -103v-374h-72zM224 -187l36 132h85l-63 -132h-58z" />
    <glyph glyph-name="M.ss02" horiz-adv-x="778" 
d="M87 718h28l276 -351l273 351h28v-718h-72v545l-220 -275h-18l-223 275v-545h-72v718z" />
    <glyph glyph-name="N.ss02" horiz-adv-x="736" 
d="M141 718l437 -318v318h72v-718h-70v315l-421 305v-620h-72v718h54z" />
    <glyph glyph-name="Nacute.ss02" horiz-adv-x="736" 
d="M87 0v718h54l437 -318v318h72v-718h-70v315l-421 305v-620h-72zM331 781l97 129h105l-134 -129h-68z" />
    <glyph glyph-name="Ncaron.ss02" horiz-adv-x="736" 
d="M141 718l437 -318v318h72v-718h-70v315l-421 305v-620h-72v718h54zM194 904h88l86 -74l90 74h91l-145 -125h-68z" />
    <glyph glyph-name="uni0145.ss02" horiz-adv-x="736" 
d="M87 0v718h54l437 -318v318h72v-718h-70v315l-421 305v-620h-72zM303 -187l36 132h85l-63 -132h-58z" />
    <glyph glyph-name="Ntilde.ss02" horiz-adv-x="736" 
d="M87 0v718h54l437 -318v318h72v-718h-70v315l-421 305v-620h-72zM208 845q19 21 45 34t55 13q19 0 36.5 -6t33.5 -12.5t31 -12.5t30 -6q17 0 33.5 6.5t31.5 17.5l31 -47q-23 -18 -45 -28.5t-51 -10.5q-22 0 -39.5 6t-33.5 12.5t-30 12.5t-28 6q-20 0 -37 -9t-32 -22z" />
    <glyph glyph-name="P.ss02" horiz-adv-x="537" 
d="M87 718h163q59 0 105.5 -9.5t79 -30t50 -53t17.5 -79.5t-17.5 -79.5t-50 -53t-79 -30t-105.5 -9.5h-91v-374h-72v718zM159 648v-204h91q90 0 133.5 21.5t43.5 80.5t-43.5 80.5t-133.5 21.5h-91z" />
    <glyph glyph-name="R.ss02" horiz-adv-x="567" 
d="M252 718q108 0 156.5 -44t48.5 -118q0 -41 -13 -70t-36 -48t-54 -29t-67 -13l260 -396h-89l-258 394h-41v-394h-72v718h165zM159 464h89q62 0 98 22t36 70q0 40 -28 66t-88 26h-107v-184z" />
    <glyph glyph-name="Racute.ss02" horiz-adv-x="567" 
d="M252 718q108 0 156.5 -44t48.5 -118q0 -41 -13 -70t-36 -48t-54 -29t-67 -13l260 -396h-89l-258 394h-41v-394h-72v718h165zM159 464h89q62 0 98 22t36 70q0 40 -28 66t-88 26h-107v-184zM309 911h105l-134 -129h-68z" />
    <glyph glyph-name="Rcaron.ss02" horiz-adv-x="567" 
d="M87 718h165q108 0 156.5 -44t48.5 -118q0 -41 -13 -70t-36 -48t-54 -29t-67 -13l260 -396h-89l-258 394h-41v-394h-72v718zM159 464h89q62 0 98 22t36 70q0 40 -28 66t-88 26h-107v-184zM163 905l86 -74l90 74h91l-145 -125h-68l-142 125h88z" />
    <glyph glyph-name="uni0156.ss02" horiz-adv-x="567" 
d="M87 0v718h165q108 0 156.5 -44t48.5 -118q0 -41 -13 -70t-36 -48t-54 -29t-67 -13l260 -396h-89l-258 394h-41v-394h-72zM248 464q62 0 98 22t36 70q0 40 -28 66t-88 26h-107v-184h89zM198 -187l36 132h85l-63 -132h-58z" />
    <glyph glyph-name="S.ss02" horiz-adv-x="507" 
d="M69 171q35 -60 75 -89.5t92 -29.5q33 0 58.5 12t43 32.5t26 48t8.5 59.5t-8 57.5t-26.5 49.5t-48 48t-71.5 51q-40 26 -67.5 48t-44.5 44t-24.5 43.5t-7.5 45.5q0 30 10.5 56t30 46t48 31.5t65.5 11.5q30 0 54.5 -8t45.5 -21.5t38 -30.5t30 -36l-58 -45q-25 29 -49.5 48
t-62.5 19q-35 0 -56 -19.5t-21 -48.5q0 -15 5.5 -29t18.5 -28t35 -31t55 -38q37 -24 70.5 -49.5t58.5 -56.5t40 -69.5t15 -87.5q0 -44 -13.5 -84.5t-40 -71t-66.5 -49t-93 -18.5q-77 0 -132.5 42.5t-93.5 109.5z" />
    <glyph glyph-name="Sacute.ss02" horiz-adv-x="507" 
d="M69 171q35 -60 75 -89.5t92 -29.5q33 0 58.5 12t43 32.5t26 48t8.5 59.5t-8 57.5t-26.5 49.5t-48 48t-71.5 51q-40 26 -67.5 48t-44.5 44t-24.5 43.5t-7.5 45.5q0 30 10.5 56t30 46t48 31.5t65.5 11.5q30 0 54.5 -8t45.5 -21.5t38 -30.5t30 -36l-58 -45q-25 29 -49.5 48
t-62.5 19q-35 0 -56 -19.5t-21 -48.5q0 -15 5.5 -29t18.5 -28t35 -31t55 -38q37 -24 70.5 -49.5t58.5 -56.5t40 -69.5t15 -87.5q0 -44 -13.5 -84.5t-40 -71t-66.5 -49t-93 -18.5q-77 0 -132.5 42.5t-93.5 109.5zM288 911h105l-134 -129h-68z" />
    <glyph glyph-name="Scedilla.ss02" horiz-adv-x="507" 
d="M69 171q35 -60 75 -89.5t92 -29.5q33 0 58.5 12t43 32.5t26 48t8.5 59.5t-8 57.5t-26.5 49.5t-48 48t-71.5 51q-40 26 -67.5 48t-44.5 44t-24.5 43.5t-7.5 45.5q0 30 10.5 56t30 46t48 31.5t65.5 11.5q30 0 54.5 -8t45.5 -21.5t38 -30.5t30 -36l-58 -45q-25 29 -49.5 48
t-62.5 19q-35 0 -56 -19.5t-21 -48.5q0 -15 5.5 -29t18.5 -28t35 -31t55 -38q37 -24 70.5 -49.5t58.5 -56.5t40 -69.5t15 -87.5q0 -42 -12 -80.5t-36.5 -69t-61 -50t-84.5 -22.5l-5 -37q32 0 52.5 -13t20.5 -41q0 -33 -29.5 -55.5t-82.5 -22.5q-42 0 -81 15l11 34
q14 -5 28.5 -7.5t29.5 -2.5q32 0 49 8t17 24q0 9 -8 15t-22 6q-8 0 -17.5 -1.5t-16.5 -3.5l11 82q-68 7 -117.5 48t-84.5 103z" />
    <glyph glyph-name="Scircumflex.ss02" horiz-adv-x="507" 
d="M8 134l61 37q35 -60 75 -89.5t92 -29.5q33 0 58.5 12t43 32.5t26 48t8.5 59.5t-8 57.5t-26.5 49.5t-48 48t-71.5 51q-40 26 -67.5 48t-44.5 44t-24.5 43.5t-7.5 45.5q0 30 10.5 56t30 46t48 31.5t65.5 11.5q30 0 54.5 -8t45.5 -21.5t38 -30.5t30 -36l-58 -45
q-25 29 -49.5 48t-62.5 19q-35 0 -56 -19.5t-21 -48.5q0 -15 5.5 -29t18.5 -28t35 -31t55 -38q37 -24 70.5 -49.5t58.5 -56.5t40 -69.5t15 -87.5q0 -44 -13.5 -84.5t-40 -71t-66.5 -49t-93 -18.5q-77 0 -132.5 42.5t-93.5 109.5zM54 780l135 125h88l132 -125h-89l-86 74
l-89 -74h-91z" />
    <glyph glyph-name="uni0218.ss02" horiz-adv-x="507" 
d="M69 171q35 -60 75 -89.5t92 -29.5q33 0 58.5 12t43 32.5t26 48t8.5 59.5t-8 57.5t-26.5 49.5t-48 48t-71.5 51q-40 26 -67.5 48t-44.5 44t-24.5 43.5t-7.5 45.5q0 30 10.5 56t30 46t48 31.5t65.5 11.5q30 0 54.5 -8t45.5 -21.5t38 -30.5t30 -36l-58 -45q-25 29 -49.5 48
t-62.5 19q-35 0 -56 -19.5t-21 -48.5q0 -15 5.5 -29t18.5 -28t35 -31t55 -38q37 -24 70.5 -49.5t58.5 -56.5t40 -69.5t15 -87.5q0 -44 -13.5 -84.5t-40 -71t-66.5 -49t-93 -18.5q-77 0 -132.5 42.5t-93.5 109.5zM168 -187l36 132h85l-63 -132h-58z" />
    <glyph glyph-name="Y.ss02" horiz-adv-x="535" 
d="M88 718l181 -257l178 257h83l-225 -315v-403h-72v403l-228 315h83z" />
    <glyph glyph-name="Ycircumflex.ss02" horiz-adv-x="535" 
d="M5 718h83l181 -257l178 257h83l-225 -315v-403h-72v403zM225 906h88l132 -125h-89l-86 74l-89 -74h-91z" />
    <glyph glyph-name="Ygrave.ss02" horiz-adv-x="535" 
d="M88 718l181 -257l178 257h83l-225 -315v-403h-72v403l-228 315h83zM107 912h105l97 -129h-68z" />
    <glyph glyph-name="A.ss03" horiz-adv-x="695" 
d="M340 718h17l333 -718h-75l-73 156h-389l-73 -156h-75zM185 224h326l-163 349z" />
    <glyph glyph-name="Aacute.ss03" horiz-adv-x="695" 
d="M340 718h17l333 -718h-75l-73 156h-389l-73 -156h-75zM185 224h326l-163 349zM406 912h105l-134 -129h-68z" />
    <glyph glyph-name="Abreve.ss03" horiz-adv-x="695" 
d="M5 0l335 718h17l333 -718h-75l-73 156h-389l-73 -156h-75zM185 224h326l-163 349zM192 898h64q14 -26 38 -41t56 -15t56 15t38 41h64q-6 -22 -19.5 -42t-33 -35.5t-46 -25t-59.5 -9.5t-59.5 9.5t-46 25t-33 35.5t-19.5 42z" />
    <glyph glyph-name="Acircumflex.ss03" horiz-adv-x="695" 
d="M340 718h17l333 -718h-75l-73 156h-389l-73 -156h-75zM185 224h326l-163 349zM307 906h88l132 -125h-89l-86 74l-89 -74h-91z" />
    <glyph glyph-name="Adieresis.ss03" horiz-adv-x="695" 
d="M340 718h17l333 -718h-75l-73 156h-389l-73 -156h-75zM185 224h326l-163 349zM437 887q20 0 34.5 -15t14.5 -35t-14.5 -34.5t-34.5 -14.5t-35 14.5t-15 34.5t15 35t35 15zM214 837q0 20 15 35t35 15t34.5 -15t14.5 -35t-14.5 -34.5t-34.5 -14.5t-35 14.5t-15 34.5z" />
    <glyph glyph-name="Agrave.ss03" horiz-adv-x="695" 
d="M340 718h17l333 -718h-75l-73 156h-389l-73 -156h-75zM185 224h326l-163 349zM294 912l97 -129h-68l-134 129h105z" />
    <glyph glyph-name="Amacron.ss03" horiz-adv-x="695" 
d="M340 718h17l333 -718h-75l-73 156h-389l-73 -156h-75zM185 224h326l-163 349zM210 816v60h279v-60h-279z" />
    <glyph glyph-name="Aogonek.ss03" horiz-adv-x="695" 
d="M340 718h17l333 -718h-4q-64 -43 -64 -93q0 -52 62 -52q9 0 18.5 0.5t15.5 2.5l-5 -45q-12 -2 -21.5 -3t-20.5 -1q-48 0 -77.5 24.5t-29.5 64.5q0 26 15 52.5t42 49.5h-6l-73 156h-389l-73 -156h-75zM185 224h326l-163 349z" />
    <glyph glyph-name="Aring.ss03" horiz-adv-x="695" 
d="M340 718h17l333 -718h-75l-73 156h-389l-73 -156h-75zM185 224h326l-163 349zM248 858q0 21 8 39.5t21.5 32t32.5 21.5t40 8t39.5 -8t32 -21.5t21.5 -32t8 -39.5t-8 -39.5t-21.5 -32.5t-32 -22t-39.5 -8t-39.5 8t-32.5 22t-22 32.5t-8 39.5zM350 799q25 0 42 17.5
t17 41.5q0 25 -19 42t-40 17q-26 0 -42.5 -17t-16.5 -42q0 -26 18 -42.5t41 -16.5z" />
    <glyph glyph-name="Atilde.ss03" horiz-adv-x="695" 
d="M340 718h17l333 -718h-75l-73 156h-389l-73 -156h-75zM185 224h326l-163 349zM186 847q19 21 45 34t55 13q19 0 36.5 -6t33.5 -12.5t31 -12.5t30 -6q17 0 33.5 6.5t31.5 17.5l31 -47q-23 -18 -45 -28.5t-51 -10.5q-22 0 -39.5 6t-33.5 12.5t-30 12.5t-28 6q-20 0 -37 -9
t-32 -22z" />
    <glyph glyph-name="E.ss03" horiz-adv-x="535" 
d="M87 0v718h410v-70h-338v-279h338v-70h-338v-229h338v-70h-410z" />
    <glyph glyph-name="Eacute.ss03" horiz-adv-x="535" 
d="M87 0v718h410v-70h-338v-279h338v-70h-338v-229h338v-70h-410zM354 911h105l-134 -129h-68z" />
    <glyph glyph-name="Ebreve.ss03" horiz-adv-x="535" 
d="M87 0v718h410v-70h-338v-279h338v-70h-338v-229h338v-70h-410zM204 897q14 -26 38 -41t56 -15t56 15t38 41h64q-6 -22 -19.5 -42t-33 -35.5t-46 -25t-59.5 -9.5t-59.5 9.5t-46 25t-33 35.5t-19.5 42h64z" />
    <glyph glyph-name="Ecaron.ss03" horiz-adv-x="535" 
d="M87 0v718h410v-70h-338v-279h338v-70h-338v-229h338v-70h-410zM120 905h88l86 -74l90 74h91l-145 -125h-68z" />
    <glyph glyph-name="Ecircumflex.ss03" horiz-adv-x="535" 
d="M87 718h410v-70h-338v-279h338v-70h-338v-229h338v-70h-410v718zM120 780l135 125h88l132 -125h-89l-86 74l-89 -74h-91z" />
    <glyph glyph-name="Edieresis.ss03" horiz-adv-x="535" 
d="M87 0v718h410v-70h-338v-279h338v-70h-338v-229h338v-70h-410zM385 886q20 0 34.5 -15t14.5 -35t-14.5 -34.5t-34.5 -14.5t-35 14.5t-15 34.5t15 35t35 15zM162 836q0 20 15 35t35 15t34.5 -15t14.5 -35t-14.5 -34.5t-34.5 -14.5t-35 14.5t-15 34.5z" />
    <glyph glyph-name="Edotaccent.ss03" horiz-adv-x="535" 
d="M87 0v718h410v-70h-338v-279h338v-70h-338v-229h338v-70h-410zM241 836q0 23 17 40t40 17t39.5 -17t16.5 -40t-16.5 -39.5t-39.5 -16.5t-40 16.5t-17 39.5z" />
    <glyph glyph-name="Egrave.ss03" horiz-adv-x="535" 
d="M87 718h410v-70h-338v-279h338v-70h-338v-229h338v-70h-410v718zM242 911l97 -129h-68l-134 129h105z" />
    <glyph glyph-name="Emacron.ss03" horiz-adv-x="535" 
d="M87 718h410v-70h-338v-279h338v-70h-338v-229h338v-70h-410v718zM437 875v-60h-279v60h279z" />
    <glyph glyph-name="F.ss03" horiz-adv-x="485" 
d="M87 0v718h360v-70h-288v-279h288v-70h-288v-299h-72z" />
    <glyph glyph-name="G.ss03" horiz-adv-x="872" 
d="M451 736q99 0 178 -35.5t151 -103.5l-55 -52q-61 60 -131.5 90.5t-140.5 30.5q-68 0 -127 -23.5t-102 -64.5t-67.5 -96.5t-24.5 -120.5q0 -62 23.5 -118t66.5 -98t104.5 -67t137.5 -25q50 0 95 13t81 36t61.5 54.5t35.5 68.5h-284v70h370v-2q0 -66 -26.5 -123t-74 -98.5
t-114 -65t-146.5 -23.5q-97 0 -172.5 31t-127 83t-78.5 120.5t-27 143.5t28.5 143t80 119.5t124.5 82t161 30.5z" />
    <glyph glyph-name="Gbreve.ss03" horiz-adv-x="872" 
d="M57 361q0 75 28.5 143t80 119.5t124.5 82t161 30.5q99 0 178 -35.5t151 -103.5l-55 -52q-61 60 -131.5 90.5t-140.5 30.5q-68 0 -127 -23.5t-102 -64.5t-67.5 -96.5t-24.5 -120.5q0 -62 23.5 -118t66.5 -98t104.5 -67t137.5 -25q50 0 95 13t81 36t61.5 54.5t35.5 68.5
h-284v70h370v-2q0 -66 -26.5 -123t-74 -98.5t-114 -65t-146.5 -23.5q-97 0 -172.5 31t-127 83t-78.5 120.5t-27 143.5zM358 898q14 -26 38 -41t56 -15t56 15t38 41h64q-6 -22 -19.5 -42t-33 -35.5t-46 -25t-59.5 -9.5t-59.5 9.5t-46 25t-33 35.5t-19.5 42h64z" />
    <glyph glyph-name="Gcircumflex.ss03" horiz-adv-x="872" 
d="M451 736q99 0 178 -35.5t151 -103.5l-55 -52q-61 60 -131.5 90.5t-140.5 30.5q-68 0 -127 -23.5t-102 -64.5t-67.5 -96.5t-24.5 -120.5q0 -62 23.5 -118t66.5 -98t104.5 -67t137.5 -25q50 0 95 13t81 36t61.5 54.5t35.5 68.5h-284v70h370v-2q0 -66 -26.5 -123t-74 -98.5
t-114 -65t-146.5 -23.5q-97 0 -172.5 31t-127 83t-78.5 120.5t-27 143.5t28.5 143t80 119.5t124.5 82t161 30.5zM274 781l135 125h88l132 -125h-89l-86 74l-89 -74h-91z" />
    <glyph glyph-name="uni0122.ss03" horiz-adv-x="872" 
d="M451 736q99 0 178 -35.5t151 -103.5l-55 -52q-61 60 -131.5 90.5t-140.5 30.5q-68 0 -127 -23.5t-102 -64.5t-67.5 -96.5t-24.5 -120.5q0 -62 23.5 -118t66.5 -98t104.5 -67t137.5 -25q50 0 95 13t81 36t61.5 54.5t35.5 68.5h-284v70h370v-2q0 -66 -26.5 -123t-74 -98.5
t-114 -65t-146.5 -23.5q-97 0 -172.5 31t-127 83t-78.5 120.5t-27 143.5t28.5 143t80 119.5t124.5 82t161 30.5zM377 -187l36 132h85l-63 -132h-58z" />
    <glyph glyph-name="Gdotaccent.ss03" horiz-adv-x="872" 
d="M57 361q0 75 28.5 143t80 119.5t124.5 82t161 30.5q99 0 178 -35.5t151 -103.5l-55 -52q-61 60 -131.5 90.5t-140.5 30.5q-68 0 -127 -23.5t-102 -64.5t-67.5 -96.5t-24.5 -120.5q0 -62 23.5 -118t66.5 -98t104.5 -67t137.5 -25q50 0 95 13t81 36t61.5 54.5t35.5 68.5
h-284v70h370v-2q0 -66 -26.5 -123t-74 -98.5t-114 -65t-146.5 -23.5q-97 0 -172.5 31t-127 83t-78.5 120.5t-27 143.5zM452 894q23 0 39.5 -17t16.5 -40t-16.5 -39.5t-39.5 -16.5t-40 16.5t-17 39.5t17 40t40 17z" />
    <glyph glyph-name="H.ss03" horiz-adv-x="683" 
d="M87 0v718h72v-392h366v392h72v-718h-72v256h-366v-256h-72z" />
    <glyph glyph-name="Hbar.ss03" horiz-adv-x="683" 
d="M87 552v166h72v-166h366v166h72v-166h64v-67h-64v-485h-72v256h-366v-256h-72v485h-65v67h65zM159 326h366v159h-366v-159z" />
    <glyph glyph-name="Hcircumflex.ss03" horiz-adv-x="683" 
d="M159 718v-392h366v392h72v-718h-72v256h-366v-256h-72v718h72zM299 904h88l132 -125h-89l-86 74l-89 -74h-91z" />
    <glyph glyph-name="K.ss03" horiz-adv-x="570" 
d="M87 0v718h72v-393l299 393h85l-217 -286l244 -432h-83l-209 369l-119 -156v-213h-72z" />
    <glyph glyph-name="uni0136.ss03" horiz-adv-x="570" 
d="M87 0v718h72v-393l299 393h85l-217 -286l244 -432h-83l-209 369l-119 -156v-213h-72zM227 -187l36 132h85l-63 -132h-58z" />
    <glyph glyph-name="M.ss03" horiz-adv-x="818" 
d="M162 718l249 -462l246 462h75v-718h-72v569l-240 -434h-18l-243 434v-569h-72v718h75z" />
    <glyph glyph-name="N.ss03" horiz-adv-x="736" 
d="M143 718l435 -440v440h72v-718h-70v173l-421 426v-599h-72v718h56z" />
    <glyph glyph-name="Nacute.ss03" horiz-adv-x="736" 
d="M87 0v718h56l435 -440v440h72v-718h-70v173l-421 426v-599h-72zM331 781l97 129h105l-134 -129h-68z" />
    <glyph glyph-name="Ncaron.ss03" horiz-adv-x="736" 
d="M143 718l435 -440v440h72v-718h-70v173l-421 426v-599h-72v718h56zM194 904h88l86 -74l90 74h91l-145 -125h-68z" />
    <glyph glyph-name="uni0145.ss03" horiz-adv-x="736" 
d="M87 0v718h56l435 -440v440h72v-718h-70v173l-421 426v-599h-72zM303 -187l36 132h85l-63 -132h-58z" />
    <glyph glyph-name="Ntilde.ss03" horiz-adv-x="736" 
d="M87 0v718h56l435 -440v440h72v-718h-70v173l-421 426v-599h-72zM208 845q19 21 45 34t55 13q19 0 36.5 -6t33.5 -12.5t31 -12.5t30 -6q17 0 33.5 6.5t31.5 17.5l31 -47q-23 -18 -45 -28.5t-51 -10.5q-22 0 -39.5 6t-33.5 12.5t-30 12.5t-28 6q-20 0 -37 -9t-32 -22z" />
    <glyph glyph-name="P.ss03" horiz-adv-x="547" 
d="M87 718h123q68 0 124.5 -17t97 -49.5t63 -80.5t22.5 -111t-22.5 -111.5t-63 -81.5t-97 -50.5t-124.5 -17.5h-51v-199h-72v718zM159 648v-379h51q109 0 170.5 47.5t61.5 143.5t-61.5 142t-170.5 46h-51z" />
    <glyph glyph-name="R.ss03" horiz-adv-x="607" 
d="M91 0v718h151q78 0 134.5 -17t93 -48.5t54 -74.5t17.5 -96q0 -43 -15 -80.5t-41.5 -66.5t-64 -49t-82.5 -29l203 -257h-88l-200 251h-90v-251h-72zM163 648v-327h97q100 0 153 41.5t53 119.5q0 36 -11 66.5t-36.5 52.5t-66.5 34.5t-100 12.5h-89z" />
    <glyph glyph-name="Racute.ss03" horiz-adv-x="607" 
d="M91 718h151q78 0 134.5 -17t93 -48.5t54 -74.5t17.5 -96q0 -43 -15 -80.5t-41.5 -66.5t-64 -49t-82.5 -29l203 -257h-88l-200 251h-90v-251h-72v718zM163 321h97q100 0 153 41.5t53 119.5q0 36 -11 66.5t-36.5 52.5t-66.5 34.5t-100 12.5h-89v-327zM344 911h105
l-134 -129h-68z" />
    <glyph glyph-name="Rcaron.ss03" horiz-adv-x="607" 
d="M91 0v718h151q78 0 134.5 -17t93 -48.5t54 -74.5t17.5 -96q0 -43 -15 -80.5t-41.5 -66.5t-64 -49t-82.5 -29l203 -257h-88l-200 251h-90v-251h-72zM163 321h97q100 0 153 41.5t53 119.5q0 36 -11 66.5t-36.5 52.5t-66.5 34.5t-100 12.5h-89v-327zM198 905l86 -74l90 74
h91l-145 -125h-68l-142 125h88z" />
    <glyph glyph-name="uni0156.ss03" horiz-adv-x="607" 
d="M91 718h151q78 0 134.5 -17t93 -48.5t54 -74.5t17.5 -96q0 -43 -15 -80.5t-41.5 -66.5t-64 -49t-82.5 -29l203 -257h-88l-200 251h-90v-251h-72v718zM163 321h97q100 0 153 41.5t53 119.5q0 36 -11 66.5t-36.5 52.5t-66.5 34.5t-100 12.5h-89v-327zM218 -187l36 132h85
l-63 -132h-58z" />
    <glyph glyph-name="S.ss03" horiz-adv-x="487" 
d="M30 122l58 40q33 -56 75.5 -83t90.5 -27q54 0 83.5 31t29.5 79q0 23 -8 42.5t-24.5 39t-43 41t-63.5 47.5q-81 57 -120 110t-39 118q0 39 13.5 71t37 55.5t55.5 36.5t68 13q66 0 112 -34.5t76 -82.5l-58 -45q-27 38 -57 63t-75 25q-23 0 -41 -8.5t-30.5 -22.5t-19 -32.5
t-6.5 -38.5q0 -24 8.5 -45t25 -41.5t41 -41t57.5 -43.5q46 -33 78 -61t51.5 -54t28 -53t8.5 -59q0 -36 -12.5 -69t-36.5 -57.5t-59 -39t-80 -14.5q-74 0 -130.5 38t-93.5 102z" />
    <glyph glyph-name="Sacute.ss03" horiz-adv-x="487" 
d="M30 122l58 40q33 -56 75.5 -83t90.5 -27q54 0 83.5 31t29.5 79q0 23 -8 42.5t-24.5 39t-43 41t-63.5 47.5q-81 57 -120 110t-39 118q0 39 13.5 71t37 55.5t55.5 36.5t68 13q66 0 112 -34.5t76 -82.5l-58 -45q-27 38 -57 63t-75 25q-23 0 -41 -8.5t-30.5 -22.5t-19 -32.5
t-6.5 -38.5q0 -24 8.5 -45t25 -41.5t41 -41t57.5 -43.5q46 -33 78 -61t51.5 -54t28 -53t8.5 -59q0 -36 -12.5 -69t-36.5 -57.5t-59 -39t-80 -14.5q-74 0 -130.5 38t-93.5 102zM304 911h105l-134 -129h-68z" />
    <glyph glyph-name="Scedilla.ss03" horiz-adv-x="487" 
d="M88 162q33 -56 75.5 -83t90.5 -27q54 0 83.5 31t29.5 79q0 23 -8 42.5t-24.5 39t-43 41t-63.5 47.5q-81 57 -120 110t-39 118q0 39 13.5 71t37 55.5t55.5 36.5t68 13q66 0 112 -34.5t76 -82.5l-58 -45q-27 38 -57 63t-75 25q-23 0 -41 -8.5t-30.5 -22.5t-19 -32.5
t-6.5 -38.5q0 -24 8.5 -45t25 -41.5t41 -41t57.5 -43.5q46 -33 78 -61t51.5 -54t28 -53t8.5 -59q0 -35 -12 -67t-34.5 -56.5t-55.5 -39.5t-76 -17l-5 -36q32 0 52.5 -13t20.5 -41q0 -33 -29.5 -55.5t-82.5 -22.5q-42 0 -81 15l11 34q14 -5 28.5 -7.5t29.5 -2.5q32 0 49 8
t17 24q0 9 -8 15t-22 6q-8 0 -17.5 -1.5t-16.5 -3.5l11 83q-62 8 -110.5 44.5t-80.5 93.5z" />
    <glyph glyph-name="Scircumflex.ss03" horiz-adv-x="487" 
d="M88 162q33 -56 75.5 -83t90.5 -27q54 0 83.5 31t29.5 79q0 23 -8 42.5t-24.5 39t-43 41t-63.5 47.5q-81 57 -120 110t-39 118q0 39 13.5 71t37 55.5t55.5 36.5t68 13q66 0 112 -34.5t76 -82.5l-58 -45q-27 38 -57 63t-75 25q-23 0 -41 -8.5t-30.5 -22.5t-19 -32.5
t-6.5 -38.5q0 -24 8.5 -45t25 -41.5t41 -41t57.5 -43.5q46 -33 78 -61t51.5 -54t28 -53t8.5 -59q0 -36 -12.5 -69t-36.5 -57.5t-59 -39t-80 -14.5q-74 0 -130.5 38t-93.5 102zM205 905h88l132 -125h-89l-86 74l-89 -74h-91z" />
    <glyph glyph-name="uni0218.ss03" horiz-adv-x="487" 
d="M30 122l58 40q33 -56 75.5 -83t90.5 -27q54 0 83.5 31t29.5 79q0 23 -8 42.5t-24.5 39t-43 41t-63.5 47.5q-81 57 -120 110t-39 118q0 39 13.5 71t37 55.5t55.5 36.5t68 13q66 0 112 -34.5t76 -82.5l-58 -45q-27 38 -57 63t-75 25q-23 0 -41 -8.5t-30.5 -22.5t-19 -32.5
t-6.5 -38.5q0 -24 8.5 -45t25 -41.5t41 -41t57.5 -43.5q46 -33 78 -61t51.5 -54t28 -53t8.5 -59q0 -36 -12.5 -69t-36.5 -57.5t-59 -39t-80 -14.5q-74 0 -130.5 38t-93.5 102zM158 -187l36 132h85l-63 -132h-58z" />
    <glyph glyph-name="Y.ss03" horiz-adv-x="558" 
d="M90 718l189 -422l189 422h80l-233 -510v-208h-72v208l-233 510h80z" />
    <glyph glyph-name="Ycircumflex.ss03" horiz-adv-x="558" 
d="M10 718h80l189 -422l189 422h80l-233 -510v-208h-72v208zM236 906h88l132 -125h-89l-86 74l-89 -74h-91z" />
    <glyph glyph-name="Ygrave.ss03" horiz-adv-x="558" 
d="M90 718l189 -422l189 422h80l-233 -510v-208h-72v208l-233 510h80zM118 912h105l97 -129h-68z" />
    <glyph glyph-name="C.ss04" horiz-adv-x="512" 
d="M56 356q0 80 29 149.5t80 120.5t119.5 80.5t147.5 29.5v-70q-59 0 -113.5 -22.5t-96 -63.5t-66.5 -98t-25 -126q0 -66 24.5 -122t65.5 -96.5t96 -63t115 -22.5v-70q-82 0 -151 30t-119 81.5t-78 119.5t-28 143z" />
    <glyph glyph-name="Cacute.ss04" horiz-adv-x="512" 
d="M56 356q0 80 29 149.5t80 120.5t119.5 80.5t147.5 29.5v-70q-59 0 -113.5 -22.5t-96 -63.5t-66.5 -98t-25 -126q0 -66 24.5 -122t65.5 -96.5t96 -63t115 -22.5v-70q-82 0 -151 30t-119 81.5t-78 119.5t-28 143zM437 911h105l-134 -129h-68z" />
    <glyph glyph-name="Ccaron.ss04" horiz-adv-x="512" 
d="M56 356q0 80 29 149.5t80 120.5t119.5 80.5t147.5 29.5v-70q-59 0 -113.5 -22.5t-96 -63.5t-66.5 -98t-25 -126q0 -66 24.5 -122t65.5 -96.5t96 -63t115 -22.5v-70q-82 0 -151 30t-119 81.5t-78 119.5t-28 143zM291 905l86 -74l90 74h91l-145 -125h-68l-142 125h88z" />
    <glyph glyph-name="Ccedilla.ss04" horiz-adv-x="512" 
d="M56 356q0 80 29 149.5t80 120.5t119.5 80.5t147.5 29.5v-70q-59 0 -113.5 -22.5t-96 -63.5t-66.5 -98t-25 -126q0 -66 24.5 -122t65.5 -96.5t96 -63t115 -22.5v-70q-14 0 -27 1t-27 3l-11 -40q22 0 43.5 -14t21.5 -45q0 -29 -24 -51t-68 -22q-42 0 -81 15l11 34
q14 -5 28.5 -7.5t29.5 -2.5q46 0 46 29q0 11 -7 17.5t-24 6.5q-9 0 -15.5 -0.5t-13.5 -1.5l22 90q-63 16 -114.5 50.5t-88 82.5t-57 106.5t-20.5 122.5z" />
    <glyph glyph-name="Ccircumflex.ss04" horiz-adv-x="512" 
d="M56 356q0 80 29 149.5t80 120.5t119.5 80.5t147.5 29.5v-70q-59 0 -113.5 -22.5t-96 -63.5t-66.5 -98t-25 -126q0 -66 24.5 -122t65.5 -96.5t96 -63t115 -22.5v-70q-82 0 -151 30t-119 81.5t-78 119.5t-28 143zM338 905h88l132 -125h-89l-86 74l-89 -74h-91z" />
    <glyph glyph-name="Cdotaccent.ss04" horiz-adv-x="512" 
d="M56 356q0 80 29 149.5t80 120.5t119.5 80.5t147.5 29.5v-70q-59 0 -113.5 -22.5t-96 -63.5t-66.5 -98t-25 -126q0 -66 24.5 -122t65.5 -96.5t96 -63t115 -22.5v-70q-82 0 -151 30t-119 81.5t-78 119.5t-28 143zM324 836q0 23 17 40t40 17t39.5 -17t16.5 -40t-16.5 -39.5
t-39.5 -16.5t-40 16.5t-17 39.5z" />
    <glyph glyph-name="E.ss04" horiz-adv-x="512" 
d="M56 356q0 80 29 149.5t80 120.5t119.5 80.5t147.5 29.5v-70q-54 0 -104 -18.5t-90 -53t-67.5 -82.5t-35.5 -107h278v-70h-281q4 -62 29.5 -114t66 -89.5t93.5 -58.5t111 -21v-70q-82 0 -151 30t-119 81.5t-78 119.5t-28 143z" />
    <glyph glyph-name="Eacute.ss04" horiz-adv-x="512" 
d="M432 736v-70q-54 0 -104 -18.5t-90 -53t-67.5 -82.5t-35.5 -107h278v-70h-281q4 -62 29.5 -114t66 -89.5t93.5 -58.5t111 -21v-70q-82 0 -151 30t-119 81.5t-78 119.5t-28 143q0 80 29 149.5t80 120.5t119.5 80.5t147.5 29.5zM412 911h105l-134 -129h-68z" />
    <glyph glyph-name="Ebreve.ss04" horiz-adv-x="512" 
d="M56 356q0 80 29 149.5t80 120.5t119.5 80.5t147.5 29.5v-70q-54 0 -104 -18.5t-90 -53t-67.5 -82.5t-35.5 -107h278v-70h-281q4 -62 29.5 -114t66 -89.5t93.5 -58.5t111 -21v-70q-82 0 -151 30t-119 81.5t-78 119.5t-28 143zM198 897h64q14 -26 38 -41t56 -15t56 15
t38 41h64q-6 -22 -19.5 -42t-33 -35.5t-46 -25t-59.5 -9.5t-59.5 9.5t-46 25t-33 35.5t-19.5 42z" />
    <glyph glyph-name="Ecaron.ss04" horiz-adv-x="512" 
d="M432 736v-70q-54 0 -104 -18.5t-90 -53t-67.5 -82.5t-35.5 -107h278v-70h-281q4 -62 29.5 -114t66 -89.5t93.5 -58.5t111 -21v-70q-82 0 -151 30t-119 81.5t-78 119.5t-28 143q0 80 29 149.5t80 120.5t119.5 80.5t147.5 29.5zM178 905h88l86 -74l90 74h91l-145 -125h-68z
" />
    <glyph glyph-name="Ecircumflex.ss04" horiz-adv-x="512" 
d="M432 736v-70q-54 0 -104 -18.5t-90 -53t-67.5 -82.5t-35.5 -107h278v-70h-281q4 -62 29.5 -114t66 -89.5t93.5 -58.5t111 -21v-70q-82 0 -151 30t-119 81.5t-78 119.5t-28 143q0 80 29 149.5t80 120.5t119.5 80.5t147.5 29.5zM313 905h88l132 -125h-89l-86 74l-89 -74
h-91z" />
    <glyph glyph-name="Edieresis.ss04" horiz-adv-x="512" 
d="M432 736v-70q-54 0 -104 -18.5t-90 -53t-67.5 -82.5t-35.5 -107h278v-70h-281q4 -62 29.5 -114t66 -89.5t93.5 -58.5t111 -21v-70q-82 0 -151 30t-119 81.5t-78 119.5t-28 143q0 80 29 149.5t80 120.5t119.5 80.5t147.5 29.5zM443 886q20 0 34.5 -15t14.5 -35
t-14.5 -34.5t-34.5 -14.5t-35 14.5t-15 34.5t15 35t35 15zM220 836q0 20 15 35t35 15t34.5 -15t14.5 -35t-14.5 -34.5t-34.5 -14.5t-35 14.5t-15 34.5z" />
    <glyph glyph-name="Edotaccent.ss04" horiz-adv-x="512" 
d="M432 736v-70q-54 0 -104 -18.5t-90 -53t-67.5 -82.5t-35.5 -107h278v-70h-281q4 -62 29.5 -114t66 -89.5t93.5 -58.5t111 -21v-70q-82 0 -151 30t-119 81.5t-78 119.5t-28 143q0 80 29 149.5t80 120.5t119.5 80.5t147.5 29.5zM299 836q0 23 17 40t40 17t39.5 -17
t16.5 -40t-16.5 -39.5t-39.5 -16.5t-40 16.5t-17 39.5z" />
    <glyph glyph-name="Egrave.ss04" horiz-adv-x="512" 
d="M56 356q0 80 29 149.5t80 120.5t119.5 80.5t147.5 29.5v-70q-54 0 -104 -18.5t-90 -53t-67.5 -82.5t-35.5 -107h278v-70h-281q4 -62 29.5 -114t66 -89.5t93.5 -58.5t111 -21v-70q-82 0 -151 30t-119 81.5t-78 119.5t-28 143zM300 911l97 -129h-68l-134 129h105z" />
    <glyph glyph-name="Emacron.ss04" horiz-adv-x="512" 
d="M432 736v-70q-54 0 -104 -18.5t-90 -53t-67.5 -82.5t-35.5 -107h278v-70h-281q4 -62 29.5 -114t66 -89.5t93.5 -58.5t111 -21v-70q-82 0 -151 30t-119 81.5t-78 119.5t-28 143q0 80 29 149.5t80 120.5t119.5 80.5t147.5 29.5zM495 875v-60h-279v60h279z" />
    <glyph glyph-name="Eogonek.ss04" horiz-adv-x="512" 
d="M432 736v-70q-54 0 -104 -18.5t-90 -53t-67.5 -82.5t-35.5 -107h278v-70h-281q4 -62 29.5 -114t66 -89.5t93.5 -58.5t111 -21v-70h-7q-24 -22 -38.5 -44t-14.5 -49t14 -38.5t30 -11.5q6 0 10.5 0.5t11.5 2.5l-3 -42q-12 -4 -31 -4q-16 0 -31 6t-27 17t-19 26.5t-7 34.5
q0 31 15 57.5t42 48.5q-71 10 -130 43t-101.5 82.5t-66 112.5t-23.5 132q0 80 29 149.5t80 120.5t119.5 80.5t147.5 29.5z" />
    <glyph glyph-name="K.ss04" horiz-adv-x="590" 
d="M87 0v718h72v-397l301 397h78v-5l-304 -401l334 -307v-5h-93l-316 293v-293h-72z" />
    <glyph glyph-name="uni0136.ss04" horiz-adv-x="590" 
d="M87 0v718h72v-397l301 397h78v-5l-304 -401l334 -307v-5h-93l-316 293v-293h-72zM245 -55h85l-63 -132h-58z" />
    <glyph glyph-name="S.ss04" horiz-adv-x="310" 
d="M160 718h86q-54 -53 -88 -102t-34 -101q0 -43 20 -77t49 -72q14 -18 27.5 -38t24.5 -41t18 -43.5t7 -45.5q0 -29 -8 -56.5t-21.5 -52t-31 -47t-36.5 -42.5h-93q53 47 84.5 98.5t31.5 90.5q0 22 -6 41t-16.5 37t-24 36.5t-28.5 38.5q-32 44 -51.5 82t-19.5 87
q0 32 9.5 60.5t25 54.5t35 49t40.5 43z" />
    <glyph glyph-name="Sacute.ss04" horiz-adv-x="310" 
d="M160 718h86q-54 -53 -88 -102t-34 -101q0 -43 20 -77t49 -72q14 -18 27.5 -38t24.5 -41t18 -43.5t7 -45.5q0 -29 -8 -56.5t-21.5 -52t-31 -47t-36.5 -42.5h-93q53 47 84.5 98.5t31.5 90.5q0 22 -6 41t-16.5 37t-24 36.5t-28.5 38.5q-32 44 -51.5 82t-19.5 87
q0 32 9.5 60.5t25 54.5t35 49t40.5 43zM269 911h105l-134 -129h-68z" />
    <glyph glyph-name="Scedilla.ss04" horiz-adv-x="310" 
d="M23 -171l11 34q14 -5 28.5 -7.5t29.5 -2.5q46 0 46 29q0 11 -7 17.5t-24 6.5q-9 0 -15.5 -0.5t-13.5 -1.5l24 96h-22q53 47 84.5 98.5t31.5 90.5q0 22 -6 41t-16.5 37t-24 36.5t-28.5 38.5q-32 44 -51.5 82t-19.5 87q0 32 9.5 60.5t25 54.5t35 49t40.5 43h86
q-54 -53 -88 -102t-34 -101q0 -43 20 -77t49 -72q14 -18 27.5 -38t24.5 -41t18 -43.5t7 -45.5q0 -49 -23.5 -95.5t-78.5 -102.5h-22l-15 -54q22 0 43.5 -14t21.5 -45q0 -29 -24 -51t-68 -22q-42 0 -81 15z" />
    <glyph glyph-name="Scircumflex.ss04" horiz-adv-x="310" 
d="M160 718h86q-54 -53 -88 -102t-34 -101q0 -43 20 -77t49 -72q14 -18 27.5 -38t24.5 -41t18 -43.5t7 -45.5q0 -29 -8 -56.5t-21.5 -52t-31 -47t-36.5 -42.5h-93q53 47 84.5 98.5t31.5 90.5q0 22 -6 41t-16.5 37t-24 36.5t-28.5 38.5q-32 44 -51.5 82t-19.5 87
q0 32 9.5 60.5t25 54.5t35 49t40.5 43zM35 780l135 125h88l132 -125h-89l-86 74l-89 -74h-91z" />
    <glyph glyph-name="uni0218.ss04" horiz-adv-x="310" 
d="M160 718h86q-54 -53 -88 -102t-34 -101q0 -43 20 -77t49 -72q14 -18 27.5 -38t24.5 -41t18 -43.5t7 -45.5q0 -29 -8 -56.5t-21.5 -52t-31 -47t-36.5 -42.5h-93q53 47 84.5 98.5t31.5 90.5q0 22 -6 41t-16.5 37t-24 36.5t-28.5 38.5q-32 44 -51.5 82t-19.5 87
q0 32 9.5 60.5t25 54.5t35 49t40.5 43zM50 -187l36 132h85l-63 -132h-58z" />
    <glyph glyph-name="C.ss05" horiz-adv-x="289" 
d="M22 364q0 62 13.5 114.5t35.5 96t49 79.5t54 64h93q-36 -33 -67.5 -71t-54 -82t-35.5 -94t-13 -107q0 -55 13 -105.5t36 -96.5t54 -86.5t67 -75.5h-93q-26 27 -53 64t-49 83.5t-36 101t-14 115.5z" />
    <glyph glyph-name="Cacute.ss05" horiz-adv-x="289" 
d="M22 364q0 62 13.5 114.5t35.5 96t49 79.5t54 64h93q-36 -33 -67.5 -71t-54 -82t-35.5 -94t-13 -107q0 -55 13 -105.5t36 -96.5t54 -86.5t67 -75.5h-93q-26 27 -53 64t-49 83.5t-36 101t-14 115.5zM190 782l97 129h105l-134 -129h-68z" />
    <glyph glyph-name="Ccaron.ss05" horiz-adv-x="289" 
d="M22 364q0 62 13.5 114.5t35.5 96t49 79.5t54 64h93q-36 -33 -67.5 -71t-54 -82t-35.5 -94t-13 -107q0 -55 13 -105.5t36 -96.5t54 -86.5t67 -75.5h-93q-26 27 -53 64t-49 83.5t-36 101t-14 115.5zM53 905h88l86 -74l90 74h91l-145 -125h-68z" />
    <glyph glyph-name="Ccedilla.ss05" horiz-adv-x="289" 
d="M22 364q0 62 13.5 114.5t35.5 96t49 79.5t54 64h93q-36 -33 -67.5 -71t-54 -82t-35.5 -94t-13 -107q0 -55 13 -105.5t36 -96.5t54 -86.5t67 -75.5h-39l-15 -54q22 0 43.5 -14t21.5 -45q0 -29 -24 -51t-68 -22q-42 0 -81 15l11 34q14 -5 28.5 -7.5t29.5 -2.5q46 0 46 29
q0 11 -7 17.5t-24 6.5q-9 0 -15.5 -0.5t-13.5 -1.5l24 96h-10q-26 27 -53 64t-49 83.5t-36 101t-14 115.5z" />
    <glyph glyph-name="Ccircumflex.ss05" horiz-adv-x="289" 
d="M174 718h93q-36 -33 -67.5 -71t-54 -82t-35.5 -94t-13 -107q0 -55 13 -105.5t36 -96.5t54 -86.5t67 -75.5h-93q-26 27 -53 64t-49 83.5t-36 101t-14 115.5q0 62 13.5 114.5t35.5 96t49 79.5t54 64zM188 905h88l132 -125h-89l-86 74l-89 -74h-91z" />
    <glyph glyph-name="Cdotaccent.ss05" horiz-adv-x="289" 
d="M22 364q0 62 13.5 114.5t35.5 96t49 79.5t54 64h93q-36 -33 -67.5 -71t-54 -82t-35.5 -94t-13 -107q0 -55 13 -105.5t36 -96.5t54 -86.5t67 -75.5h-93q-26 27 -53 64t-49 83.5t-36 101t-14 115.5zM174 836q0 23 17 40t40 17t39.5 -17t16.5 -40t-16.5 -39.5t-39.5 -16.5
t-40 16.5t-17 39.5z" />
    <glyph glyph-name="E.ss05" horiz-adv-x="329" 
d="M204 718h103q-90 -60 -144 -137t-64 -176h199v-70h-200q8 -101 63 -185t146 -150h-103q-33 26 -65.5 63.5t-58.5 84t-42 101t-16 115.5q0 62 16 116.5t42 99.5t58.5 80t65.5 58z" />
    <glyph glyph-name="Eacute.ss05" horiz-adv-x="329" 
d="M22 364q0 62 16 116.5t42 99.5t58.5 80t65.5 58h103q-90 -60 -144 -137t-64 -176h199v-70h-200q8 -101 63 -185t146 -150h-103q-33 26 -65.5 63.5t-58.5 84t-42 101t-16 115.5zM202 782l97 129h105l-134 -129h-68z" />
    <glyph glyph-name="Ebreve.ss05" horiz-adv-x="329" 
d="M22 364q0 62 16 116.5t42 99.5t58.5 80t65.5 58h103q-90 -60 -144 -137t-64 -176h199v-70h-200q8 -101 63 -185t146 -150h-103q-33 26 -65.5 63.5t-58.5 84t-42 101t-16 115.5zM85 897h64q14 -26 38 -41t56 -15t56 15t38 41h64q-6 -22 -19.5 -42t-33 -35.5t-46 -25
t-59.5 -9.5t-59.5 9.5t-46 25t-33 35.5t-19.5 42z" />
    <glyph glyph-name="Ecaron.ss05" horiz-adv-x="329" 
d="M204 718h103q-90 -60 -144 -137t-64 -176h199v-70h-200q8 -101 63 -185t146 -150h-103q-33 26 -65.5 63.5t-58.5 84t-42 101t-16 115.5q0 62 16 116.5t42 99.5t58.5 80t65.5 58zM65 905h88l86 -74l90 74h91l-145 -125h-68z" />
    <glyph glyph-name="Ecircumflex.ss05" horiz-adv-x="329" 
d="M204 718h103q-90 -60 -144 -137t-64 -176h199v-70h-200q8 -101 63 -185t146 -150h-103q-33 26 -65.5 63.5t-58.5 84t-42 101t-16 115.5q0 62 16 116.5t42 99.5t58.5 80t65.5 58zM65 780l135 125h88l132 -125h-89l-86 74l-89 -74h-91z" />
    <glyph glyph-name="Edieresis.ss05" horiz-adv-x="329" 
d="M204 718h103q-90 -60 -144 -137t-64 -176h199v-70h-200q8 -101 63 -185t146 -150h-103q-33 26 -65.5 63.5t-58.5 84t-42 101t-16 115.5q0 62 16 116.5t42 99.5t58.5 80t65.5 58zM330 886q20 0 34.5 -15t14.5 -35t-14.5 -34.5t-34.5 -14.5t-35 14.5t-15 34.5t15 35t35 15z
M107 836q0 20 15 35t35 15t34.5 -15t14.5 -35t-14.5 -34.5t-34.5 -14.5t-35 14.5t-15 34.5z" />
    <glyph glyph-name="Edotaccent.ss05" horiz-adv-x="329" 
d="M204 718h103q-90 -60 -144 -137t-64 -176h199v-70h-200q8 -101 63 -185t146 -150h-103q-33 26 -65.5 63.5t-58.5 84t-42 101t-16 115.5q0 62 16 116.5t42 99.5t58.5 80t65.5 58zM186 836q0 23 17 40t40 17t39.5 -17t16.5 -40t-16.5 -39.5t-39.5 -16.5t-40 16.5t-17 39.5z
" />
    <glyph glyph-name="Egrave.ss05" horiz-adv-x="329" 
d="M204 718h103q-90 -60 -144 -137t-64 -176h199v-70h-200q8 -101 63 -185t146 -150h-103q-33 26 -65.5 63.5t-58.5 84t-42 101t-16 115.5q0 62 16 116.5t42 99.5t58.5 80t65.5 58zM187 911l97 -129h-68l-134 129h105z" />
    <glyph glyph-name="Emacron.ss05" horiz-adv-x="329" 
d="M22 364q0 62 16 116.5t42 99.5t58.5 80t65.5 58h103q-90 -60 -144 -137t-64 -176h199v-70h-200q8 -101 63 -185t146 -150h-103q-33 26 -65.5 63.5t-58.5 84t-42 101t-16 115.5zM382 875v-60h-279v60h279z" />
    <glyph glyph-name="Eogonek.ss05" horiz-adv-x="376" 
d="M22 364q0 62 16 116.5t42 99.5t58.5 80t65.5 58h103q-90 -60 -144 -137t-64 -176h199v-70h-200q8 -101 63 -185t146 -150h-39q-31 -21 -47.5 -44t-16.5 -49q0 -25 16 -40t46 -15q8 0 17.5 0.5t16.5 2.5l-5 -42q-19 -4 -39 -4q-55 0 -79.5 27.5t-24.5 61.5q0 28 14 54
t39 48h-1q-33 26 -65.5 63.5t-58.5 84t-42 101t-16 115.5z" />
    <glyph glyph-name="S.ss05" horiz-adv-x="320" 
d="M145 718h85q-51 -47 -78.5 -91t-27.5 -89q0 -23 7.5 -43.5t19 -40t25.5 -37.5t26 -35q30 -41 49 -77.5t19 -85.5q0 -33 -11.5 -65t-28.5 -60.5t-38 -52.5t-40 -41h-85q23 23 46 49t41.5 54t30 57.5t11.5 58.5q0 39 -19.5 71.5t-48.5 70.5q-13 18 -27 38t-25.5 41.5
t-18.5 44.5t-7 47q0 54 26 100.5t69 85.5z" />
    <glyph glyph-name="Sacute.ss05" horiz-adv-x="320" 
d="M145 718h85q-51 -47 -78.5 -91t-27.5 -89q0 -23 7.5 -43.5t19 -40t25.5 -37.5t26 -35q30 -41 49 -77.5t19 -85.5q0 -33 -11.5 -65t-28.5 -60.5t-38 -52.5t-40 -41h-85q23 23 46 49t41.5 54t30 57.5t11.5 58.5q0 39 -19.5 71.5t-48.5 70.5q-13 18 -27 38t-25.5 41.5
t-18.5 44.5t-7 47q0 54 26 100.5t69 85.5zM256 911h105l-134 -129h-68z" />
    <glyph glyph-name="Scedilla.ss05" horiz-adv-x="320" 
d="M16 -171l11 34q14 -5 28.5 -7.5t29.5 -2.5q46 0 46 29q0 11 -7 17.5t-24 6.5q-9 0 -15.5 -0.5t-13.5 -1.5l24 96h-28q23 23 46 49t41.5 54t30 57.5t11.5 58.5q0 39 -19.5 71.5t-48.5 70.5q-13 18 -27 38t-25.5 41.5t-18.5 44.5t-7 47q0 54 26 100.5t69 85.5h85
q-51 -47 -78.5 -91t-27.5 -89q0 -23 7.5 -43.5t19 -40t25.5 -37.5t26 -35q30 -41 49 -77.5t19 -85.5q0 -33 -11.5 -65t-28.5 -60.5t-38 -52.5t-40 -41h-13l-15 -54q22 0 43.5 -14t21.5 -45q0 -29 -24 -51t-68 -22q-42 0 -81 15z" />
    <glyph glyph-name="Scircumflex.ss05" horiz-adv-x="320" 
d="M145 718h85q-51 -47 -78.5 -91t-27.5 -89q0 -23 7.5 -43.5t19 -40t25.5 -37.5t26 -35q30 -41 49 -77.5t19 -85.5q0 -33 -11.5 -65t-28.5 -60.5t-38 -52.5t-40 -41h-85q23 23 46 49t41.5 54t30 57.5t11.5 58.5q0 39 -19.5 71.5t-48.5 70.5q-13 18 -27 38t-25.5 41.5
t-18.5 44.5t-7 47q0 54 26 100.5t69 85.5zM22 780l135 125h88l132 -125h-89l-86 74l-89 -74h-91z" />
    <glyph glyph-name="uni0218.ss05" horiz-adv-x="320" 
d="M145 718h85q-51 -47 -78.5 -91t-27.5 -89q0 -23 7.5 -43.5t19 -40t25.5 -37.5t26 -35q30 -41 49 -77.5t19 -85.5q0 -33 -11.5 -65t-28.5 -60.5t-38 -52.5t-40 -41h-85q23 23 46 49t41.5 54t30 57.5t11.5 58.5q0 39 -19.5 71.5t-48.5 70.5q-13 18 -27 38t-25.5 41.5
t-18.5 44.5t-7 47q0 54 26 100.5t69 85.5zM66 -55h85l-63 -132h-58z" />
    <glyph glyph-name="a" unicode="a" horiz-adv-x="684" 
d="M51 267q0 57 21 107.5t58 88.5t87 60t108 22q65 0 118.5 -27.5t93.5 -83.5v97h67v-531h-67v91q-44 -53 -97.5 -78.5t-116.5 -25.5q-58 0 -108 22.5t-86.5 61t-57 89t-20.5 107.5zM330 49q41 0 79 15t67.5 42.5t47.5 67.5t18 89q0 46 -16 85.5t-44.5 68.5t-67 45.5
t-83.5 16.5q-46 0 -84.5 -17.5t-66.5 -47t-43.5 -68t-15.5 -81.5t16 -82t44 -69t66 -47.5t83 -17.5z" />
    <glyph glyph-name="aacute" unicode="&#xe1;" horiz-adv-x="684" 
d="M51 267q0 57 21 107.5t58 88.5t87 60t108 22q65 0 118.5 -27.5t93.5 -83.5v97h67v-531h-67v91q-44 -53 -97.5 -78.5t-116.5 -25.5q-58 0 -108 22.5t-86.5 61t-57 89t-20.5 107.5zM330 49q41 0 79 15t67.5 42.5t47.5 67.5t18 89q0 46 -16 85.5t-44.5 68.5t-67 45.5
t-83.5 16.5q-46 0 -84.5 -17.5t-66.5 -47t-43.5 -68t-15.5 -81.5t16 -82t44 -69t66 -47.5t83 -17.5zM400 759h105l-134 -129h-68z" />
    <glyph glyph-name="abreve" unicode="&#x103;" horiz-adv-x="684" 
d="M325 545q65 0 118.5 -27.5t93.5 -83.5v97h67v-531h-67v91q-44 -53 -97.5 -78.5t-116.5 -25.5q-58 0 -108 22.5t-86.5 61t-57 89t-20.5 107.5t21 107.5t58 88.5t87 60t108 22zM330 49q41 0 79 15t67.5 42.5t47.5 67.5t18 89q0 46 -16 85.5t-44.5 68.5t-67 45.5t-83.5 16.5
q-46 0 -84.5 -17.5t-66.5 -47t-43.5 -68t-15.5 -81.5t16 -82t44 -69t66 -47.5t83 -17.5zM253 745q14 -26 38 -41t56 -15t56 15t38 41h64q-6 -22 -19.5 -42t-33 -35.5t-46 -25t-59.5 -9.5t-59.5 9.5t-46 25t-33 35.5t-19.5 42h64z" />
    <glyph glyph-name="acircumflex" unicode="&#xe2;" horiz-adv-x="684" 
d="M325 545q65 0 118.5 -27.5t93.5 -83.5v97h67v-531h-67v91q-44 -53 -97.5 -78.5t-116.5 -25.5q-58 0 -108 22.5t-86.5 61t-57 89t-20.5 107.5t21 107.5t58 88.5t87 60t108 22zM121 265q0 -43 16 -82t44 -69t66 -47.5t83 -17.5q41 0 79 15t67.5 42.5t47.5 67.5t18 89
q0 46 -16 85.5t-44.5 68.5t-67 45.5t-83.5 16.5q-46 0 -84.5 -17.5t-66.5 -47t-43.5 -68t-15.5 -81.5zM169 628l135 125h88l132 -125h-89l-86 74l-89 -74h-91z" />
    <glyph glyph-name="adieresis" unicode="&#xe4;" horiz-adv-x="684" 
d="M51 267q0 57 21 107.5t58 88.5t87 60t108 22q65 0 118.5 -27.5t93.5 -83.5v97h67v-531h-67v91q-44 -53 -97.5 -78.5t-116.5 -25.5q-58 0 -108 22.5t-86.5 61t-57 89t-20.5 107.5zM121 265q0 -43 16 -82t44 -69t66 -47.5t83 -17.5q41 0 79 15t67.5 42.5t47.5 67.5t18 89
q0 46 -16 85.5t-44.5 68.5t-67 45.5t-83.5 16.5q-46 0 -84.5 -17.5t-66.5 -47t-43.5 -68t-15.5 -81.5zM384 684q0 20 15 35t35 15t34.5 -15t14.5 -35t-14.5 -34.5t-34.5 -14.5t-35 14.5t-15 34.5zM211 684q0 20 15 35t35 15t34.5 -15t14.5 -35t-14.5 -34.5t-34.5 -14.5
t-35 14.5t-15 34.5z" />
    <glyph glyph-name="agrave" unicode="&#xe0;" horiz-adv-x="684" 
d="M51 267q0 57 21 107.5t58 88.5t87 60t108 22q65 0 118.5 -27.5t93.5 -83.5v97h67v-531h-67v91q-44 -53 -97.5 -78.5t-116.5 -25.5q-58 0 -108 22.5t-86.5 61t-57 89t-20.5 107.5zM330 49q41 0 79 15t67.5 42.5t47.5 67.5t18 89q0 46 -16 85.5t-44.5 68.5t-67 45.5
t-83.5 16.5q-46 0 -84.5 -17.5t-66.5 -47t-43.5 -68t-15.5 -81.5t16 -82t44 -69t66 -47.5t83 -17.5zM190 759h105l97 -129h-68z" />
    <glyph glyph-name="amacron" unicode="&#x101;" horiz-adv-x="684" 
d="M51 267q0 57 21 107.5t58 88.5t87 60t108 22q65 0 118.5 -27.5t93.5 -83.5v97h67v-531h-67v91q-44 -53 -97.5 -78.5t-116.5 -25.5q-58 0 -108 22.5t-86.5 61t-57 89t-20.5 107.5zM330 49q41 0 79 15t67.5 42.5t47.5 67.5t18 89q0 46 -16 85.5t-44.5 68.5t-67 45.5
t-83.5 16.5q-46 0 -84.5 -17.5t-66.5 -47t-43.5 -68t-15.5 -81.5t16 -82t44 -69t66 -47.5t83 -17.5zM207 723h279v-60h-279v60z" />
    <glyph glyph-name="aogonek" unicode="&#x105;" horiz-adv-x="684" 
d="M51 267q0 57 21 107.5t58 88.5t87 60t108 22q65 0 118.5 -27.5t93.5 -83.5v97h67v-531h2q-64 -43 -64 -93q0 -52 62 -52q9 0 18.5 0.5t15.5 2.5l-5 -45q-12 -2 -21.5 -3t-20.5 -1q-48 0 -77.5 24.5t-29.5 64.5q0 26 15 52.5t42 49.5h-4v91q-44 -53 -97.5 -78.5
t-116.5 -25.5q-58 0 -108 22.5t-86.5 61t-57 89t-20.5 107.5zM121 265q0 -43 16 -82t44 -69t66 -47.5t83 -17.5q41 0 79 15t67.5 42.5t47.5 67.5t18 89q0 46 -16 85.5t-44.5 68.5t-67 45.5t-83.5 16.5q-46 0 -84.5 -17.5t-66.5 -47t-43.5 -68t-15.5 -81.5z" />
    <glyph glyph-name="aring" unicode="&#xe5;" horiz-adv-x="684" 
d="M51 267q0 57 21 107.5t58 88.5t87 60t108 22q65 0 118.5 -27.5t93.5 -83.5v97h67v-531h-67v91q-44 -53 -97.5 -78.5t-116.5 -25.5q-58 0 -108 22.5t-86.5 61t-57 89t-20.5 107.5zM330 49q41 0 79 15t67.5 42.5t47.5 67.5t18 89q0 46 -16 85.5t-44.5 68.5t-67 45.5
t-83.5 16.5q-46 0 -84.5 -17.5t-66.5 -47t-43.5 -68t-15.5 -81.5t16 -82t44 -69t66 -47.5t83 -17.5zM245 705q0 21 8 39.5t21.5 32t32.5 21.5t40 8t39.5 -8t32 -21.5t21.5 -32t8 -39.5t-8 -39.5t-21.5 -32.5t-32 -22t-39.5 -8t-39.5 8t-32.5 22t-22 32.5t-8 39.5zM347 646
q25 0 42 17.5t17 41.5q0 25 -19 42t-40 17q-26 0 -42.5 -17t-16.5 -42q0 -26 18 -42.5t41 -16.5z" />
    <glyph glyph-name="aringacute" unicode="&#x1fb;" horiz-adv-x="684" 
d="M325 545q65 0 118.5 -27.5t93.5 -83.5v97h67v-531h-67v91q-44 -53 -97.5 -78.5t-116.5 -25.5q-58 0 -108 22.5t-86.5 61t-57 89t-20.5 107.5t21 107.5t58 88.5t87 60t108 22zM121 265q0 -43 16 -82t44 -69t66 -47.5t83 -17.5q41 0 79 15t67.5 42.5t47.5 67.5t18 89
q0 46 -16 85.5t-44.5 68.5t-67 45.5t-83.5 16.5q-46 0 -84.5 -17.5t-66.5 -47t-43.5 -68t-15.5 -81.5zM245 705q0 34 19.5 60t49.5 36l81 107h105l-114 -110q28 -11 45 -36t17 -57q0 -21 -8 -39.5t-21.5 -32.5t-32 -22t-39.5 -8t-39.5 8t-32.5 22t-22 32.5t-8 39.5zM288 705
q0 -26 18 -42.5t41 -16.5q25 0 42 17.5t17 41.5q0 25 -19 42t-40 17q-26 0 -42.5 -17t-16.5 -42z" />
    <glyph glyph-name="atilde" unicode="&#xe3;" horiz-adv-x="684" 
d="M325 545q65 0 118.5 -27.5t93.5 -83.5v97h67v-531h-67v91q-44 -53 -97.5 -78.5t-116.5 -25.5q-58 0 -108 22.5t-86.5 61t-57 89t-20.5 107.5t21 107.5t58 88.5t87 60t108 22zM330 49q41 0 79 15t67.5 42.5t47.5 67.5t18 89q0 46 -16 85.5t-44.5 68.5t-67 45.5t-83.5 16.5
q-46 0 -84.5 -17.5t-66.5 -47t-43.5 -68t-15.5 -81.5t16 -82t44 -69t66 -47.5t83 -17.5zM281 741q19 0 36.5 -6t33.5 -12.5t31 -12.5t30 -6q17 0 33.5 6.5t31.5 17.5l31 -47q-23 -18 -45 -28.5t-51 -10.5q-22 0 -39.5 6t-33.5 12.5t-30 12.5t-28 6q-20 0 -37 -9t-32 -22
l-31 46q19 21 45 34t55 13z" />
    <glyph glyph-name="ae" unicode="&#xe6;" horiz-adv-x="1141" 
d="M51 268q0 60 22.5 111t60 87.5t86.5 57.5t103 21q69 0 119.5 -28.5t95.5 -82.5v97h62v-96q22 26 43.5 46.5t47 34.5t55.5 21.5t68 7.5q60 0 110.5 -21.5t87 -58.5t57.5 -87t21 -107v-12h-478q1 -42 16.5 -80.5t43 -67t65.5 -45.5t84 -17q65 0 112 31t82 94l58 -29
q-37 -78 -104.5 -118t-152.5 -40q-72 0 -123.5 27t-92.5 81v-95h-62v98q-44 -54 -93 -83t-120 -29q-56 0 -106 22t-87.5 60t-59 89.5t-21.5 110.5zM121 265q0 -46 16 -85t44.5 -67.5t66.5 -44.5t82 -16q42 0 80.5 15.5t67 43.5t45.5 67t17 87q0 51 -17 91t-46 67t-67.5 41.5
t-81.5 14.5q-42 0 -80 -15.5t-66 -44t-44.5 -68t-16.5 -86.5zM616 319h399q-10 42 -30 72.5t-46 50t-57.5 28.5t-64.5 9q-31 0 -63 -9.5t-59 -29t-48 -49.5t-31 -72z" />
    <glyph glyph-name="aeacute" unicode="&#x1fd;" horiz-adv-x="1141" 
d="M51 268q0 60 22.5 111t60 87.5t86.5 57.5t103 21q69 0 119.5 -28.5t95.5 -82.5v97h62v-96q22 26 43.5 46.5t47 34.5t55.5 21.5t68 7.5q60 0 110.5 -21.5t87 -58.5t57.5 -87t21 -107v-12h-478q1 -42 16.5 -80.5t43 -67t65.5 -45.5t84 -17q65 0 112 31t82 94l58 -29
q-37 -78 -104.5 -118t-152.5 -40q-72 0 -123.5 27t-92.5 81v-95h-62v98q-44 -54 -93 -83t-120 -29q-56 0 -106 22t-87.5 60t-59 89.5t-21.5 110.5zM121 265q0 -46 16 -85t44.5 -67.5t66.5 -44.5t82 -16q42 0 80.5 15.5t67 43.5t45.5 67t17 87q0 51 -17 91t-46 67t-67.5 41.5
t-81.5 14.5q-42 0 -80 -15.5t-66 -44t-44.5 -68t-16.5 -86.5zM616 319h399q-10 42 -30 72.5t-46 50t-57.5 28.5t-64.5 9q-31 0 -63 -9.5t-59 -29t-48 -49.5t-31 -72zM623 759h105l-134 -129h-68z" />
    <glyph glyph-name="b" unicode="b" horiz-adv-x="684" 
d="M80 736h68v-296q87 105 213 105q58 0 108 -22.5t86.5 -61t57.5 -89t21 -107.5q0 -56 -21 -106.5t-58 -89t-87.5 -61t-108.5 -22.5q-129 0 -211 112v-98h-68v736zM354 52q46 0 84.5 17.5t66.5 47t43.5 68.5t15.5 82t-16 82t-44.5 69t-66.5 47.5t-83 17.5q-41 0 -79 -14.5
t-67.5 -42.5t-47 -67.5t-17.5 -89.5q0 -46 16 -85.5t44.5 -69t67 -46t83.5 -16.5z" />
    <glyph glyph-name="c" unicode="c" horiz-adv-x="618" 
d="M51 266q0 60 21.5 111t59 88.5t89.5 58.5t113 21q77 0 139 -30.5t100 -84.5l-50 -43q-38 46 -84 69t-108 23q-45 0 -83.5 -16.5t-66.5 -45t-44 -67.5t-16 -84q0 -47 16 -86.5t44 -68t66.5 -44t84.5 -15.5q116 0 191 90l51 -40q-42 -54 -103 -85t-139 -31q-61 0 -113 21.5
t-89 59t-58 89t-21 110.5z" />
    <glyph glyph-name="cacute" unicode="&#x107;" horiz-adv-x="618" 
d="M51 266q0 60 21.5 111t59 88.5t89.5 58.5t113 21q77 0 139 -30.5t100 -84.5l-50 -43q-38 46 -84 69t-108 23q-45 0 -83.5 -16.5t-66.5 -45t-44 -67.5t-16 -84q0 -47 16 -86.5t44 -68t66.5 -44t84.5 -15.5q116 0 191 90l51 -40q-42 -54 -103 -85t-139 -31q-61 0 -113 21.5
t-89 59t-58 89t-21 110.5zM286 630l97 129h105l-134 -129h-68z" />
    <glyph glyph-name="ccaron" unicode="&#x10d;" horiz-adv-x="618" 
d="M334 545q77 0 139 -30.5t100 -84.5l-50 -43q-38 46 -84 69t-108 23q-45 0 -83.5 -16.5t-66.5 -45t-44 -67.5t-16 -84q0 -47 16 -86.5t44 -68t66.5 -44t84.5 -15.5q116 0 191 90l51 -40q-42 -54 -103 -85t-139 -31q-61 0 -113 21.5t-89 59t-58 89t-21 110.5q0 60 21.5 111
t59 88.5t89.5 58.5t113 21zM256 753l86 -74l90 74h91l-145 -125h-68l-142 125h88z" />
    <glyph glyph-name="ccedilla" unicode="&#xe7;" horiz-adv-x="618" 
d="M334 545q77 0 139 -30.5t100 -84.5l-50 -43q-38 46 -84 69t-108 23q-45 0 -83.5 -16.5t-66.5 -45t-44 -67.5t-16 -84q0 -47 16 -86.5t44 -68t66.5 -44t84.5 -15.5q116 0 191 90l51 -40q-39 -51 -94.5 -81t-126.5 -34l-5 -41q32 0 52.5 -13t20.5 -41q0 -33 -29.5 -55.5
t-82.5 -22.5q-42 0 -81 15l11 34q14 -5 28.5 -7.5t29.5 -2.5q32 0 49 8t17 24q0 9 -8 15t-22 6q-8 0 -17.5 -1.5t-16.5 -3.5l11 86q-57 4 -104.5 26.5t-82 60t-53.5 86.5t-19 106q0 60 21.5 111t59 88.5t89.5 58.5t113 21z" />
    <glyph glyph-name="ccircumflex" unicode="&#x109;" horiz-adv-x="618" 
d="M334 545q77 0 139 -30.5t100 -84.5l-50 -43q-38 46 -84 69t-108 23q-45 0 -83.5 -16.5t-66.5 -45t-44 -67.5t-16 -84q0 -47 16 -86.5t44 -68t66.5 -44t84.5 -15.5q116 0 191 90l51 -40q-42 -54 -103 -85t-139 -31q-61 0 -113 21.5t-89 59t-58 89t-21 110.5q0 60 21.5 111
t59 88.5t89.5 58.5t113 21zM309 753h88l132 -125h-89l-86 74l-89 -74h-91z" />
    <glyph glyph-name="cdotaccent" unicode="&#x10b;" horiz-adv-x="618" 
d="M51 266q0 60 21.5 111t59 88.5t89.5 58.5t113 21q77 0 139 -30.5t100 -84.5l-50 -43q-38 46 -84 69t-108 23q-45 0 -83.5 -16.5t-66.5 -45t-44 -67.5t-16 -84q0 -47 16 -86.5t44 -68t66.5 -44t84.5 -15.5q116 0 191 90l51 -40q-42 -54 -103 -85t-139 -31q-61 0 -113 21.5
t-89 59t-58 89t-21 110.5zM330 741q23 0 39.5 -17t16.5 -40t-16.5 -39.5t-39.5 -16.5t-40 16.5t-17 39.5t17 40t40 17z" />
    <glyph glyph-name="d" unicode="d" horiz-adv-x="685" 
d="M51 267q0 57 21 107.5t58 88.5t87 60t108 22q65 0 118.5 -27.5t93.5 -83.5v302h68v-736h-68v91q-44 -53 -97.5 -78.5t-116.5 -25.5q-58 0 -108 22.5t-86.5 61t-57 89t-20.5 107.5zM330 49q41 0 79 15t67.5 42.5t47 67.5t17.5 89q0 46 -16 85.5t-44.5 68.5t-66.5 45.5
t-83 16.5q-46 0 -84.5 -17.5t-66.5 -47t-43.5 -68t-15.5 -81.5t16 -82t44 -69t66 -47.5t83 -17.5z" />
    <glyph glyph-name="eth" unicode="&#xf0;" horiz-adv-x="655" 
d="M51 267q0 62 23 113t60.5 87.5t85.5 56.5t99 20q42 0 70.5 -10t52.5 -21q-23 31 -48.5 59.5t-54.5 56.5l-108 -45l-25 52l86 35q-20 17 -40.5 33.5t-41.5 31.5h96q13 -9 25 -18.5t24 -19.5l81 33l25 -52l-58 -24q39 -36 75 -79t64.5 -91.5t45.5 -101t17 -106.5
q0 -61 -20.5 -114t-58 -92.5t-88.5 -62t-113 -22.5q-57 0 -106.5 21.5t-87 59.5t-59 89t-21.5 111zM327 52q42 0 80 15.5t66.5 44t45 68t16.5 87.5t-15.5 87t-43 67.5t-64.5 44t-80 15.5q-40 0 -78 -14.5t-67.5 -41.5t-47.5 -66.5t-18 -89.5q0 -48 16.5 -88t45 -68.5
t66 -44.5t78.5 -16z" />
    <glyph glyph-name="dcaron" unicode="&#x10f;" horiz-adv-x="682" 
d="M51 267q0 57 21 107.5t58 88.5t87 60t108 22q65 0 118.5 -27.5t93.5 -83.5v302h68v-736h-68v91q-44 -53 -97.5 -78.5t-116.5 -25.5q-58 0 -108 22.5t-86.5 61t-57 89t-20.5 107.5zM121 265q0 -43 16 -82t44 -69t66 -47.5t83 -17.5q41 0 79 15t67.5 42.5t47 67.5t17.5 89
q0 46 -16 85.5t-44.5 68.5t-66.5 45.5t-83 16.5q-46 0 -84.5 -17.5t-66.5 -47t-43.5 -68t-15.5 -81.5zM643 736h75v-71q0 -24 -1.5 -44t-5.5 -38.5t-10.5 -36.5t-17.5 -38l-32 19q26 52 29 95h-37v114z" />
    <glyph glyph-name="dcroat" unicode="&#x111;" horiz-adv-x="685" 
d="M325 545q65 0 118.5 -27.5t93.5 -83.5v160h-147v56h147v86h68v-86h80v-56h-80v-594h-68v91q-44 -53 -97.5 -78.5t-116.5 -25.5q-58 0 -108 22.5t-86.5 61t-57 89t-20.5 107.5t21 107.5t58 88.5t87 60t108 22zM121 265q0 -43 16 -82t44 -69t66 -47.5t83 -17.5q41 0 79 15
t67.5 42.5t47 67.5t17.5 89q0 46 -16 85.5t-44.5 68.5t-66.5 45.5t-83 16.5q-46 0 -84.5 -17.5t-66.5 -47t-43.5 -68t-15.5 -81.5z" />
    <glyph glyph-name="e" unicode="e" horiz-adv-x="650" 
d="M51 264q0 54 19.5 105t55 90t86 62.5t112.5 23.5q59 0 109 -21t87 -58t58 -88.5t21 -112.5v-5h-478q2 -46 17.5 -84t42.5 -65.5t64.5 -42.5t82.5 -15q39 0 69 10t53.5 27.5t41 39.5t32.5 46l57 -30q-38 -74 -101.5 -116.5t-151.5 -42.5q-66 0 -118 22.5t-87 60.5
t-53.5 88.5t-18.5 105.5zM128 320h396q-21 83 -75.5 121t-123.5 38q-72 0 -123 -39t-74 -120z" />
    <glyph glyph-name="eacute" unicode="&#xe9;" horiz-adv-x="650" 
d="M51 264q0 54 19.5 105t55 90t86 62.5t112.5 23.5q59 0 109 -21t87 -58t58 -88.5t21 -112.5v-5h-478q2 -46 17.5 -84t42.5 -65.5t64.5 -42.5t82.5 -15q39 0 69 10t53.5 27.5t41 39.5t32.5 46l57 -30q-38 -74 -101.5 -116.5t-151.5 -42.5q-66 0 -118 22.5t-87 60.5
t-53.5 88.5t-18.5 105.5zM128 320h396q-21 83 -75.5 121t-123.5 38q-72 0 -123 -39t-74 -120zM371 759h105l-134 -129h-68z" />
    <glyph glyph-name="ebreve" unicode="&#x115;" horiz-adv-x="650" 
d="M324 545q59 0 109 -21t87 -58t58 -88.5t21 -112.5v-5h-478q2 -46 17.5 -84t42.5 -65.5t64.5 -42.5t82.5 -15q39 0 69 10t53.5 27.5t41 39.5t32.5 46l57 -30q-38 -74 -101.5 -116.5t-151.5 -42.5q-66 0 -118 22.5t-87 60.5t-53.5 88.5t-18.5 105.5q0 54 19.5 105t55 90
t86 62.5t112.5 23.5zM128 320h396q-21 83 -75.5 121t-123.5 38q-72 0 -123 -39t-74 -120zM226 745q14 -26 38 -41t56 -15t56 15t38 41h64q-6 -22 -19.5 -42t-33 -35.5t-46 -25t-59.5 -9.5t-59.5 9.5t-46 25t-33 35.5t-19.5 42h64z" />
    <glyph glyph-name="ecaron" unicode="&#x11b;" horiz-adv-x="650" 
d="M324 545q59 0 109 -21t87 -58t58 -88.5t21 -112.5v-5h-478q2 -46 17.5 -84t42.5 -65.5t64.5 -42.5t82.5 -15q39 0 69 10t53.5 27.5t41 39.5t32.5 46l57 -30q-38 -74 -101.5 -116.5t-151.5 -42.5q-66 0 -118 22.5t-87 60.5t-53.5 88.5t-18.5 105.5q0 54 19.5 105t55 90
t86 62.5t112.5 23.5zM128 320h396q-21 83 -75.5 121t-123.5 38q-72 0 -123 -39t-74 -120zM153 753h88l86 -74l90 74h91l-145 -125h-68z" />
    <glyph glyph-name="ecircumflex" unicode="&#xea;" horiz-adv-x="650" 
d="M324 545q59 0 109 -21t87 -58t58 -88.5t21 -112.5v-5h-478q2 -46 17.5 -84t42.5 -65.5t64.5 -42.5t82.5 -15q39 0 69 10t53.5 27.5t41 39.5t32.5 46l57 -30q-38 -74 -101.5 -116.5t-151.5 -42.5q-66 0 -118 22.5t-87 60.5t-53.5 88.5t-18.5 105.5q0 54 19.5 105t55 90
t86 62.5t112.5 23.5zM128 320h396q-21 83 -75.5 121t-123.5 38q-72 0 -123 -39t-74 -120zM140 628l135 125h88l132 -125h-89l-86 74l-89 -74h-91z" />
    <glyph glyph-name="edieresis" unicode="&#xeb;" horiz-adv-x="650" 
d="M51 264q0 54 19.5 105t55 90t86 62.5t112.5 23.5q59 0 109 -21t87 -58t58 -88.5t21 -112.5v-5h-478q2 -46 17.5 -84t42.5 -65.5t64.5 -42.5t82.5 -15q39 0 69 10t53.5 27.5t41 39.5t32.5 46l57 -30q-38 -74 -101.5 -116.5t-151.5 -42.5q-66 0 -118 22.5t-87 60.5
t-53.5 88.5t-18.5 105.5zM524 320q-21 83 -75.5 121t-123.5 38q-72 0 -123 -39t-74 -120h396zM355 684q0 20 15 35t35 15t34.5 -15t14.5 -35t-14.5 -34.5t-34.5 -14.5t-35 14.5t-15 34.5zM182 684q0 20 15 35t35 15t34.5 -15t14.5 -35t-14.5 -34.5t-34.5 -14.5t-35 14.5
t-15 34.5z" />
    <glyph glyph-name="edotaccent" unicode="&#x117;" horiz-adv-x="650" 
d="M324 545q59 0 109 -21t87 -58t58 -88.5t21 -112.5v-5h-478q2 -46 17.5 -84t42.5 -65.5t64.5 -42.5t82.5 -15q39 0 69 10t53.5 27.5t41 39.5t32.5 46l57 -30q-38 -74 -101.5 -116.5t-151.5 -42.5q-66 0 -118 22.5t-87 60.5t-53.5 88.5t-18.5 105.5q0 54 19.5 105t55 90
t86 62.5t112.5 23.5zM524 320q-21 83 -75.5 121t-123.5 38q-72 0 -123 -39t-74 -120h396zM261 684q0 23 17 40t40 17t39.5 -17t16.5 -40t-16.5 -39.5t-39.5 -16.5t-40 16.5t-17 39.5z" />
    <glyph glyph-name="egrave" unicode="&#xe8;" horiz-adv-x="650" 
d="M51 264q0 54 19.5 105t55 90t86 62.5t112.5 23.5q59 0 109 -21t87 -58t58 -88.5t21 -112.5v-5h-478q2 -46 17.5 -84t42.5 -65.5t64.5 -42.5t82.5 -15q39 0 69 10t53.5 27.5t41 39.5t32.5 46l57 -30q-38 -74 -101.5 -116.5t-151.5 -42.5q-66 0 -118 22.5t-87 60.5
t-53.5 88.5t-18.5 105.5zM128 320h396q-21 83 -75.5 121t-123.5 38q-72 0 -123 -39t-74 -120zM266 759l97 -129h-68l-134 129h105z" />
    <glyph glyph-name="emacron" unicode="&#x113;" horiz-adv-x="650" 
d="M51 264q0 54 19.5 105t55 90t86 62.5t112.5 23.5q59 0 109 -21t87 -58t58 -88.5t21 -112.5v-5h-478q2 -46 17.5 -84t42.5 -65.5t64.5 -42.5t82.5 -15q39 0 69 10t53.5 27.5t41 39.5t32.5 46l57 -30q-38 -74 -101.5 -116.5t-151.5 -42.5q-66 0 -118 22.5t-87 60.5
t-53.5 88.5t-18.5 105.5zM128 320h396q-21 83 -75.5 121t-123.5 38q-72 0 -123 -39t-74 -120zM178 663v60h279v-60h-279z" />
    <glyph glyph-name="eogonek" unicode="&#x119;" horiz-adv-x="650" 
d="M324 545q59 0 109 -21t87 -58t58 -88.5t21 -112.5v-5h-478q2 -46 17.5 -84t42.5 -65.5t64.5 -42.5t82.5 -15q39 0 69 10t53.5 27.5t41 39.5t32.5 46l57 -30q-28 -54 -69.5 -91.5t-95.5 -54.5h2q-64 -43 -64 -93q0 -52 62 -52q9 0 18.5 0.5t15.5 2.5l-5 -45
q-12 -2 -21.5 -3t-20.5 -1q-48 0 -77.5 24.5t-29.5 64.5q0 23 11.5 46t31.5 43h-11q-66 0 -118 22.5t-87 60.5t-53.5 88.5t-18.5 105.5q0 54 19.5 105t55 90t86 62.5t112.5 23.5zM128 320h396q-21 83 -75.5 121t-123.5 38q-72 0 -123 -39t-74 -120z" />
    <glyph glyph-name="f" unicode="f" horiz-adv-x="314" 
d="M38 531h70v83q0 32 4.5 57.5t16.5 43t33 27t54 9.5q22 0 41.5 -5t36.5 -10v-67q-12 5 -28 10.5t-36 5.5t-31 -5.5t-16 -16t-6 -25.5t-1 -35v-72h112v-60h-112v-471h-68v471h-70v60z" />
    <glyph glyph-name="florin" unicode="&#x192;" horiz-adv-x="540" 
d="M16 -184l9 60q11 -8 22.5 -14.5t31.5 -6.5q41 0 64 43t37 137l50 336h-70l8 60h71l27 186q8 60 34 97t74 37q24 0 45 -9.5t41 -23.5l-9 -65q-17 17 -34 26.5t-33 9.5q-15 0 -24.5 -8.5t-16.5 -23.5t-11 -36t-8 -47l-21 -143h113l-8 -60h-114l-52 -347
q-17 -112 -53.5 -171.5t-102.5 -59.5q-23 0 -39.5 7t-30.5 16z" />
    <glyph glyph-name="g" unicode="g" horiz-adv-x="673" 
d="M49 269q0 59 22.5 109.5t60.5 87.5t87 58t102 21q71 0 121 -28t92 -78v92h69v-458q0 -131 -66.5 -205.5t-206.5 -74.5q-57 0 -100.5 11.5t-76 32.5t-56 51.5t-41.5 69.5h74q30 -53 77.5 -78t118.5 -25q100 0 154 50t54 150v46q-40 -51 -95 -76t-118 -25q-55 0 -104.5 20
t-86.5 55.5t-59 85t-22 108.5zM119 265q0 -40 14 -76t41 -63.5t67.5 -43.5t92.5 -16q44 0 81 14.5t64 41t42.5 64.5t15.5 84q0 48 -16.5 86.5t-44.5 66t-65.5 42t-78.5 14.5q-45 0 -83.5 -16t-67.5 -44.5t-45.5 -68t-16.5 -85.5z" />
    <glyph glyph-name="uni01F5" unicode="&#x1f5;" horiz-adv-x="673" 
d="M49 269q0 59 22.5 109.5t60.5 87.5t87 58t102 21q71 0 121 -28t92 -78v92h69v-458q0 -131 -66.5 -205.5t-206.5 -74.5q-57 0 -100.5 11.5t-76 32.5t-56 51.5t-41.5 69.5h74q30 -53 77.5 -78t118.5 -25q100 0 154 50t54 150v46q-40 -51 -95 -76t-118 -25q-55 0 -104.5 20
t-86.5 55.5t-59 85t-22 108.5zM334 66q44 0 81 14.5t64 41t42.5 64.5t15.5 84q0 48 -16.5 86.5t-44.5 66t-65.5 42t-78.5 14.5q-45 0 -83.5 -16t-67.5 -44.5t-45.5 -68t-16.5 -85.5q0 -40 14 -76t41 -63.5t67.5 -43.5t92.5 -16zM380 759h105l-134 -129h-68z" />
    <glyph glyph-name="gbreve" unicode="&#x11f;" horiz-adv-x="673" 
d="M321 545q71 0 121 -28t92 -78v92h69v-458q0 -131 -66.5 -205.5t-206.5 -74.5q-57 0 -100.5 11.5t-76 32.5t-56 51.5t-41.5 69.5h74q30 -53 77.5 -78t118.5 -25q100 0 154 50t54 150v46q-40 -51 -95 -76t-118 -25q-55 0 -104.5 20t-86.5 55.5t-59 85t-22 108.5t22.5 109.5
t60.5 87.5t87 58t102 21zM119 265q0 -40 14 -76t41 -63.5t67.5 -43.5t92.5 -16q44 0 81 14.5t64 41t42.5 64.5t15.5 84q0 48 -16.5 86.5t-44.5 66t-65.5 42t-78.5 14.5q-45 0 -83.5 -16t-67.5 -44.5t-45.5 -68t-16.5 -85.5zM194 745h64q14 -26 38 -41t56 -15t56 15t38 41h64
q-6 -22 -19.5 -42t-33 -35.5t-46 -25t-59.5 -9.5t-59.5 9.5t-46 25t-33 35.5t-19.5 42z" />
    <glyph glyph-name="gcircumflex" unicode="&#x11d;" horiz-adv-x="673" 
d="M321 545q71 0 121 -28t92 -78v92h69v-458q0 -131 -66.5 -205.5t-206.5 -74.5q-57 0 -100.5 11.5t-76 32.5t-56 51.5t-41.5 69.5h74q30 -53 77.5 -78t118.5 -25q100 0 154 50t54 150v46q-40 -51 -95 -76t-118 -25q-55 0 -104.5 20t-86.5 55.5t-59 85t-22 108.5t22.5 109.5
t60.5 87.5t87 58t102 21zM334 66q44 0 81 14.5t64 41t42.5 64.5t15.5 84q0 48 -16.5 86.5t-44.5 66t-65.5 42t-78.5 14.5q-45 0 -83.5 -16t-67.5 -44.5t-45.5 -68t-16.5 -85.5q0 -40 14 -76t41 -63.5t67.5 -43.5t92.5 -16zM172 628l135 125h88l132 -125h-89l-86 74l-89 -74
h-91z" />
    <glyph glyph-name="uni0123" unicode="&#x123;" horiz-adv-x="673" 
d="M49 269q0 59 22.5 109.5t60.5 87.5t87 58t102 21q71 0 121 -28t92 -78v92h69v-458q0 -131 -66.5 -205.5t-206.5 -74.5q-57 0 -100.5 11.5t-76 32.5t-56 51.5t-41.5 69.5h74q30 -53 77.5 -78t118.5 -25q100 0 154 50t54 150v46q-40 -51 -95 -76t-118 -25q-55 0 -104.5 20
t-86.5 55.5t-59 85t-22 108.5zM334 66q44 0 81 14.5t64 41t42.5 64.5t15.5 84q0 48 -16.5 86.5t-44.5 66t-65.5 42t-78.5 14.5q-45 0 -83.5 -16t-67.5 -44.5t-45.5 -68t-16.5 -85.5q0 -40 14 -76t41 -63.5t67.5 -43.5t92.5 -16zM274 668l155 124l37 -24l-118 -148z" />
    <glyph glyph-name="gdotaccent" unicode="&#x121;" horiz-adv-x="673" 
d="M49 269q0 59 22.5 109.5t60.5 87.5t87 58t102 21q71 0 121 -28t92 -78v92h69v-458q0 -131 -66.5 -205.5t-206.5 -74.5q-57 0 -100.5 11.5t-76 32.5t-56 51.5t-41.5 69.5h74q30 -53 77.5 -78t118.5 -25q100 0 154 50t54 150v46q-40 -51 -95 -76t-118 -25q-55 0 -104.5 20
t-86.5 55.5t-59 85t-22 108.5zM334 66q44 0 81 14.5t64 41t42.5 64.5t15.5 84q0 48 -16.5 86.5t-44.5 66t-65.5 42t-78.5 14.5q-45 0 -83.5 -16t-67.5 -44.5t-45.5 -68t-16.5 -85.5q0 -40 14 -76t41 -63.5t67.5 -43.5t92.5 -16zM327 741q23 0 39.5 -17t16.5 -40t-16.5 -39.5
t-39.5 -16.5t-40 16.5t-17 39.5t17 40t40 17z" />
    <glyph glyph-name="h" unicode="h" horiz-adv-x="613" 
d="M80 0v736h68v-300q83 109 199 109q43 0 79 -15t62 -45t40.5 -75t14.5 -105v-305h-68v289q0 94 -32 144t-109 50q-41 0 -75.5 -17t-59 -47t-38 -72t-13.5 -93v-254h-68z" />
    <glyph glyph-name="hbar" unicode="&#x127;" horiz-adv-x="610" 
d="M80 662v74h68v-74h179v-57h-179v-169q83 109 199 109q43 0 79 -15t62 -45t40.5 -75t14.5 -105v-305h-68v289q0 94 -32 144t-109 50q-41 0 -75.5 -17t-59 -47t-38 -72t-13.5 -93v-254h-68v605h-78v57h78z" />
    <glyph glyph-name="hcircumflex" unicode="&#x125;" horiz-adv-x="613" 
d="M80 0v736h68v-300q83 109 199 109q43 0 79 -15t62 -45t40.5 -75t14.5 -105v-305h-68v289q0 94 -32 144t-109 50q-41 0 -75.5 -17t-59 -47t-38 -72t-13.5 -93v-254h-68zM80 908h88l132 -125h-89l-86 74l-89 -74h-91z" />
    <glyph glyph-name="i" unicode="i" horiz-adv-x="221" 
d="M77 0v531h68v-531h-68zM54 694q0 24 16.5 40t39.5 16t40 -16.5t17 -39.5t-17 -40t-40 -17t-39.5 17t-16.5 40z" />
    <glyph glyph-name="dotlessi" unicode="&#x131;" horiz-adv-x="176" 
d="M122 531v-531h-68v531h68z" />
    <glyph glyph-name="iacute" unicode="&#xed;" horiz-adv-x="176" 
d="M141 759h105l-134 -129h-68zM122 531v-531h-68v531h68z" />
    <glyph glyph-name="ibreve" unicode="&#x12d;" horiz-adv-x="176" 
d="M54 0v531h68v-531h-68zM14 745q6 -26 24 -41t50 -15t50 15t24 41h64q-3 -22 -12.5 -42t-26.5 -35.5t-41.5 -25t-57.5 -9.5t-57.5 9.5t-41.5 25t-26.5 35.5t-12.5 42h64z" />
    <glyph glyph-name="icircumflex" unicode="&#xee;" horiz-adv-x="176" 
d="M54 0v531h68v-531h-68zM45 753h88l132 -125h-89l-86 74l-89 -74h-91z" />
    <glyph glyph-name="idieresis" unicode="&#xef;" horiz-adv-x="176" 
d="M54 531h68v-531h-68v531zM164 734q20 0 34.5 -15t14.5 -35t-14.5 -34.5t-34.5 -14.5t-35 14.5t-15 34.5t15 35t35 15zM-39 684q0 20 15 35t35 15t34.5 -15t14.5 -35t-14.5 -34.5t-34.5 -14.5t-35 14.5t-15 34.5z" />
    <glyph glyph-name="igrave" unicode="&#xec;" horiz-adv-x="176" 
d="M-69 759h105l97 -129h-68zM122 531v-531h-68v531h68z" />
    <glyph glyph-name="ij" unicode="&#x133;" horiz-adv-x="435" 
d="M240 -143q24 0 37.5 15.5t13.5 47.5v611h68v-611q0 -129 -91 -129q-23 0 -42 6t-35 14v62q9 -7 21 -11.5t28 -4.5zM77 0v531h68v-531h-68zM54 694q0 24 16.5 40t39.5 16t40 -16.5t17 -39.5t-17 -40t-40 -17t-39.5 17t-16.5 40zM268 694q0 23 16.5 39.5t39.5 16.5
t40 -16.5t17 -39.5t-17 -40t-40 -17t-39.5 17t-16.5 40z" />
    <glyph glyph-name="imacron" unicode="&#x12b;" horiz-adv-x="176" 
d="M-52 723h279v-60h-279v60zM122 531v-531h-68v531h68z" />
    <glyph glyph-name="iogonek" unicode="&#x12f;" horiz-adv-x="221" 
d="M79 0h-2v531h68v-531h-1q-64 -43 -64 -93q0 -52 62 -52q9 0 18.5 0.5t15.5 2.5l-5 -45q-12 -2 -21.5 -3t-20.5 -1q-48 0 -77.5 24.5t-29.5 64.5q0 26 15 52.5t42 49.5zM54 694q0 24 16.5 40t39.5 16t40 -16.5t17 -39.5t-17 -40t-40 -17t-39.5 17t-16.5 40z" />
    <glyph glyph-name="itilde" unicode="&#x129;" horiz-adv-x="176" 
d="M54 0v531h68v-531h-68zM-54 694q17 21 39 34t48 13q17 0 32 -6t29 -12.5t27 -12.5t26 -6q14 0 28.5 6.5t28.5 17.5l27 -47q-20 -18 -39.5 -28.5t-44.5 -10.5q-19 0 -34.5 6t-29 12.5t-26 12.5t-24.5 6q-17 0 -31.5 -9t-28.5 -22z" />
    <glyph glyph-name="j" unicode="j" horiz-adv-x="244" 
d="M0 -189v62q9 -7 21 -11.5t28 -4.5q24 0 37.5 15.5t13.5 47.5v611h68v-611q0 -129 -91 -129q-23 0 -42 6t-35 14zM77 694q0 23 16.5 39.5t39.5 16.5t40 -16.5t17 -39.5t-17 -40t-40 -17t-39.5 17t-16.5 40z" />
    <glyph glyph-name="uni0237" unicode="&#x237;" horiz-adv-x="244" 
d="M49 -143q24 0 37.5 15.5t13.5 47.5v611h68v-611q0 -129 -91 -129q-23 0 -42 5.5t-35 11.5v62q9 -5 21 -9t28 -4z" />
    <glyph glyph-name="jcircumflex" unicode="&#x135;" horiz-adv-x="244" 
d="M49 -143q24 0 37.5 15.5t13.5 47.5v611h68v-611q0 -129 -91 -129q-23 0 -42 5.5t-35 11.5v62q9 -5 21 -9t28 -4zM90 753h88l132 -125h-89l-86 74l-89 -74h-91z" />
    <glyph glyph-name="k" unicode="k" horiz-adv-x="505" 
d="M80 0v736h68v-419l245 214h101l-291 -253l308 -278h-97l-266 239v-239h-68z" />
    <glyph glyph-name="uni0137" unicode="&#x137;" horiz-adv-x="505" 
d="M80 736h68v-419l245 214h101l-291 -253l308 -278h-97l-266 239v-239h-68v736zM183 -187l36 132h85l-63 -132h-58z" />
    <glyph glyph-name="kgreenlandic" unicode="&#x138;" horiz-adv-x="502" 
d="M77 0v531h68v-217l248 217h98l-291 -253l308 -278h-94l-269 241v-241h-68z" />
    <glyph glyph-name="l" unicode="l" horiz-adv-x="200" 
d="M134 736v-736h-68v736h68z" />
    <glyph glyph-name="lacute" unicode="&#x13a;" horiz-adv-x="200" 
d="M153 909h105l-134 -129h-68zM134 736v-736h-68v736h68z" />
    <glyph glyph-name="lcaron" unicode="&#x13e;" horiz-adv-x="209" 
d="M66 736h68v-736h-68v736zM170 736h75v-71q0 -24 -1.5 -44t-5.5 -38.5t-10.5 -36.5t-17.5 -38l-32 19q26 52 29 95h-37v114z" />
    <glyph glyph-name="uni013C" unicode="&#x13c;" horiz-adv-x="200" 
d="M134 736v-736h-68v736h68zM59 -55h85l-63 -132h-58z" />
    <glyph glyph-name="ldot" unicode="&#x140;" horiz-adv-x="298" 
d="M134 736v-736h-68v736h68zM254 435q24 0 42 -18t18 -44t-17.5 -43t-42.5 -17q-26 0 -43 17.5t-17 42.5t17.5 43.5t42.5 18.5z" />
    <glyph glyph-name="lslash" unicode="&#x142;" horiz-adv-x="308" 
d="M116 430v306h68v-262l98 63v-68l-98 -63v-406h-68v362l-90 -58v68z" />
    <glyph glyph-name="m" unicode="m" horiz-adv-x="944" 
d="M80 531h68v-91q35 51 80 78t102 27q61 0 103.5 -31.5t64.5 -96.5q35 64 85.5 96t109.5 32q83 0 132 -58t49 -172v-315h-68v329q0 69 -30.5 109.5t-95.5 40.5q-38 0 -69.5 -16t-54 -44.5t-34.5 -68.5t-12 -89v-261h-68v295q0 88 -27 136t-98 48q-39 0 -70.5 -16t-53.5 -46
t-33.5 -72t-11.5 -94v-251h-68v531z" />
    <glyph glyph-name="n" unicode="n" horiz-adv-x="614" 
d="M80 0v531h68v-95q83 109 199 109q44 0 80 -15t62 -46t40.5 -77t14.5 -109v-298h-68v289q0 94 -32.5 144t-109.5 50q-36 0 -69.5 -15t-59.5 -43.5t-41.5 -71t-15.5 -98.5v-255h-68z" />
    <glyph glyph-name="nacute" unicode="&#x144;" horiz-adv-x="614" 
d="M80 0v531h68v-95q83 109 199 109q44 0 80 -15t62 -46t40.5 -77t14.5 -109v-298h-68v289q0 94 -32.5 144t-109.5 50q-36 0 -69.5 -15t-59.5 -43.5t-41.5 -71t-15.5 -98.5v-255h-68zM380 759h105l-134 -129h-68z" />
    <glyph glyph-name="napostrophe" unicode="&#x149;" horiz-adv-x="617" 
d="M151 531v-95q83 109 199 109q44 0 80 -15t62 -46t40.5 -77t14.5 -109v-298h-68v289q0 94 -32.5 144t-109.5 50q-36 0 -69.5 -15t-59.5 -43.5t-41.5 -71t-15.5 -98.5v-255h-68v531h68zM-43 736h88v-94q0 -28 -2.5 -51t-7.5 -43t-12.5 -39.5t-18.5 -40.5l-38 22q6 11 11 22
t9.5 23.5t8 28.5t5.5 38h-43v134z" />
    <glyph glyph-name="ncaron" unicode="&#x148;" horiz-adv-x="614" 
d="M80 0v531h68v-95q83 109 199 109q44 0 80 -15t62 -46t40.5 -77t14.5 -109v-298h-68v289q0 94 -32.5 144t-109.5 50q-36 0 -69.5 -15t-59.5 -43.5t-41.5 -71t-15.5 -98.5v-255h-68zM238 753l86 -74l90 74h91l-145 -125h-68l-142 125h88z" />
    <glyph glyph-name="uni0146" unicode="&#x146;" horiz-adv-x="614" 
d="M80 531h68v-95q83 109 199 109q44 0 80 -15t62 -46t40.5 -77t14.5 -109v-298h-68v289q0 94 -32.5 144t-109.5 50q-36 0 -69.5 -15t-59.5 -43.5t-41.5 -71t-15.5 -98.5v-255h-68v531zM223 -187l36 132h85l-63 -132h-58z" />
    <glyph glyph-name="eng" unicode="&#x14b;" horiz-adv-x="610" 
d="M76 531h68v-95q83 109 199 109q44 0 80 -15t62 -46t40.5 -77t14.5 -109v-378q0 -128 -92 -128q-34 0 -76 17v61q26 -14 49 -14q17 0 27.5 6.5t15.5 17.5t6.5 26.5t1.5 33.5v349q0 94 -32.5 144t-109.5 50q-36 0 -69.5 -15t-59.5 -43.5t-41.5 -71t-15.5 -98.5v-255h-68
v531z" />
    <glyph glyph-name="ntilde" unicode="&#xf1;" horiz-adv-x="614" 
d="M80 531h68v-95q83 109 199 109q44 0 80 -15t62 -46t40.5 -77t14.5 -109v-298h-68v289q0 94 -32.5 144t-109.5 50q-36 0 -69.5 -15t-59.5 -43.5t-41.5 -71t-15.5 -98.5v-255h-68v531zM141 694q19 21 45 34t55 13q19 0 36.5 -6t33.5 -12.5t31 -12.5t30 -6q17 0 33.5 6.5
t31.5 17.5l31 -47q-23 -18 -45 -28.5t-51 -10.5q-22 0 -39.5 6t-33.5 12.5t-30 12.5t-28 6q-20 0 -37 -9t-32 -22z" />
    <glyph glyph-name="o" unicode="o" horiz-adv-x="655" 
d="M51 264q0 57 21 108t58 89.5t87.5 61t110.5 22.5t110.5 -22.5t87.5 -61t58 -89.5t21 -108t-21 -107.5t-57.5 -88.5t-87.5 -60t-111 -22t-111 22t-87.5 60t-57.5 88.5t-21 107.5zM121 263q0 -43 15.5 -81.5t43 -67.5t65.5 -45.5t83 -16.5t82.5 16.5t65.5 45.5t43.5 67.5
t15.5 81.5q0 44 -16.5 83.5t-44.5 69t-66 46.5t-80 17q-43 0 -80.5 -17t-65.5 -46.5t-44.5 -69t-16.5 -83.5z" />
    <glyph glyph-name="oacute" unicode="&#xf3;" horiz-adv-x="655" 
d="M51 264q0 57 21 108t58 89.5t87.5 61t110.5 22.5t110.5 -22.5t87.5 -61t58 -89.5t21 -108t-21 -107.5t-57.5 -88.5t-87.5 -60t-111 -22t-111 22t-87.5 60t-57.5 88.5t-21 107.5zM328 52q45 0 82.5 16.5t65.5 45.5t43.5 67.5t15.5 81.5q0 44 -16.5 83.5t-44.5 69t-66 46.5
t-80 17q-43 0 -80.5 -17t-65.5 -46.5t-44.5 -69t-16.5 -83.5q0 -43 15.5 -81.5t43 -67.5t65.5 -45.5t83 -16.5zM284 630l97 129h105l-134 -129h-68z" />
    <glyph glyph-name="obreve" unicode="&#x14f;" horiz-adv-x="655" 
d="M51 264q0 57 21 108t58 89.5t87.5 61t110.5 22.5t110.5 -22.5t87.5 -61t58 -89.5t21 -108t-21 -107.5t-57.5 -88.5t-87.5 -60t-111 -22t-111 22t-87.5 60t-57.5 88.5t-21 107.5zM328 52q45 0 82.5 16.5t65.5 45.5t43.5 67.5t15.5 81.5q0 44 -16.5 83.5t-44.5 69t-66 46.5
t-80 17q-43 0 -80.5 -17t-65.5 -46.5t-44.5 -69t-16.5 -83.5q0 -43 15.5 -81.5t43 -67.5t65.5 -45.5t83 -16.5zM229 745q14 -26 38 -41t56 -15t56 15t38 41h64q-6 -22 -19.5 -42t-33 -35.5t-46 -25t-59.5 -9.5t-59.5 9.5t-46 25t-33 35.5t-19.5 42h64z" />
    <glyph glyph-name="ocircumflex" unicode="&#xf4;" horiz-adv-x="655" 
d="M328 545q60 0 110.5 -22.5t87.5 -61t58 -89.5t21 -108t-21 -107.5t-57.5 -88.5t-87.5 -60t-111 -22t-111 22t-87.5 60t-57.5 88.5t-21 107.5t21 108t58 89.5t87.5 61t110.5 22.5zM121 263q0 -43 15.5 -81.5t43 -67.5t65.5 -45.5t83 -16.5t82.5 16.5t65.5 45.5t43.5 67.5
t15.5 81.5q0 44 -16.5 83.5t-44.5 69t-66 46.5t-80 17q-43 0 -80.5 -17t-65.5 -46.5t-44.5 -69t-16.5 -83.5zM150 628l135 125h88l132 -125h-89l-86 74l-89 -74h-91z" />
    <glyph glyph-name="odieresis" unicode="&#xf6;" horiz-adv-x="655" 
d="M51 264q0 57 21 108t58 89.5t87.5 61t110.5 22.5t110.5 -22.5t87.5 -61t58 -89.5t21 -108t-21 -107.5t-57.5 -88.5t-87.5 -60t-111 -22t-111 22t-87.5 60t-57.5 88.5t-21 107.5zM121 263q0 -43 15.5 -81.5t43 -67.5t65.5 -45.5t83 -16.5t82.5 16.5t65.5 45.5t43.5 67.5
t15.5 81.5q0 44 -16.5 83.5t-44.5 69t-66 46.5t-80 17q-43 0 -80.5 -17t-65.5 -46.5t-44.5 -69t-16.5 -83.5zM415 734q20 0 34.5 -15t14.5 -35t-14.5 -34.5t-34.5 -14.5t-35 14.5t-15 34.5t15 35t35 15zM192 684q0 20 15 35t35 15t34.5 -15t14.5 -35t-14.5 -34.5
t-34.5 -14.5t-35 14.5t-15 34.5z" />
    <glyph glyph-name="ograve" unicode="&#xf2;" horiz-adv-x="655" 
d="M51 264q0 57 21 108t58 89.5t87.5 61t110.5 22.5t110.5 -22.5t87.5 -61t58 -89.5t21 -108t-21 -107.5t-57.5 -88.5t-87.5 -60t-111 -22t-111 22t-87.5 60t-57.5 88.5t-21 107.5zM328 52q45 0 82.5 16.5t65.5 45.5t43.5 67.5t15.5 81.5q0 44 -16.5 83.5t-44.5 69t-66 46.5
t-80 17q-43 0 -80.5 -17t-65.5 -46.5t-44.5 -69t-16.5 -83.5q0 -43 15.5 -81.5t43 -67.5t65.5 -45.5t83 -16.5zM171 759h105l97 -129h-68z" />
    <glyph glyph-name="ohungarumlaut" unicode="&#x151;" horiz-adv-x="655" 
d="M51 264q0 57 21 108t58 89.5t87.5 61t110.5 22.5t110.5 -22.5t87.5 -61t58 -89.5t21 -108t-21 -107.5t-57.5 -88.5t-87.5 -60t-111 -22t-111 22t-87.5 60t-57.5 88.5t-21 107.5zM328 52q45 0 82.5 16.5t65.5 45.5t43.5 67.5t15.5 81.5q0 44 -16.5 83.5t-44.5 69t-66 46.5
t-80 17q-43 0 -80.5 -17t-65.5 -46.5t-44.5 -69t-16.5 -83.5q0 -43 15.5 -81.5t43 -67.5t65.5 -45.5t83 -16.5zM360 630l107 151h105l-144 -151h-68zM206 630l107 151h105l-145 -151h-67z" />
    <glyph glyph-name="omacron" unicode="&#x14d;" horiz-adv-x="655" 
d="M51 264q0 57 21 108t58 89.5t87.5 61t110.5 22.5t110.5 -22.5t87.5 -61t58 -89.5t21 -108t-21 -107.5t-57.5 -88.5t-87.5 -60t-111 -22t-111 22t-87.5 60t-57.5 88.5t-21 107.5zM328 52q45 0 82.5 16.5t65.5 45.5t43.5 67.5t15.5 81.5q0 44 -16.5 83.5t-44.5 69t-66 46.5
t-80 17q-43 0 -80.5 -17t-65.5 -46.5t-44.5 -69t-16.5 -83.5q0 -43 15.5 -81.5t43 -67.5t65.5 -45.5t83 -16.5zM188 663v60h279v-60h-279z" />
    <glyph glyph-name="oslash" unicode="&#xf8;" horiz-adv-x="653" 
d="M51 264q0 57 21 108t58 89.5t87.5 61t110.5 22.5q50 0 93 -15.5t78 -43.5l56 67l44 -36l-60 -70q32 -38 49 -84.5t17 -98.5q0 -57 -21 -107.5t-57.5 -88.5t-87.5 -60t-111 -22q-42 0 -78.5 10.5t-68.5 30.5l-57 -67l-43 35l56 66q-41 38 -63.5 90.5t-22.5 112.5zM181 113
l273 320q-26 22 -58.5 34t-67.5 12q-43 0 -80.5 -17t-65.5 -46.5t-44.5 -69t-16.5 -83.5q0 -45 15.5 -83t44.5 -67zM328 52q45 0 82.5 16.5t65.5 45.5t43.5 67.5t15.5 81.5q0 36 -11 69t-31 60l-267 -314q22 -12 47.5 -19t54.5 -7z" />
    <glyph glyph-name="oslashacute" unicode="&#x1ff;" horiz-adv-x="653" 
d="M51 264q0 57 21 108t58 89.5t87.5 61t110.5 22.5q50 0 93 -15.5t78 -43.5l56 67l44 -36l-60 -70q32 -38 49 -84.5t17 -98.5q0 -57 -21 -107.5t-57.5 -88.5t-87.5 -60t-111 -22q-42 0 -78.5 10.5t-68.5 30.5l-57 -67l-43 35l56 66q-41 38 -63.5 90.5t-22.5 112.5zM181 113
l273 320q-26 22 -58.5 34t-67.5 12q-43 0 -80.5 -17t-65.5 -46.5t-44.5 -69t-16.5 -83.5q0 -45 15.5 -83t44.5 -67zM226 78q22 -12 47.5 -19t54.5 -7q45 0 82.5 16.5t65.5 45.5t43.5 67.5t15.5 81.5q0 36 -11 69t-31 60zM380 759h105l-134 -129h-68z" />
    <glyph glyph-name="otilde" unicode="&#xf5;" horiz-adv-x="655" 
d="M51 264q0 57 21 108t58 89.5t87.5 61t110.5 22.5t110.5 -22.5t87.5 -61t58 -89.5t21 -108t-21 -107.5t-57.5 -88.5t-87.5 -60t-111 -22t-111 22t-87.5 60t-57.5 88.5t-21 107.5zM328 52q45 0 82.5 16.5t65.5 45.5t43.5 67.5t15.5 81.5q0 44 -16.5 83.5t-44.5 69t-66 46.5
t-80 17q-43 0 -80.5 -17t-65.5 -46.5t-44.5 -69t-16.5 -83.5q0 -43 15.5 -81.5t43 -67.5t65.5 -45.5t83 -16.5zM162 694q19 21 45 34t55 13q19 0 36.5 -6t33.5 -12.5t31 -12.5t30 -6q17 0 33.5 6.5t31.5 17.5l31 -47q-23 -18 -45 -28.5t-51 -10.5q-22 0 -39.5 6t-33.5 12.5
t-30 12.5t-28 6q-20 0 -37 -9t-32 -22z" />
    <glyph glyph-name="oe" unicode="&#x153;" horiz-adv-x="1130" 
d="M328 545q79 0 136.5 -36t102.5 -105q43 68 99 104.5t140 36.5q60 0 110 -22.5t86.5 -59.5t56.5 -85.5t20 -101.5v-8.5t-1 -8.5h-476q3 -53 21 -92t46 -65t64 -38.5t76 -12.5q64 0 115 31t80 94l58 -30q-45 -82 -105.5 -121.5t-149.5 -39.5q-51 0 -88 12t-65 31.5t-49 44
t-38 48.5q-45 -67 -105 -101.5t-134 -34.5q-58 0 -108.5 22t-88 60.5t-59 90t-21.5 110.5q0 62 23.5 113t62 87.5t88.5 56.5t103 20zM330 51q41 0 77.5 15.5t65 43t45 66.5t16.5 87q0 45 -16 84t-43.5 68.5t-66 46.5t-83.5 17q-43 0 -80 -17t-64.5 -46t-43.5 -68t-16 -83
q0 -46 17 -85.5t45.5 -68t66.5 -44.5t80 -16zM608 319h396q-21 81 -74.5 120.5t-122.5 39.5q-33 0 -64 -9t-57 -28.5t-46 -50t-32 -72.5z" />
    <glyph glyph-name="p" unicode="p" horiz-adv-x="684" 
d="M80 -194v725h68v-97q40 56 93.5 83.5t117.5 27.5q58 0 108.5 -22t87.5 -60t58 -88.5t21 -107.5t-20.5 -107.5t-57.5 -89t-86.5 -61t-108.5 -22.5q-127 0 -213 104v-285h-68zM354 49q44 0 82.5 17.5t67 47t44.5 69t16 82.5t-15.5 81.5t-43.5 68t-66.5 47t-84.5 17.5
q-45 0 -83.5 -16.5t-67 -45.5t-44.5 -68.5t-16 -85.5q0 -49 17.5 -89t47 -67.5t67.5 -42.5t79 -15z" />
    <glyph glyph-name="thorn" unicode="&#xfe;" horiz-adv-x="682" 
d="M77 -194v930h69v-302q80 111 210 111q58 0 108.5 -22t87.5 -60t58 -88.5t21 -107.5t-20.5 -108t-57.5 -89.5t-86.5 -61t-108.5 -22.5q-125 0 -212 105v-285h-69zM351 49q44 0 82.5 17.5t67 47t44.5 69t16 82.5t-15.5 81.5t-43.5 68t-66.5 47t-84.5 17.5
q-45 0 -83.5 -16.5t-67 -45.5t-44.5 -68.5t-16 -85.5q0 -49 17.5 -89t47 -67.5t67.5 -42.5t79 -15z" />
    <glyph glyph-name="q" unicode="q" horiz-adv-x="685" 
d="M325 545q65 0 118.5 -27.5t93.5 -83.5v97h68v-725h-68v285q-44 -53 -97.5 -78.5t-116.5 -25.5q-58 0 -108 22.5t-86.5 61t-57 89t-20.5 107.5t21 107.5t58 88.5t87 60t108 22zM121 265q0 -43 16 -82t44 -69t66 -47.5t83 -17.5q41 0 79 15t67.5 42.5t47 67.5t17.5 89
q0 46 -16 85.5t-44.5 68.5t-66.5 45.5t-83 16.5q-46 0 -84.5 -17.5t-66.5 -47t-43.5 -68t-15.5 -81.5z" />
    <glyph glyph-name="r" unicode="r" horiz-adv-x="328" 
d="M80 0v531h68v-77q30 44 63 67.5t74 23.5q21 0 35.5 -6t25.5 -17l-36 -53q-6 3 -15.5 6.5t-20.5 3.5q-27 0 -50 -15t-40 -43t-26.5 -66.5t-9.5 -86.5v-268h-68z" />
    <glyph glyph-name="racute" unicode="&#x155;" horiz-adv-x="328" 
d="M80 0v531h68v-77q30 44 63 67.5t74 23.5q21 0 35.5 -6t25.5 -17l-36 -53q-6 3 -15.5 6.5t-20.5 3.5q-27 0 -50 -15t-40 -43t-26.5 -66.5t-9.5 -86.5v-268h-68zM249 759h105l-134 -129h-68z" />
    <glyph glyph-name="rcaron" unicode="&#x159;" horiz-adv-x="328" 
d="M148 531v-77q30 44 63 67.5t74 23.5q21 0 35.5 -6t25.5 -17l-36 -53q-6 3 -15.5 6.5t-20.5 3.5q-27 0 -50 -15t-40 -43t-26.5 -66.5t-9.5 -86.5v-268h-68v531h68zM19 753h88l86 -74l90 74h91l-145 -125h-68z" />
    <glyph glyph-name="uni0157" unicode="&#x157;" horiz-adv-x="328" 
d="M148 531v-77q30 44 63 67.5t74 23.5q21 0 35.5 -6t25.5 -17l-36 -53q-6 3 -15.5 6.5t-20.5 3.5q-27 0 -50 -15t-40 -43t-26.5 -66.5t-9.5 -86.5v-268h-68v531h68zM64 -55h85l-63 -132h-58z" />
    <glyph glyph-name="s" unicode="s" horiz-adv-x="388" 
d="M34 62l43 49q26 -29 53.5 -44t57.5 -15q20 0 37.5 6.5t31 18.5t21.5 28t8 35q0 28 -14 46.5t-43 34.5q-36 20 -67.5 38t-54.5 38.5t-36 46.5t-13 60q0 32 11.5 57.5t31 44.5t46.5 29t57 10q44 0 78.5 -19.5t68.5 -52.5l-44 -45q-24 23 -49.5 37t-57.5 14
q-33 0 -56.5 -20.5t-23.5 -50.5q0 -29 16.5 -48.5t48.5 -36.5q40 -22 71 -40.5t52 -38.5t32 -44t11 -57q0 -31 -11.5 -59.5t-32.5 -50t-50.5 -34.5t-65.5 -13q-45 0 -86.5 19.5t-70.5 56.5z" />
    <glyph glyph-name="sacute" unicode="&#x15b;" horiz-adv-x="388" 
d="M34 62l43 49q26 -29 53.5 -44t57.5 -15q20 0 37.5 6.5t31 18.5t21.5 28t8 35q0 28 -14 46.5t-43 34.5q-36 20 -67.5 38t-54.5 38.5t-36 46.5t-13 60q0 32 11.5 57.5t31 44.5t46.5 29t57 10q44 0 78.5 -19.5t68.5 -52.5l-44 -45q-24 23 -49.5 37t-57.5 14
q-33 0 -56.5 -20.5t-23.5 -50.5q0 -29 16.5 -48.5t48.5 -36.5q40 -22 71 -40.5t52 -38.5t32 -44t11 -57q0 -31 -11.5 -59.5t-32.5 -50t-50.5 -34.5t-65.5 -13q-45 0 -86.5 19.5t-70.5 56.5zM150 630l97 129h105l-134 -129h-68z" />
    <glyph glyph-name="scaron" unicode="&#x161;" horiz-adv-x="388" 
d="M77 111q26 -29 53.5 -44t57.5 -15q20 0 37.5 6.5t31 18.5t21.5 28t8 35q0 28 -14 46.5t-43 34.5q-36 20 -67.5 38t-54.5 38.5t-36 46.5t-13 60q0 32 11.5 57.5t31 44.5t46.5 29t57 10q44 0 78.5 -19.5t68.5 -52.5l-44 -45q-24 23 -49.5 37t-57.5 14q-33 0 -56.5 -20.5
t-23.5 -50.5q0 -29 16.5 -48.5t48.5 -36.5q40 -22 71 -40.5t52 -38.5t32 -44t11 -57q0 -31 -11.5 -59.5t-32.5 -50t-50.5 -34.5t-65.5 -13q-45 0 -86.5 19.5t-70.5 56.5zM17 753h88l86 -74l90 74h91l-145 -125h-68z" />
    <glyph glyph-name="scedilla" unicode="&#x15f;" horiz-adv-x="388" 
d="M34 62l43 49q26 -29 53.5 -44t57.5 -15q20 0 37.5 6.5t31 18.5t21.5 28t8 35q0 28 -14 46.5t-43 34.5q-36 20 -67.5 38t-54.5 38.5t-36 46.5t-13 60q0 32 11.5 57.5t31 44.5t46.5 29t57 10q44 0 78.5 -19.5t68.5 -52.5l-44 -45q-24 23 -49.5 37t-57.5 14
q-33 0 -56.5 -20.5t-23.5 -50.5q0 -29 16.5 -48.5t48.5 -36.5q40 -22 71 -40.5t52 -38.5t32 -44t11 -57q0 -29 -10 -56t-28.5 -48t-45 -35t-58.5 -17l-5 -41q32 0 52.5 -13t20.5 -41q0 -33 -29.5 -55.5t-82.5 -22.5q-42 0 -81 15l11 34q14 -5 28.5 -7.5t29.5 -2.5q32 0 49 8
t17 24q0 9 -8 15t-22 6q-8 0 -17.5 -1.5t-16.5 -3.5l11 87q-38 5 -72.5 23.5t-59.5 50.5z" />
    <glyph glyph-name="scircumflex" unicode="&#x15d;" horiz-adv-x="388" 
d="M34 62l43 49q26 -29 53.5 -44t57.5 -15q20 0 37.5 6.5t31 18.5t21.5 28t8 35q0 28 -14 46.5t-43 34.5q-36 20 -67.5 38t-54.5 38.5t-36 46.5t-13 60q0 32 11.5 57.5t31 44.5t46.5 29t57 10q44 0 78.5 -19.5t68.5 -52.5l-44 -45q-24 23 -49.5 37t-57.5 14
q-33 0 -56.5 -20.5t-23.5 -50.5q0 -29 16.5 -48.5t48.5 -36.5q40 -22 71 -40.5t52 -38.5t32 -44t11 -57q0 -31 -11.5 -59.5t-32.5 -50t-50.5 -34.5t-65.5 -13q-45 0 -86.5 19.5t-70.5 56.5zM23 628l135 125h88l132 -125h-89l-86 74l-89 -74h-91z" />
    <glyph glyph-name="uni0219" unicode="&#x219;" horiz-adv-x="388" 
d="M77 111q26 -29 53.5 -44t57.5 -15q20 0 37.5 6.5t31 18.5t21.5 28t8 35q0 28 -14 46.5t-43 34.5q-36 20 -67.5 38t-54.5 38.5t-36 46.5t-13 60q0 32 11.5 57.5t31 44.5t46.5 29t57 10q44 0 78.5 -19.5t68.5 -52.5l-44 -45q-24 23 -49.5 37t-57.5 14q-33 0 -56.5 -20.5
t-23.5 -50.5q0 -29 16.5 -48.5t48.5 -36.5q40 -22 71 -40.5t52 -38.5t32 -44t11 -57q0 -31 -11.5 -59.5t-32.5 -50t-50.5 -34.5t-65.5 -13q-45 0 -86.5 19.5t-70.5 56.5zM92 -187l36 132h85l-63 -132h-58z" />
    <glyph glyph-name="germandbls" unicode="&#xdf;" horiz-adv-x="554" 
d="M80 0v499q0 51 6.5 87t24.5 68q24 42 68.5 69t105.5 27q44 0 79 -13.5t60.5 -37t39 -55.5t13.5 -70q0 -30 -10 -57.5t-30 -49.5t-49.5 -37t-69.5 -21q89 -13 137.5 -70t48.5 -140q0 -44 -14.5 -83t-41 -68t-64.5 -45.5t-85 -16.5q-29 0 -52 4.5t-49 19.5v65
q21 -10 43 -16.5t48 -6.5q30 0 56.5 10.5t46 30t31 47t11.5 61.5q0 35 -11.5 65.5t-35.5 53t-60 36.5t-85 15v76q79 0 122 34.5t43 88.5q0 26 -9.5 47t-26 36t-38 23t-46.5 8q-37 0 -68 -16.5t-48 -44.5t-20 -59t-3 -73v-491h-68z" />
    <glyph glyph-name="longs" unicode="&#x17f;" horiz-adv-x="314" 
d="M38 471v60h70v83q0 32 4.5 57.5t16.5 43t33 27t54 9.5q22 0 41.5 -5t36.5 -10v-67q-12 5 -28 10.5t-36 5.5t-31 -5.5t-16 -16t-6 -25.5t-1 -35v-603h-68v471h-70z" />
    <glyph glyph-name="uni0259" unicode="&#x259;" horiz-adv-x="650" 
d="M51 266v5h478q-1 46 -17 84t-43 65.5t-64.5 42.5t-82.5 15q-39 0 -69 -10t-53.5 -27.5t-41 -39.5t-32.5 -46l-57 30q38 74 101.5 116.5t151.5 42.5q66 0 118 -22.5t87 -60.5t53.5 -88t18.5 -106q0 -54 -19.5 -105t-55 -90t-86 -62.5t-112.5 -23.5q-58 0 -108.5 21
t-87.5 58t-58 88.5t-21 112.5zM325 52q72 0 123 39t74 120h-396q21 -83 75.5 -121t123.5 -38z" />
    <glyph glyph-name="t" unicode="t" horiz-adv-x="339" 
d="M43 531h94v198h68v-198h109v-60h-109v-471h-68v471h-94v60z" />
    <glyph glyph-name="tbar" unicode="&#x167;" horiz-adv-x="339" 
d="M137 531v198h68v-198h109v-60h-109v-175h99v-56h-99v-240h-68v240h-84v56h84v175h-94v60h94z" />
    <glyph glyph-name="tcaron" unicode="&#x165;" horiz-adv-x="339" 
d="M137 531v198h68v-198h109v-60h-109v-471h-68v471h-94v60h94zM254 736h68v-50q0 -21 -1.5 -36.5t-5 -29t-10 -26t-16.5 -26.5l-29 13q27 42 28 75h-34v80z" />
    <glyph glyph-name="uni0163" unicode="&#x163;" horiz-adv-x="339" 
d="M43 531h94v198h68v-198h109v-60h-109v-471h-15l-7 -54q32 0 52.5 -13t20.5 -41q0 -33 -29.5 -55.5t-82.5 -22.5q-42 0 -81 15l11 34q14 -5 28.5 -7.5t29.5 -2.5q32 0 49 8t17 24q0 9 -8 15t-22 6q-8 0 -17.5 -1.5t-16.5 -3.5l13 99h-10v471h-94v60z" />
    <glyph glyph-name="uni021B" unicode="&#x21b;" horiz-adv-x="339" 
d="M43 471v60h94v198h68v-198h109v-60h-109v-471h-68v471h-94zM93 -187l36 132h85l-63 -132h-58z" />
    <glyph glyph-name="u" unicode="u" horiz-adv-x="608" 
d="M67 531h72v-303q0 -89 43.5 -132t118.5 -43q41 0 71 12.5t50 35t30 54t10 68.5v308h72v-275q0 -135 -59 -202t-174 -67t-174.5 67t-59.5 202v275z" />
    <glyph glyph-name="uacute" unicode="&#xfa;" horiz-adv-x="608" 
d="M67 531h72v-303q0 -89 43.5 -132t118.5 -43q41 0 71 12.5t50 35t30 54t10 68.5v308h72v-275q0 -135 -59 -202t-174 -67t-174.5 67t-59.5 202v275zM257 630l97 129h105l-134 -129h-68z" />
    <glyph glyph-name="ubreve" unicode="&#x16d;" horiz-adv-x="608" 
d="M139 531v-303q0 -89 43.5 -132t118.5 -43q41 0 71 12.5t50 35t30 54t10 68.5v308h72v-275q0 -135 -59 -202t-174 -67t-174.5 67t-59.5 202v275h72zM203 745q14 -26 38 -41t56 -15t56 15t38 41h64q-6 -22 -19.5 -42t-33 -35.5t-46 -25t-59.5 -9.5t-59.5 9.5t-46 25
t-33 35.5t-19.5 42h64z" />
    <glyph glyph-name="ucircumflex" unicode="&#xfb;" horiz-adv-x="608" 
d="M67 256v275h72v-303q0 -89 43.5 -132t118.5 -43q41 0 71 12.5t50 35t30 54t10 68.5v308h72v-275q0 -135 -59 -202t-174 -67t-174.5 67t-59.5 202zM123 628l135 125h88l132 -125h-89l-86 74l-89 -74h-91z" />
    <glyph glyph-name="udieresis" unicode="&#xfc;" horiz-adv-x="608" 
d="M67 531h72v-303q0 -89 43.5 -132t118.5 -43q41 0 71 12.5t50 35t30 54t10 68.5v308h72v-275q0 -135 -59 -202t-174 -67t-174.5 67t-59.5 202v275zM388 734q20 0 34.5 -15t14.5 -35t-14.5 -34.5t-34.5 -14.5t-35 14.5t-15 34.5t15 35t35 15zM165 684q0 20 15 35t35 15
t34.5 -15t14.5 -35t-14.5 -34.5t-34.5 -14.5t-35 14.5t-15 34.5z" />
    <glyph glyph-name="ugrave" unicode="&#xf9;" horiz-adv-x="608" 
d="M139 531v-303q0 -89 43.5 -132t118.5 -43q41 0 71 12.5t50 35t30 54t10 68.5v308h72v-275q0 -135 -59 -202t-174 -67t-174.5 67t-59.5 202v275h72zM144 759h105l97 -129h-68z" />
    <glyph glyph-name="uhungarumlaut" unicode="&#x171;" horiz-adv-x="608" 
d="M67 531h72v-303q0 -89 43.5 -132t118.5 -43q41 0 71 12.5t50 35t30 54t10 68.5v308h72v-275q0 -135 -59 -202t-174 -67t-174.5 67t-59.5 202v275zM333 630l107 151h105l-144 -151h-68zM179 630l107 151h105l-145 -151h-67z" />
    <glyph glyph-name="umacron" unicode="&#x16b;" horiz-adv-x="608" 
d="M67 531h72v-303q0 -89 43.5 -132t118.5 -43q41 0 71 12.5t50 35t30 54t10 68.5v308h72v-275q0 -135 -59 -202t-174 -67t-174.5 67t-59.5 202v275zM161 663v60h279v-60h-279z" />
    <glyph glyph-name="uogonek" unicode="&#x173;" horiz-adv-x="608" 
d="M67 531h72v-303q0 -89 43.5 -132t118.5 -43q41 0 71 12.5t50 35t30 54t10 68.5v308h72v-275q0 -121 -47.5 -187t-139.5 -79q-50 -39 -50 -83q0 -52 62 -52q9 0 18.5 0.5t15.5 2.5l-5 -45q-12 -2 -21.5 -3t-20.5 -1q-48 0 -77.5 24.5t-29.5 64.5q0 23 11.5 46t31.5 43
q-106 6 -160.5 73t-54.5 196v275z" />
    <glyph glyph-name="uring" unicode="&#x16f;" horiz-adv-x="608" 
d="M67 531h72v-303q0 -89 43.5 -132t118.5 -43q41 0 71 12.5t50 35t30 54t10 68.5v308h72v-275q0 -135 -59 -202t-174 -67t-174.5 67t-59.5 202v275zM199 705q0 21 8 39.5t21.5 32t32.5 21.5t40 8t39.5 -8t32 -21.5t21.5 -32t8 -39.5t-8 -39.5t-21.5 -32.5t-32 -22t-39.5 -8
t-39.5 8t-32.5 22t-22 32.5t-8 39.5zM242 705q0 -26 18 -42.5t41 -16.5q25 0 42 17.5t17 41.5q0 25 -19 42t-40 17q-26 0 -42.5 -17t-16.5 -42z" />
    <glyph glyph-name="utilde" unicode="&#x169;" horiz-adv-x="608" 
d="M139 531v-303q0 -89 43.5 -132t118.5 -43q41 0 71 12.5t50 35t30 54t10 68.5v308h72v-275q0 -135 -59 -202t-174 -67t-174.5 67t-59.5 202v275h72zM135 694q19 21 45 34t55 13q19 0 36.5 -6t33.5 -12.5t31 -12.5t30 -6q17 0 33.5 6.5t31.5 17.5l31 -47q-23 -18 -45 -28.5
t-51 -10.5q-22 0 -39.5 6t-33.5 12.5t-30 12.5t-28 6q-20 0 -37 -9t-32 -22z" />
    <glyph glyph-name="v" unicode="v" horiz-adv-x="554" 
d="M26 531h73l178 -398l176 398h73l-237 -531h-24z" />
    <glyph glyph-name="w" unicode="w" horiz-adv-x="831" 
d="M4 531h71l162 -385l170 385h12l171 -385l165 385h71l-230 -531h-13l-169 381l-170 -381h-14z" />
    <glyph glyph-name="wacute" unicode="&#x1e83;" horiz-adv-x="831" 
d="M75 531l162 -385l170 385h12l171 -385l165 385h71l-230 -531h-13l-169 381l-170 -381h-14l-226 531h71zM372 630l97 129h105l-134 -129h-68z" />
    <glyph glyph-name="wcircumflex" unicode="&#x175;" horiz-adv-x="831" 
d="M75 531l162 -385l170 385h12l171 -385l165 385h71l-230 -531h-13l-169 381l-170 -381h-14l-226 531h71zM228 628l135 125h88l132 -125h-89l-86 74l-89 -74h-91z" />
    <glyph glyph-name="wdieresis" unicode="&#x1e85;" horiz-adv-x="831" 
d="M75 531l162 -385l170 385h12l171 -385l165 385h71l-230 -531h-13l-169 381l-170 -381h-14l-226 531h71zM453 684q0 20 15 35t35 15t34.5 -15t14.5 -35t-14.5 -34.5t-34.5 -14.5t-35 14.5t-15 34.5zM280 684q0 20 15 35t35 15t34.5 -15t14.5 -35t-14.5 -34.5t-34.5 -14.5
t-35 14.5t-15 34.5z" />
    <glyph glyph-name="wgrave" unicode="&#x1e81;" horiz-adv-x="831" 
d="M75 531l162 -385l170 385h12l171 -385l165 385h71l-230 -531h-13l-169 381l-170 -381h-14l-226 531h71zM259 759h105l97 -129h-68z" />
    <glyph glyph-name="x" unicode="x" horiz-adv-x="480" 
d="M-4 0l201 279l-182 252h82l141 -196l141 196h81l-181 -252l204 -279h-83l-162 223l-160 -223h-82z" />
    <glyph glyph-name="y" unicode="y" horiz-adv-x="536" 
d="M89 531l184 -417l180 417h71l-317 -725h-72l103 230l-219 495h70z" />
    <glyph glyph-name="yacute" unicode="&#xfd;" horiz-adv-x="536" 
d="M19 531h70l184 -417l180 417h71l-317 -725h-72l103 230zM230 630l97 129h105l-134 -129h-68z" />
    <glyph glyph-name="ycircumflex" unicode="&#x177;" horiz-adv-x="536" 
d="M19 531h70l184 -417l180 417h71l-317 -725h-72l103 230zM96 628l135 125h88l132 -125h-89l-86 74l-89 -74h-91z" />
    <glyph glyph-name="ydieresis" unicode="&#xff;" horiz-adv-x="536" 
d="M19 531h70l184 -417l180 417h71l-317 -725h-72l103 230zM311 684q0 20 15 35t35 15t34.5 -15t14.5 -35t-14.5 -34.5t-34.5 -14.5t-35 14.5t-15 34.5zM188 734q20 0 34.5 -15t14.5 -35t-14.5 -34.5t-34.5 -14.5t-35 14.5t-15 34.5t15 35t35 15z" />
    <glyph glyph-name="ygrave" unicode="&#x1ef3;" horiz-adv-x="536" 
d="M19 531h70l184 -417l180 417h71l-317 -725h-72l103 230zM222 759l97 -129h-68l-134 129h105z" />
    <glyph glyph-name="z" unicode="z" horiz-adv-x="425" 
d="M423 531l-301 -471h291v-60h-409l301 471h-273v60h391z" />
    <glyph glyph-name="zacute" unicode="&#x17a;" horiz-adv-x="425" 
d="M266 759h105l-134 -129h-68zM423 531l-301 -471h291v-60h-409l301 471h-273v60h391z" />
    <glyph glyph-name="zcaron" unicode="&#x17e;" horiz-adv-x="425" 
d="M4 0l301 471h-273v60h391l-301 -471h291v-60h-409zM124 753l86 -74l90 74h91l-145 -125h-68l-142 125h88z" />
    <glyph glyph-name="zdotaccent" unicode="&#x17c;" horiz-adv-x="425" 
d="M305 471h-273v60h391l-301 -471h291v-60h-409zM156 684q0 23 17 40t40 17t39.5 -17t16.5 -40t-16.5 -39.5t-39.5 -16.5t-40 16.5t-17 39.5z" />
    <glyph glyph-name="a.ss01" horiz-adv-x="579" 
d="M45 154q0 87 77 130.5t228 43.5h91v18q0 28 -8.5 52.5t-26 42.5t-44.5 28t-65 10q-51 0 -97 -17t-84 -46l-36 52q35 29 90 53t123 24q55 0 95.5 -14.5t67.5 -40.5t40 -62.5t13 -81.5v-346h-68l1 91q-10 -18 -30.5 -36.5t-48.5 -33.5t-61.5 -24.5t-70.5 -9.5
q-40 0 -74 11.5t-59 33.5t-39 52.5t-14 69.5zM115 154q0 -25 9.5 -44.5t26 -33t38.5 -20.5t46 -7q34 0 70.5 11.5t66.5 34.5t49.5 58t19.5 82v33h-91q-115 0 -175 -26.5t-60 -87.5z" />
    <glyph glyph-name="aacute.ss01" horiz-adv-x="579" 
d="M45 154q0 87 77 130.5t228 43.5h91v18q0 28 -8.5 52.5t-26 42.5t-44.5 28t-65 10q-51 0 -97 -17t-84 -46l-36 52q35 29 90 53t123 24q55 0 95.5 -14.5t67.5 -40.5t40 -62.5t13 -81.5v-346h-68l1 91q-10 -18 -30.5 -36.5t-48.5 -33.5t-61.5 -24.5t-70.5 -9.5
q-40 0 -74 11.5t-59 33.5t-39 52.5t-14 69.5zM235 49q34 0 70.5 11.5t66.5 34.5t49.5 58t19.5 82v33h-91q-115 0 -175 -26.5t-60 -87.5q0 -25 9.5 -44.5t26 -33t38.5 -20.5t46 -7zM347 759h105l-134 -129h-68z" />
    <glyph glyph-name="abreve.ss01" horiz-adv-x="579" 
d="M350 328h91v18q0 28 -8.5 52.5t-26 42.5t-44.5 28t-65 10q-51 0 -97 -17t-84 -46l-36 52q35 29 90 53t123 24q55 0 95.5 -14.5t67.5 -40.5t40 -62.5t13 -81.5v-346h-68l1 91q-10 -18 -30.5 -36.5t-48.5 -33.5t-61.5 -24.5t-70.5 -9.5q-40 0 -74 11.5t-59 33.5t-39 52.5
t-14 69.5q0 87 77 130.5t228 43.5zM115 154q0 -25 9.5 -44.5t26 -33t38.5 -20.5t46 -7q34 0 70.5 11.5t66.5 34.5t49.5 58t19.5 82v33h-91q-115 0 -175 -26.5t-60 -87.5zM200 745q14 -26 38 -41t56 -15t56 15t38 41h64q-6 -22 -19.5 -42t-33 -35.5t-46 -25t-59.5 -9.5
t-59.5 9.5t-46 25t-33 35.5t-19.5 42h64z" />
    <glyph glyph-name="acircumflex.ss01" horiz-adv-x="579" 
d="M350 328h91v18q0 28 -8.5 52.5t-26 42.5t-44.5 28t-65 10q-51 0 -97 -17t-84 -46l-36 52q35 29 90 53t123 24q55 0 95.5 -14.5t67.5 -40.5t40 -62.5t13 -81.5v-346h-68l1 91q-10 -18 -30.5 -36.5t-48.5 -33.5t-61.5 -24.5t-70.5 -9.5q-40 0 -74 11.5t-59 33.5t-39 52.5
t-14 69.5q0 87 77 130.5t228 43.5zM115 154q0 -25 9.5 -44.5t26 -33t38.5 -20.5t46 -7q34 0 70.5 11.5t66.5 34.5t49.5 58t19.5 82v33h-91q-115 0 -175 -26.5t-60 -87.5zM116 628l135 125h88l132 -125h-89l-86 74l-89 -74h-91z" />
    <glyph glyph-name="adieresis.ss01" horiz-adv-x="579" 
d="M45 154q0 87 77 130.5t228 43.5h91v18q0 28 -8.5 52.5t-26 42.5t-44.5 28t-65 10q-51 0 -97 -17t-84 -46l-36 52q35 29 90 53t123 24q55 0 95.5 -14.5t67.5 -40.5t40 -62.5t13 -81.5v-346h-68l1 91q-10 -18 -30.5 -36.5t-48.5 -33.5t-61.5 -24.5t-70.5 -9.5
q-40 0 -74 11.5t-59 33.5t-39 52.5t-14 69.5zM235 49q34 0 70.5 11.5t66.5 34.5t49.5 58t19.5 82v33h-91q-115 0 -175 -26.5t-60 -87.5q0 -25 9.5 -44.5t26 -33t38.5 -20.5t46 -7zM381 734q20 0 34.5 -15t14.5 -35t-14.5 -34.5t-34.5 -14.5t-35 14.5t-15 34.5t15 35t35 15z
M208 734q20 0 34.5 -15t14.5 -35t-14.5 -34.5t-34.5 -14.5t-35 14.5t-15 34.5t15 35t35 15z" />
    <glyph glyph-name="agrave.ss01" horiz-adv-x="579" 
d="M45 154q0 87 77 130.5t228 43.5h91v18q0 28 -8.5 52.5t-26 42.5t-44.5 28t-65 10q-51 0 -97 -17t-84 -46l-36 52q35 29 90 53t123 24q55 0 95.5 -14.5t67.5 -40.5t40 -62.5t13 -81.5v-346h-68l1 91q-10 -18 -30.5 -36.5t-48.5 -33.5t-61.5 -24.5t-70.5 -9.5
q-40 0 -74 11.5t-59 33.5t-39 52.5t-14 69.5zM235 49q34 0 70.5 11.5t66.5 34.5t49.5 58t19.5 82v33h-91q-115 0 -175 -26.5t-60 -87.5q0 -25 9.5 -44.5t26 -33t38.5 -20.5t46 -7zM137 759h105l97 -129h-68z" />
    <glyph glyph-name="amacron.ss01" horiz-adv-x="579" 
d="M45 154q0 87 77 130.5t228 43.5h91v18q0 28 -8.5 52.5t-26 42.5t-44.5 28t-65 10q-51 0 -97 -17t-84 -46l-36 52q35 29 90 53t123 24q55 0 95.5 -14.5t67.5 -40.5t40 -62.5t13 -81.5v-346h-68l1 91q-10 -18 -30.5 -36.5t-48.5 -33.5t-61.5 -24.5t-70.5 -9.5
q-40 0 -74 11.5t-59 33.5t-39 52.5t-14 69.5zM115 154q0 -25 9.5 -44.5t26 -33t38.5 -20.5t46 -7q34 0 70.5 11.5t66.5 34.5t49.5 58t19.5 82v33h-91q-115 0 -175 -26.5t-60 -87.5zM154 663v60h279v-60h-279z" />
    <glyph glyph-name="aogonek.ss01" horiz-adv-x="579" 
d="M45 154q0 87 77 130.5t228 43.5h91v18q0 28 -8.5 52.5t-26 42.5t-44.5 28t-65 10q-51 0 -97 -17t-84 -46l-36 52q35 29 90 53t123 24q55 0 95.5 -14.5t67.5 -40.5t40 -62.5t13 -81.5v-346h2q-64 -43 -64 -93q0 -52 62 -52q9 0 18.5 0.5t15.5 2.5l-5 -45q-12 -2 -21.5 -3
t-20.5 -1q-48 0 -77.5 24.5t-29.5 64.5q0 26 15 52.5t42 49.5h-5l1 91q-10 -18 -30.5 -36.5t-48.5 -33.5t-61.5 -24.5t-70.5 -9.5q-40 0 -74 11.5t-59 33.5t-39 52.5t-14 69.5zM235 49q34 0 70.5 11.5t66.5 34.5t49.5 58t19.5 82v33h-91q-115 0 -175 -26.5t-60 -87.5
q0 -25 9.5 -44.5t26 -33t38.5 -20.5t46 -7z" />
    <glyph glyph-name="aring.ss01" horiz-adv-x="579" 
d="M45 154q0 87 77 130.5t228 43.5h91v18q0 28 -8.5 52.5t-26 42.5t-44.5 28t-65 10q-51 0 -97 -17t-84 -46l-36 52q35 29 90 53t123 24q55 0 95.5 -14.5t67.5 -40.5t40 -62.5t13 -81.5v-346h-68l1 91q-10 -18 -30.5 -36.5t-48.5 -33.5t-61.5 -24.5t-70.5 -9.5
q-40 0 -74 11.5t-59 33.5t-39 52.5t-14 69.5zM235 49q34 0 70.5 11.5t66.5 34.5t49.5 58t19.5 82v33h-91q-115 0 -175 -26.5t-60 -87.5q0 -25 9.5 -44.5t26 -33t38.5 -20.5t46 -7zM192 705q0 21 8 39.5t21.5 32t32.5 21.5t40 8t39.5 -8t32 -21.5t21.5 -32t8 -39.5t-8 -39.5
t-21.5 -32.5t-32 -22t-39.5 -8t-39.5 8t-32.5 22t-22 32.5t-8 39.5zM235 705q0 -26 18 -42.5t41 -16.5q25 0 42 17.5t17 41.5q0 25 -19 42t-40 17q-26 0 -42.5 -17t-16.5 -42z" />
    <glyph glyph-name="atilde.ss01" horiz-adv-x="579" 
d="M45 154q0 87 77 130.5t228 43.5h91v18q0 28 -8.5 52.5t-26 42.5t-44.5 28t-65 10q-51 0 -97 -17t-84 -46l-36 52q35 29 90 53t123 24q55 0 95.5 -14.5t67.5 -40.5t40 -62.5t13 -81.5v-346h-68l1 91q-10 -18 -30.5 -36.5t-48.5 -33.5t-61.5 -24.5t-70.5 -9.5
q-40 0 -74 11.5t-59 33.5t-39 52.5t-14 69.5zM235 49q34 0 70.5 11.5t66.5 34.5t49.5 58t19.5 82v33h-91q-115 0 -175 -26.5t-60 -87.5q0 -25 9.5 -44.5t26 -33t38.5 -20.5t46 -7zM228 741q19 0 36.5 -6t33.5 -12.5t31 -12.5t30 -6q17 0 33.5 6.5t31.5 17.5l31 -47
q-23 -18 -45 -28.5t-51 -10.5q-22 0 -39.5 6t-33.5 12.5t-30 12.5t-28 6q-20 0 -37 -9t-32 -22l-31 46q19 21 45 34t55 13z" />
    <glyph glyph-name="ae.ss01" horiz-adv-x="1030" 
d="M45 154q0 87 77 129t228 42h91v21q0 36 -11 61t-30.5 41t-46 23.5t-56.5 7.5q-44 0 -85.5 -14.5t-85.5 -50.5l-46 44q50 47 105 67t112 20q72 0 123 -30.5t70 -88.5q32 53 89.5 86t134.5 33q56 0 104.5 -20.5t84 -56t56 -84t20.5 -104.5v-15h-468q1 -45 16 -84.5t42 -69
t65.5 -46t86.5 -16.5q38 0 67.5 11t52.5 28.5t40.5 40.5t32.5 47l57 -30q-42 -77 -103.5 -118t-146.5 -41q-89 0 -148.5 40t-90.5 100q-27 -63 -84.5 -101.5t-150.5 -38.5q-43 0 -80 11t-64 32t-42.5 52t-15.5 72zM251 49q38 0 72 10.5t60.5 34t42 61.5t15.5 93v17h-91
q-115 0 -175 -25t-60 -86q0 -27 10.5 -47t29 -32.5t43.5 -19t53 -6.5zM904 325q-20 80 -72 117t-117 37q-36 0 -69 -9.5t-59.5 -29t-44.5 -48t-26 -67.5h388z" />
    <glyph glyph-name="aeacute.ss01" horiz-adv-x="1030" 
d="M45 154q0 87 77 129t228 42h91v21q0 36 -11 61t-30.5 41t-46 23.5t-56.5 7.5q-44 0 -85.5 -14.5t-85.5 -50.5l-46 44q50 47 105 67t112 20q72 0 123 -30.5t70 -88.5q32 53 89.5 86t134.5 33q56 0 104.5 -20.5t84 -56t56 -84t20.5 -104.5v-15h-468q1 -45 16 -84.5t42 -69
t65.5 -46t86.5 -16.5q38 0 67.5 11t52.5 28.5t40.5 40.5t32.5 47l57 -30q-42 -77 -103.5 -118t-146.5 -41q-89 0 -148.5 40t-90.5 100q-27 -63 -84.5 -101.5t-150.5 -38.5q-43 0 -80 11t-64 32t-42.5 52t-15.5 72zM115 154q0 -27 10.5 -47t29 -32.5t43.5 -19t53 -6.5
q38 0 72 10.5t60.5 34t42 61.5t15.5 93v17h-91q-115 0 -175 -25t-60 -86zM904 325q-20 80 -72 117t-117 37q-36 0 -69 -9.5t-59.5 -29t-44.5 -48t-26 -67.5h388zM464 630l97 129h105l-134 -129h-68z" />
    <glyph glyph-name="ordfeminine" unicode="&#xaa;" horiz-adv-x="369" 
d="M28 563q0 36 11 67.5t30 55t45 37t55 13.5q59 0 100 -56v48h56v-332h-56v46q-20 -26 -46 -40t-55 -14t-54.5 13.5t-44.5 37.5t-30 56t-11 68zM178 440q18 0 34.5 8t30 23t21.5 37.5t8 51.5q0 27 -7.5 49.5t-20 39t-29.5 26t-37 9.5t-37 -10t-29.5 -26.5t-19.5 -39
t-7 -47.5t7 -47t20 -38.5t30 -26t36 -9.5z" />
    <glyph glyph-name="ordmasculine" unicode="&#xba;" horiz-adv-x="369" 
d="M27 561q0 36 12 68t33 55.5t49.5 37.5t62.5 14t63 -14t50 -37.5t33 -55.5t12 -68t-12 -67.5t-33 -55t-50 -37t-63 -13.5t-63 13.5t-50 37t-32.5 55t-11.5 67.5zM84 560q0 -25 8 -47t21.5 -38t32 -25.5t39.5 -9.5t39.5 9.5t32 25.5t21 38t7.5 47q0 26 -8 48.5t-22 39.5
t-32 26.5t-38 9.5t-38 -9.5t-32 -26.5t-22.5 -39.5t-8.5 -48.5z" />
    <glyph glyph-name="uni2099.subs" unicode="&#x2099;" horiz-adv-x="367" 
d="M44 0v369h54v-66q19 38 50 57t66 19q60 0 89.5 -39.5t29.5 -127.5v-212h-54v201q0 66 -15.5 98.5t-55.5 32.5q-18 0 -37 -10t-35.5 -28t-27 -43t-10.5 -54v-197h-54z" />
    <glyph glyph-name="uni207F.sups" unicode="&#x207f;" horiz-adv-x="367" 
d="M44 358v369h54v-66q19 38 50 57t66 19q60 0 89.5 -39.5t29.5 -127.5v-212h-54v201q0 66 -15.5 98.5t-55.5 32.5q-18 0 -37 -10t-35.5 -28t-27 -43t-10.5 -54v-197h-54z" />
    <glyph glyph-name="uni0410" unicode="&#x410;" horiz-adv-x="695" 
d="M340 718h17l333 -718h-75l-110 236h-315l-110 -236h-75zM222 304h251l-125 269z" />
    <glyph glyph-name="uni0411" unicode="&#x411;" horiz-adv-x="552" 
d="M447 718v-71h-288v-229h87q63 0 113 -15t85.5 -42.5t54 -66.5t18.5 -87q0 -46 -17.5 -84t-48 -65.5t-73 -42.5t-93.5 -15h-198v718h360zM159 70h98q91 0 138 35t47 103q0 30 -11.5 55.5t-36 44.5t-63 29.5t-92.5 10.5h-80v-278z" />
    <glyph glyph-name="uni0412" unicode="&#x412;" horiz-adv-x="572" 
d="M87 718h152q57 0 98.5 -13t68.5 -36.5t40 -55.5t13 -70q0 -48 -22.5 -86.5t-69.5 -64.5q151 -51 151 -186q0 -40 -15.5 -77.5t-45 -66t-73 -45.5t-100.5 -17h-197v718zM159 347v-277h111q46 0 78.5 11.5t53.5 30t31 43t10 50.5q0 68 -54.5 105t-154.5 37h-75zM159 648
v-231h48q80 0 128.5 29t48.5 97q0 48 -34 76.5t-97 28.5h-94z" />
    <glyph glyph-name="uni0413" unicode="&#x413;" horiz-adv-x="463" 
d="M87 718h360v-70h-288v-648h-72v718z" />
    <glyph glyph-name="uni0403" unicode="&#x403;" horiz-adv-x="463" 
d="M302 911h105l-134 -129h-68zM87 718h360v-70h-288v-648h-72v718z" />
    <glyph glyph-name="uni0490" unicode="&#x490;" horiz-adv-x="405" 
d="M86 718h232v105h71v-176h-231v-647h-72v718z" />
    <glyph glyph-name="uni0414" unicode="&#x414;" horiz-adv-x="738" 
d="M10 -127v197h60l275 648h35l290 -648h58v-197h-70v127h-578v-127h-70zM590 70l-225 512l-216 -512h441z" />
    <glyph glyph-name="uni0415" unicode="&#x415;" horiz-adv-x="535" 
d="M87 0v718h410v-69h-338v-227h338v-68h-338v-284h338v-70h-410z" />
    <glyph glyph-name="uni0400" unicode="&#x400;" horiz-adv-x="535" 
d="M87 718h410v-69h-338v-227h338v-68h-338v-284h338v-70h-410v718zM242 911l97 -129h-68l-134 129h105z" />
    <glyph glyph-name="uni0401" unicode="&#x401;" horiz-adv-x="535" 
d="M87 0v718h410v-69h-338v-227h338v-68h-338v-284h338v-70h-410zM385 886q20 0 34.5 -15t14.5 -35t-14.5 -34.5t-34.5 -14.5t-35 14.5t-15 34.5t15 35t35 15zM162 836q0 20 15 35t35 15t34.5 -15t14.5 -35t-14.5 -34.5t-34.5 -14.5t-35 14.5t-15 34.5z" />
    <glyph glyph-name="uni0416" unicode="&#x416;" horiz-adv-x="890" 
d="M801 0l-322 356v-356h-68v356l-322 -356h-89l351 387l-318 331h88l290 -298v298h68v-298l290 298h88l-318 -331l351 -387h-89z" />
    <glyph glyph-name="uni0417" unicode="&#x417;" horiz-adv-x="550" 
d="M37 148l64 30q23 -57 65 -93.5t114 -36.5q42 0 73 13t51.5 34.5t30.5 49t10 56.5q0 76 -54 118.5t-156 42.5v66q86 5 126 39.5t40 88.5q0 23 -8.5 44t-25 36.5t-40 24.5t-53.5 9q-53 0 -91 -30.5t-61 -85.5l-65 27q32 76 91 115.5t128 39.5q46 0 83 -14.5t63 -39
t40 -57.5t14 -69q0 -54 -28 -93.5t-77 -60.5q144 -52 144 -196q0 -42 -15 -82t-45 -71.5t-75 -51t-105 -19.5q-45 0 -81.5 12t-66 34t-52 52.5t-38.5 67.5z" />
    <glyph glyph-name="uni0418" unicode="&#x418;" horiz-adv-x="736" 
d="M158 718v-550l476 550h15v-718h-72v543l-475 -543h-16v718h72z" />
    <glyph glyph-name="uni0419" unicode="&#x419;" horiz-adv-x="736" 
d="M86 718h72v-550l476 550h15v-718h-72v543l-475 -543h-16v718zM206 896h64q14 -26 38 -41t56 -15t56 15t38 41h64q-6 -22 -19.5 -42t-33 -35.5t-46 -25t-59.5 -9.5t-59.5 9.5t-46 25t-33 35.5t-19.5 42z" />
    <glyph glyph-name="uni040D" unicode="&#x40d;" horiz-adv-x="736" 
d="M158 718v-550l476 550h15v-718h-72v543l-475 -543h-16v718h72zM203 910h105l97 -129h-68z" />
    <glyph glyph-name="uni041A" unicode="&#x41a;" horiz-adv-x="570" 
d="M87 0v718h72v-298l290 298h88l-318 -331l351 -387h-89l-322 356v-356h-72z" />
    <glyph glyph-name="uni040C" unicode="&#x40c;" horiz-adv-x="570" 
d="M87 0v718h72v-298l290 298h88l-318 -331l351 -387h-89l-322 356v-356h-72zM254 782l97 129h105l-134 -129h-68z" />
    <glyph glyph-name="uni041B" unicode="&#x41b;" horiz-adv-x="646" 
d="M5 0l308 718h16l312 -718h-78l-242 555l-238 -555h-78z" />
    <glyph glyph-name="uni041C" unicode="&#x41c;" horiz-adv-x="919" 
d="M157 718h12l292 -589l289 589h12l102 -718h-70l-66 488q-1 7 -2 13t-2 13l-254 -514h-18l-245 490q-3 7 -6.5 13.5t-6.5 13.5q-1 -8 -2 -15t-2 -15l-65 -487h-70z" />
    <glyph glyph-name="uni041D" unicode="&#x41d;" horiz-adv-x="683" 
d="M87 0v718h72v-301h366v301h72v-718h-72v347h-366v-347h-72z" />
    <glyph glyph-name="uni041E" unicode="&#x41e;" horiz-adv-x="869" 
d="M56 356q0 80 29 149.5t79.5 120.5t118.5 80.5t146 29.5q82 0 152 -29t121.5 -79.5t81 -119.5t29.5 -149q0 -79 -29 -148t-80 -120t-120 -80t-149 -29q-83 0 -152.5 30t-120 81.5t-78.5 119.5t-28 143zM131 356q0 -66 24.5 -122t66 -96.5t96 -63t115.5 -22.5
q63 0 118.5 23t97 63.5t65.5 97.5t24 124q0 68 -25.5 124.5t-67.5 97t-97 62.5t-115 22q-59 0 -113.5 -22.5t-96.5 -63.5t-67 -98t-25 -126z" />
    <glyph glyph-name="uni041F" unicode="&#x41f;" horiz-adv-x="683" 
d="M87 0v718h510v-718h-72v648h-365v-648h-73z" />
    <glyph glyph-name="uni0420" unicode="&#x420;" horiz-adv-x="567" 
d="M87 718h194q53 0 99.5 -8.5t81.5 -30t55 -58.5t20 -94q0 -59 -21.5 -96.5t-58 -59t-84 -29.5t-98.5 -8h-116v-334h-72v718zM159 648v-244h119q40 0 74 5t58.5 19t38 38t13.5 61t-13.5 60.5t-37.5 37t-56 18.5t-69 5h-127z" />
    <glyph glyph-name="uni0421" unicode="&#x421;" horiz-adv-x="814" 
d="M56 363q0 80 29 148t81 118t122.5 78.5t154.5 28.5q98 0 177.5 -38t132.5 -113l-57 -43q-47 63 -111.5 93.5t-140.5 30.5q-64 0 -120.5 -22.5t-99.5 -63.5t-68 -97.5t-25 -125.5q0 -67 24 -123.5t66.5 -97.5t100.5 -64t126 -23q150 0 252 119l57 -43q-56 -70 -135.5 -106
t-178.5 -36q-90 0 -161.5 29.5t-122 81t-77 121t-26.5 148.5z" />
    <glyph glyph-name="uni0422" unicode="&#x422;" horiz-adv-x="426" 
d="M16 718h394v-70h-160v-648h-72v648h-162v70z" />
    <glyph glyph-name="uni0423" unicode="&#x423;" horiz-adv-x="646" 
d="M33 716h78l235 -486l187 488h75l-239 -600q-29 -75 -70 -105.5t-96 -30.5q-47 0 -79.5 16t-64.5 45l42 53q23 -23 45 -36t57 -13t59 22.5t41 64.5l8 17z" />
    <glyph glyph-name="uni040E" unicode="&#x40e;" horiz-adv-x="646" 
d="M33 716h78l235 -486l187 488h75l-239 -600q-29 -75 -70 -105.5t-96 -30.5q-47 0 -79.5 16t-64.5 45l42 53q23 -23 45 -36t57 -13t59 22.5t41 64.5l8 17zM175 892h64q14 -26 38 -41t56 -15t56 15t38 41h64q-6 -22 -19.5 -42t-33 -35.5t-46 -25t-59.5 -9.5t-59.5 9.5
t-46 25t-33 35.5t-19.5 42z" />
    <glyph glyph-name="uni0424" unicode="&#x424;" horiz-adv-x="838" 
d="M50 417q0 47 15.5 85t45.5 66t73.5 43t98.5 15h100v92h72v-92h100q55 0 98.5 -15t73.5 -43t45.5 -66t15.5 -85t-17.5 -86t-48.5 -66.5t-74 -43t-93 -15.5h-100v-206h-72v206h-100q-50 0 -93 15.5t-74 43t-48.5 66.5t-17.5 86zM455 556v-280h100q35 0 64 10.5t50 29t33 45
t12 57.5q0 66 -39.5 102t-119.5 36h-100zM283 276h100v280h-100q-80 0 -119.5 -36t-39.5 -102q0 -31 12 -57.5t33 -45t50 -29t64 -10.5z" />
    <glyph glyph-name="uni0425" unicode="&#x425;" horiz-adv-x="609" 
d="M263 370l-213 348h84l172 -280l173 280h83l-214 -348l228 -370h-84l-186 301l-188 -301h-84z" />
    <glyph glyph-name="uni0427" unicode="&#x427;" horiz-adv-x="558" 
d="M35 558v160h70v-157q0 -45 9 -76t29 -50.5t52 -28t78 -8.5h127v320h72v-718h-72v328h-127q-127 0 -182.5 56.5t-55.5 173.5z" />
    <glyph glyph-name="uni0426" unicode="&#x426;" horiz-adv-x="708" 
d="M87 718h72v-648h332v648h72v-648h123v-197h-70v127h-529v718z" />
    <glyph glyph-name="uni0428" unicode="&#x428;" horiz-adv-x="1008" 
d="M87 0v718h73v-648h306v648h73v-648h311v648h72v-718h-835z" />
    <glyph glyph-name="uni0429" unicode="&#x429;" horiz-adv-x="1066" 
d="M87 0v718h73v-648h306v648h73v-648h311v648h72v-648h122v-197h-70v127h-887z" />
    <glyph glyph-name="uni040F" unicode="&#x40f;" horiz-adv-x="650" 
d="M160 718v-648h331v648h73v-718h-203v-127h-70v127h-204v718h73z" />
    <glyph glyph-name="uni042F" unicode="&#x42f;" horiz-adv-x="592" 
d="M45 0l259 334q-55 0 -101 12t-79 36t-51 60t-18 85q0 43 14.5 78.5t44.5 60.5t76.5 38.5t109.5 13.5h205v-718h-72v334h-41l-258 -334h-89zM304 404h129v244h-147q-81 0 -118.5 -34t-37.5 -87q0 -65 47 -94t127 -29z" />
    <glyph glyph-name="uni042C" unicode="&#x42c;" horiz-adv-x="552" 
d="M87 718h72v-300h87q63 0 113 -15t85.5 -42.5t54 -66.5t18.5 -87q0 -46 -17.5 -84t-48 -65.5t-73 -42.5t-93.5 -15h-198v718zM159 348v-278h98q91 0 138 35t47 103q0 30 -11.5 55.5t-36 44.5t-63 29.5t-92.5 10.5h-80z" />
    <glyph glyph-name="uni042A" unicode="&#x42a;" horiz-adv-x="629" 
d="M16 649v69h220v-300h87q63 0 113 -15t85.5 -42.5t54 -66.5t18.5 -87q0 -46 -17.5 -84t-48 -65.5t-73 -42.5t-93.5 -15h-198v649h-148zM236 70h98q91 0 138 35t47 103q0 30 -11.5 55.5t-36 44.5t-63 29.5t-92.5 10.5h-80v-278z" />
    <glyph glyph-name="uni042B" unicode="&#x42b;" horiz-adv-x="797" 
d="M159 718v-300h87q63 0 113 -15t85.5 -42.5t54 -66.5t18.5 -87q0 -46 -17.5 -84t-48 -65.5t-73 -42.5t-93.5 -15h-198v718h72zM159 70h98q91 0 138 35t47 103q0 30 -11.5 55.5t-36 44.5t-63 29.5t-92.5 10.5h-80v-278zM639 718h72v-718h-72v718z" />
    <glyph glyph-name="uni0409" unicode="&#x409;" horiz-adv-x="988" 
d="M5 0l308 718h16l131 -301h222q63 0 113 -15t85.5 -42.5t54 -66.5t18.5 -87q0 -46 -17.5 -84t-48 -65.5t-73 -42.5t-93.5 -15h-98v1h-60l-242 555l-238 -555h-78zM490 347l121 -278h82q91 0 138 34.5t47 102.5q0 30 -11.5 56t-36 44.5t-63 29.5t-92.5 11h-185z" />
    <glyph glyph-name="uni040A" unicode="&#x40a;" horiz-adv-x="990" 
d="M87 718h72v-301h366v301h72v-300h87q63 0 113 -15t85.5 -42.5t54 -66.5t18.5 -87q0 -46 -17.5 -84t-48 -65.5t-73 -42.5t-93.5 -15h-198v347h-366v-347h-72v718zM597 70h98q91 0 138 35t47 103q0 30 -11.5 55.5t-36 44.5t-63 29.5t-92.5 10.5h-80v-278z" />
    <glyph glyph-name="uni0405" unicode="&#x405;" horiz-adv-x="487" 
d="M25 134l61 37q65 -119 150 -119q28 0 52.5 9.5t42.5 26t28 39t10 47.5t-11 47t-34 46.5t-60 55t-89 72.5q-27 21 -46.5 40t-32 38.5t-19 42t-6.5 52.5q0 37 13.5 68t37 53t55.5 34.5t68 12.5q33 0 60 -9.5t49.5 -25t41.5 -37t37 -45.5l-58 -45q-29 38 -58.5 63t-73.5 25
q-23 0 -41 -7.5t-30.5 -20.5t-19 -29t-6.5 -34q0 -36 21 -65.5t57 -55.5q48 -35 88.5 -66.5t70 -64t45.5 -67.5t16 -77q0 -38 -15 -73t-42 -61.5t-64 -42.5t-81 -16q-75 0 -126 39.5t-91 112.5z" />
    <glyph glyph-name="uni0404" unicode="&#x404;" horiz-adv-x="807" 
d="M56 363q0 80 29 148t81 118t122.5 78.5t154.5 28.5q100 0 180 -38t134 -113l-57 -43q-48 63 -113 93.5t-143 30.5q-59 0 -112 -19.5t-95 -54.5t-69 -85t-35 -110h341v-70h-342q6 -61 32 -112t67.5 -88t97 -57.5t119.5 -20.5q150 0 252 119l57 -43q-56 -70 -135.5 -106
t-178.5 -36q-90 0 -161.5 29.5t-122 81t-77 121t-26.5 148.5z" />
    <glyph glyph-name="uni042D" unicode="&#x42d;" horiz-adv-x="807" 
d="M364 736q84 0 154.5 -28.5t122.5 -78.5t81 -118t29 -148q0 -79 -26.5 -148.5t-77 -121t-122 -81t-161.5 -29.5q-99 0 -178.5 36t-135.5 106l57 43q102 -119 252 -119q64 0 119.5 20.5t97 57.5t67.5 88t32 112h-342v70h341q-7 60 -34.5 110t-69.5 85t-95 54.5t-112 19.5
q-78 0 -143 -30.5t-113 -93.5l-57 43q54 75 134 113t180 38z" />
    <glyph glyph-name="uni0406" unicode="&#x406;" horiz-adv-x="245" 
d="M87 718h72v-718h-72v718z" />
    <glyph glyph-name="uni0407" unicode="&#x407;" horiz-adv-x="245" 
d="M87 0v718h72v-718h-72zM210 886q20 0 34.5 -15t14.5 -35t-14.5 -34.5t-34.5 -14.5t-35 14.5t-15 34.5t15 35t35 15zM-13 836q0 20 15 35t35 15t34.5 -15t14.5 -35t-14.5 -34.5t-34.5 -14.5t-35 14.5t-15 34.5z" />
    <glyph glyph-name="uni0408" unicode="&#x408;" horiz-adv-x="482" 
d="M82 118q29 -28 63.5 -46.5t70.5 -18.5q49 0 77.5 32.5t28.5 114.5v518h72v-530q0 -108 -47 -156.5t-132 -48.5q-54 0 -99 23t-74 52z" />
    <glyph glyph-name="uni040B" unicode="&#x40b;" horiz-adv-x="702" 
d="M16 718h394v-70h-159v-229h138q54 0 96 -12t71 -38t44.5 -68t15.5 -102v-199h-72v186q0 47 -8.5 78.5t-28 50.5t-51.5 26.5t-78 7.5h-127v-349h-72v648h-163v70z" />
    <glyph glyph-name="uni042E" unicode="&#x42e;" horiz-adv-x="1096" 
d="M159 718v-317h126q8 72 40 133.5t81.5 106t113.5 70t136 25.5q82 0 152 -29t121.5 -79.5t81 -119.5t29.5 -149q0 -79 -29 -148t-80 -120t-120 -80t-149 -29q-79 0 -146.5 28t-117.5 75.5t-79.5 111t-34.5 134.5h-125v-331h-72v718h72zM660 52q63 0 118.5 23t97 63.5
t65.5 97.5t24 124q0 68 -25.5 124.5t-67.5 97t-97 62.5t-115 22q-59 0 -113.5 -22.5t-96.5 -63.5t-67 -98t-25 -126q0 -66 24.5 -122t66 -96.5t96 -63t115.5 -22.5z" />
    <glyph glyph-name="uni0402" unicode="&#x402;" horiz-adv-x="638" 
d="M16 718h382v-67h-160v-234h65q60 0 117.5 -6t92.5 -27q42 -26 66 -74.5t24 -117.5q0 -100 -44 -154.5t-125 -54.5q-71 0 -119 48l45 50q32 -30 68 -30q48 0 74.5 37.5t26.5 103.5q0 55 -14.5 86t-41 46.5t-64 19t-84.5 3.5h-87v-347h-74v651h-148v67z" />
    <glyph glyph-name="uni0492" unicode="&#x492;" horiz-adv-x="457" 
d="M87 445v273h360v-70h-288v-203h165v-70h-165v-375h-72v375h-67v70h67z" />
    <glyph glyph-name="uni0496" unicode="&#x496;" horiz-adv-x="939" 
d="M847 0h-46l-322 356v-356h-68v356l-322 -356h-89l351 387l-318 331h88l290 -298v298h68v-298l290 298h88l-318 -331l290 -320h88v-194h-70v127z" />
    <glyph glyph-name="uni049A" unicode="&#x49a;" horiz-adv-x="617" 
d="M87 718h72v-298l290 298h88l-318 -331l290 -320h86v-194h-70v127h-44l-322 356v-356h-72v718z" />
    <glyph glyph-name="uni049C" unicode="&#x49c;" horiz-adv-x="570" 
d="M87 0v718h72v-302h47v160h55v-160h17l178 302h81l-194 -326l227 -392h-84l-203 351h-22v-188h-55v188h-47v-351h-72z" />
    <glyph glyph-name="uni04A2" unicode="&#x4a2;" horiz-adv-x="695" 
d="M87 718h72v-301h366v301h72v-651h76v-194h-70v127h-78v347h-366v-347h-72v718z" />
    <glyph glyph-name="uni04AE" unicode="&#x4ae;" horiz-adv-x="561" 
d="M15 718h83l184 -296l181 296h83l-228 -375v-343h-72v343z" />
    <glyph glyph-name="uni04B2" unicode="&#x4b2;" horiz-adv-x="624" 
d="M263 370l-213 348h84l172 -280l173 280h83l-214 -348l187 -303h67v-194h-70v127h-40l-186 301l-188 -301h-84z" />
    <glyph glyph-name="uni04B8" unicode="&#x4b8;" horiz-adv-x="559" 
d="M35 718h70v-157q0 -79 28.5 -116t96.5 -45v135h55v-137h115v320h72v-718h-72v328h-115v-156h-55v158q-104 9 -149.5 65t-45.5 163v160z" />
    <glyph glyph-name="uni04BA" unicode="&#x4ba;" horiz-adv-x="559" 
d="M87 718h72v-328h127q127 0 182.5 -56.5t55.5 -173.5v-160h-70v157q0 45 -9 76t-29 50.5t-52 28t-78 8.5h-127v-320h-72v718z" />
    <glyph glyph-name="uni04C0" unicode="&#x4c0;" horiz-adv-x="245" 
d="M87 718h72v-718h-72v718z" />
    <glyph glyph-name="uni04D8" unicode="&#x4d8;" horiz-adv-x="850" 
d="M56 366h663q-4 66 -26.5 121.5t-60.5 95t-89.5 61.5t-113.5 22q-52 0 -95 -13t-77.5 -37t-62.5 -57.5t-51 -74.5l-63 36q24 46 58.5 85.5t78 68.5t97 45.5t115.5 16.5q86 0 153.5 -30.5t114.5 -82.5t72 -119.5t25 -142.5q0 -76 -26 -145t-75 -121t-118 -82.5t-155 -30.5
q-75 0 -141 24t-115.5 70.5t-78.5 113.5t-29 153v23zM426 54q55 0 104 19t87.5 52t64 77t34.5 94h-583q6 -61 33 -106.5t67.5 -75.5t90.5 -45t102 -15z" />
    <glyph glyph-name="uni04E8" unicode="&#x4e8;" horiz-adv-x="869" 
d="M429 736q82 0 152 -29t121.5 -79.5t81 -119.5t29.5 -149q0 -79 -29 -148t-80 -120t-120 -80t-149 -29q-83 0 -152.5 30t-120 81.5t-78.5 119.5t-28 143q0 80 29 149.5t79.5 120.5t118.5 80.5t146 29.5zM433 52q59 0 112 20t93.5 56.5t66.5 87.5t32 112h-605
q5 -61 31.5 -111.5t67 -87t93 -57t109.5 -20.5zM134 398h602q-7 60 -34.5 109.5t-68.5 85t-92.5 54.5t-107.5 19q-55 0 -105.5 -19t-91 -54.5t-67.5 -85t-35 -109.5z" />
    <glyph glyph-name="uni0410.ss02" horiz-adv-x="695" 
d="M340 718h17l333 -718h-75l-129 276h-277l-129 -276h-75zM241 344h214l-107 229z" />
    <glyph glyph-name="uni0412.ss02" horiz-adv-x="538" 
d="M239 718q45 0 79 -13t56.5 -35.5t33.5 -52.5t11 -64q0 -36 -16 -67.5t-45 -49.5q78 -21 119 -77t41 -129q0 -46 -16 -87.5t-48.5 -73t-82.5 -50.5t-119 -19h-165v718h152zM159 387v-317h91q96 0 144.5 41t48.5 119q0 79 -54.5 118t-154.5 39h-75zM234 457q30 0 50.5 8
t34 21.5t19.5 30.5t6 36q0 18 -5.5 35t-17.5 30.5t-31.5 21.5t-47.5 8h-83v-191h75z" />
    <glyph glyph-name="uni0415.ss02" horiz-adv-x="535" 
d="M87 0v718h410v-70h-338v-185h338v-70h-338v-323h338v-70h-410z" />
    <glyph glyph-name="uni0400.ss02" horiz-adv-x="535" 
d="M87 718h410v-70h-338v-185h338v-70h-338v-323h338v-70h-410v718zM242 911l97 -129h-68l-134 129h105z" />
    <glyph glyph-name="uni0401.ss02" horiz-adv-x="535" 
d="M87 0v718h410v-70h-338v-185h338v-70h-338v-323h338v-70h-410zM385 886q20 0 34.5 -15t14.5 -35t-14.5 -34.5t-34.5 -14.5t-35 14.5t-15 34.5t15 35t35 15zM162 836q0 20 15 35t35 15t34.5 -15t14.5 -35t-14.5 -34.5t-34.5 -14.5t-35 14.5t-15 34.5z" />
    <glyph glyph-name="uni041A.ss02" horiz-adv-x="570" 
d="M87 0v718h72v-251l229 251h85l-170 -186l267 -532h-81l-237 477l-93 -103v-374h-72z" />
    <glyph glyph-name="uni040C.ss02" horiz-adv-x="570" 
d="M159 718v-251l229 251h85l-170 -186l267 -532h-81l-237 477l-93 -103v-374h-72v718h72zM351 911h105l-134 -129h-68z" />
    <glyph glyph-name="uni041D.ss02" horiz-adv-x="683" 
d="M87 0v718h72v-241h366v241h72v-718h-72v407h-366v-407h-72z" />
    <glyph glyph-name="uni0420.ss02" horiz-adv-x="537" 
d="M87 718h163q59 0 105.5 -9.5t79 -30t50 -53t17.5 -79.5t-17.5 -79.5t-50 -53t-79 -30t-105.5 -9.5h-91v-374h-72v718zM159 648v-204h91q90 0 133.5 21.5t43.5 80.5t-43.5 80.5t-133.5 21.5h-91z" />
    <glyph glyph-name="uni0410.ss03" horiz-adv-x="695" 
d="M340 718h17l333 -718h-75l-73 156h-389l-73 -156h-75zM185 224h326l-163 349z" />
    <glyph glyph-name="uni0415.ss03" horiz-adv-x="535" 
d="M87 0v718h410v-70h-338v-279h338v-70h-338v-229h338v-70h-410z" />
    <glyph glyph-name="uni0400.ss03" horiz-adv-x="535" 
d="M87 718h410v-70h-338v-279h338v-70h-338v-229h338v-70h-410v718zM242 911l97 -129h-68l-134 129h105z" />
    <glyph glyph-name="uni0401.ss03" horiz-adv-x="535" 
d="M87 0v718h410v-70h-338v-279h338v-70h-338v-229h338v-70h-410zM385 886q20 0 34.5 -15t14.5 -35t-14.5 -34.5t-34.5 -14.5t-35 14.5t-15 34.5t15 35t35 15zM162 836q0 20 15 35t35 15t34.5 -15t14.5 -35t-14.5 -34.5t-34.5 -14.5t-35 14.5t-15 34.5z" />
    <glyph glyph-name="uni041A.ss03" horiz-adv-x="570" 
d="M87 0v718h72v-393l299 393h85l-217 -286l244 -432h-83l-209 369l-119 -156v-213h-72z" />
    <glyph glyph-name="uni040C.ss03" horiz-adv-x="570" 
d="M159 718v-393l299 393h85l-217 -286l244 -432h-83l-209 369l-119 -156v-213h-72v718h72zM254 782l97 129h105l-134 -129h-68z" />
    <glyph glyph-name="uni041D.ss03" horiz-adv-x="683" 
d="M87 0v718h72v-392h366v392h72v-718h-72v256h-366v-256h-72z" />
    <glyph glyph-name="uni0420.ss03" horiz-adv-x="547" 
d="M87 718h123q68 0 124.5 -17t97 -49.5t63 -80.5t22.5 -111t-22.5 -111.5t-63 -81.5t-97 -50.5t-124.5 -17.5h-51v-199h-72v718zM159 648v-379h51q109 0 170.5 47.5t61.5 143.5t-61.5 142t-170.5 46h-51z" />
    <glyph glyph-name="uni0405.ss03" horiz-adv-x="487" 
d="M30 122l58 40q33 -56 75.5 -83t90.5 -27q54 0 83.5 31t29.5 79q0 23 -8 42.5t-24.5 39t-43 41t-63.5 47.5q-81 57 -120 110t-39 118q0 39 13.5 71t37 55.5t55.5 36.5t68 13q66 0 112 -34.5t76 -82.5l-58 -45q-27 38 -57 63t-75 25q-23 0 -41 -8.5t-30.5 -22.5t-19 -32.5
t-6.5 -38.5q0 -24 8.5 -45t25 -41.5t41 -41t57.5 -43.5q46 -33 78 -61t51.5 -54t28 -53t8.5 -59q0 -36 -12.5 -69t-36.5 -57.5t-59 -39t-80 -14.5q-74 0 -130.5 38t-93.5 102z" />
    <glyph glyph-name="uni0415.ss04" horiz-adv-x="512" 
d="M56 356q0 80 29 149.5t80 120.5t119.5 80.5t147.5 29.5v-70q-54 0 -104 -18.5t-90 -53t-67.5 -82.5t-35.5 -107h278v-70h-281q4 -62 29.5 -114t66 -89.5t93.5 -58.5t111 -21v-70q-82 0 -151 30t-119 81.5t-78 119.5t-28 143z" />
    <glyph glyph-name="uni0400.ss04" horiz-adv-x="512" 
d="M56 356q0 80 29 149.5t80 120.5t119.5 80.5t147.5 29.5v-70q-54 0 -104 -18.5t-90 -53t-67.5 -82.5t-35.5 -107h278v-70h-281q4 -62 29.5 -114t66 -89.5t93.5 -58.5t111 -21v-70q-82 0 -151 30t-119 81.5t-78 119.5t-28 143zM300 911l97 -129h-68l-134 129h105z" />
    <glyph glyph-name="uni0401.ss04" horiz-adv-x="512" 
d="M432 736v-70q-54 0 -104 -18.5t-90 -53t-67.5 -82.5t-35.5 -107h278v-70h-281q4 -62 29.5 -114t66 -89.5t93.5 -58.5t111 -21v-70q-82 0 -151 30t-119 81.5t-78 119.5t-28 143q0 80 29 149.5t80 120.5t119.5 80.5t147.5 29.5zM443 886q20 0 34.5 -15t14.5 -35
t-14.5 -34.5t-34.5 -14.5t-35 14.5t-15 34.5t15 35t35 15zM220 836q0 20 15 35t35 15t34.5 -15t14.5 -35t-14.5 -34.5t-34.5 -14.5t-35 14.5t-15 34.5z" />
    <glyph glyph-name="uni041A.ss04" horiz-adv-x="590" 
d="M87 0v718h72v-397l301 397h78v-5l-304 -401l334 -307v-5h-93l-316 293v-293h-72z" />
    <glyph glyph-name="uni040C.ss04" horiz-adv-x="590" 
d="M87 0v718h72v-397l301 397h78v-5l-304 -401l334 -307v-5h-93l-316 293v-293h-72zM254 782l97 129h105l-134 -129h-68z" />
    <glyph glyph-name="uni0405.ss04" horiz-adv-x="310" 
d="M160 718h86q-54 -53 -88 -102t-34 -101q0 -43 20 -77t49 -72q14 -18 27.5 -38t24.5 -41t18 -43.5t7 -45.5q0 -29 -8 -56.5t-21.5 -52t-31 -47t-36.5 -42.5h-93q53 47 84.5 98.5t31.5 90.5q0 22 -6 41t-16.5 37t-24 36.5t-28.5 38.5q-32 44 -51.5 82t-19.5 87
q0 32 9.5 60.5t25 54.5t35 49t40.5 43z" />
    <glyph glyph-name="uni0415.ss05" horiz-adv-x="329" 
d="M204 718h103q-90 -60 -144 -137t-64 -176h199v-70h-200q8 -101 63 -185t146 -150h-103q-33 26 -65.5 63.5t-58.5 84t-42 101t-16 115.5q0 62 16 116.5t42 99.5t58.5 80t65.5 58z" />
    <glyph glyph-name="uni0400.ss05" horiz-adv-x="329" 
d="M204 718h103q-90 -60 -144 -137t-64 -176h199v-70h-200q8 -101 63 -185t146 -150h-103q-33 26 -65.5 63.5t-58.5 84t-42 101t-16 115.5q0 62 16 116.5t42 99.5t58.5 80t65.5 58zM187 911l97 -129h-68l-134 129h105z" />
    <glyph glyph-name="uni0401.ss05" horiz-adv-x="329" 
d="M204 718h103q-90 -60 -144 -137t-64 -176h199v-70h-200q8 -101 63 -185t146 -150h-103q-33 26 -65.5 63.5t-58.5 84t-42 101t-16 115.5q0 62 16 116.5t42 99.5t58.5 80t65.5 58zM330 886q20 0 34.5 -15t14.5 -35t-14.5 -34.5t-34.5 -14.5t-35 14.5t-15 34.5t15 35t35 15z
M107 836q0 20 15 35t35 15t34.5 -15t14.5 -35t-14.5 -34.5t-34.5 -14.5t-35 14.5t-15 34.5z" />
    <glyph glyph-name="uni0405.ss05" horiz-adv-x="320" 
d="M145 718h85q-51 -47 -78.5 -91t-27.5 -89q0 -23 7.5 -43.5t19 -40t25.5 -37.5t26 -35q30 -41 49 -77.5t19 -85.5q0 -33 -11.5 -65t-28.5 -60.5t-38 -52.5t-40 -41h-85q23 23 46 49t41.5 54t30 57.5t11.5 58.5q0 39 -19.5 71.5t-48.5 70.5q-13 18 -27 38t-25.5 41.5
t-18.5 44.5t-7 47q0 54 26 100.5t69 85.5z" />
    <glyph glyph-name="uni0430" unicode="&#x430;" horiz-adv-x="684" 
d="M51 267q0 57 21 107.5t58 88.5t87 60t108 22q65 0 118.5 -27.5t93.5 -83.5v97h67v-531h-67v91q-44 -53 -97.5 -78.5t-116.5 -25.5q-58 0 -108 22.5t-86.5 61t-57 89t-20.5 107.5zM330 49q41 0 79 15t67.5 42.5t47.5 67.5t18 89q0 46 -16 85.5t-44.5 68.5t-67 45.5
t-83.5 16.5q-46 0 -84.5 -17.5t-66.5 -47t-43.5 -68t-15.5 -81.5t16 -82t44 -69t66 -47.5t83 -17.5z" />
    <glyph glyph-name="uni0431" unicode="&#x431;" horiz-adv-x="669" 
d="M162 674q29 21 61.5 33t67 18.5t69.5 8.5t68 3q68 2 103 5t53 6v-66q-24 -4 -65.5 -7t-101.5 -5q-43 -1 -75.5 -3.5t-57 -7.5t-44 -13t-37.5 -20q-35 -24 -60.5 -76.5t-31.5 -136.5l-3 -44q13 42 36.5 75t54.5 55.5t67.5 34t74.5 11.5q59 0 109.5 -22.5t88 -60.5
t58.5 -89.5t21 -108.5t-21 -107.5t-58 -88.5t-87.5 -60t-110.5 -22q-81 0 -136 32t-89.5 85t-49.5 121t-15 139q0 69 9 120t24 88t35 62t43 41zM341 51q45 0 83 16.5t65.5 45.5t43.5 67.5t16 82.5t-16.5 83t-45 68.5t-66.5 46.5t-80 17t-79.5 -17t-66 -46.5t-45 -68.5
t-16.5 -83t16 -82.5t43.5 -67.5t65.5 -45.5t82 -16.5z" />
    <glyph glyph-name="uni0432" unicode="&#x432;" horiz-adv-x="472" 
d="M232 531q44 0 75 -11t50.5 -29t29 -42.5t9.5 -51.5q0 -81 -73 -109q105 -36 105 -142q0 -41 -14.5 -69t-40 -45t-61.5 -24.5t-78 -7.5h-154v531h152zM149 246v-186h73q64 0 96 18t32 70q0 45 -27 71.5t-72 26.5h-102zM193 306q30 0 54 2t41 10t26.5 24t9.5 44
q0 29 -8.5 46t-25 25.5t-41 11t-56.5 2.5h-44v-165h44z" />
    <glyph glyph-name="uni0433" unicode="&#x433;" horiz-adv-x="365" 
d="M80 531h269v-62h-201v-469h-68v531z" />
    <glyph glyph-name="uni0453" unicode="&#x453;" horiz-adv-x="365" 
d="M270 759h105l-134 -129h-68zM80 531h269v-62h-201v-469h-68v531z" />
    <glyph glyph-name="uni0491" unicode="&#x491;" horiz-adv-x="365" 
d="M349 607v-138h-201v-469h-68v531h202v76h67z" />
    <glyph glyph-name="uni0434" unicode="&#x434;" horiz-adv-x="605" 
d="M15 -127v189h64l198 469h50l198 -469h64v-189h-65v127h-444v-127h-65zM457 62l-155 375l-155 -375h310z" />
    <glyph glyph-name="uni0435" unicode="&#x435;" horiz-adv-x="650" 
d="M51 264q0 54 19.5 105t55 90t86 62.5t112.5 23.5q59 0 109 -21t87 -58t58 -88.5t21 -112.5v-5h-478q2 -46 17.5 -84t42.5 -65.5t64.5 -42.5t82.5 -15q39 0 69 10t53.5 27.5t41 39.5t32.5 46l57 -30q-38 -74 -101.5 -116.5t-151.5 -42.5q-66 0 -118 22.5t-87 60.5
t-53.5 88.5t-18.5 105.5zM128 320h396q-21 83 -75.5 121t-123.5 38q-72 0 -123 -39t-74 -120z" />
    <glyph glyph-name="uni0450" unicode="&#x450;" horiz-adv-x="650" 
d="M51 264q0 54 19.5 105t55 90t86 62.5t112.5 23.5q59 0 109 -21t87 -58t58 -88.5t21 -112.5v-5h-478q2 -46 17.5 -84t42.5 -65.5t64.5 -42.5t82.5 -15q39 0 69 10t53.5 27.5t41 39.5t32.5 46l57 -30q-38 -74 -101.5 -116.5t-151.5 -42.5q-66 0 -118 22.5t-87 60.5
t-53.5 88.5t-18.5 105.5zM128 320h396q-21 83 -75.5 121t-123.5 38q-72 0 -123 -39t-74 -120zM266 759l97 -129h-68l-134 129h105z" />
    <glyph glyph-name="uni0451" unicode="&#x451;" horiz-adv-x="650" 
d="M51 264q0 54 19.5 105t55 90t86 62.5t112.5 23.5q59 0 109 -21t87 -58t58 -88.5t21 -112.5v-5h-478q2 -46 17.5 -84t42.5 -65.5t64.5 -42.5t82.5 -15q39 0 69 10t53.5 27.5t41 39.5t32.5 46l57 -30q-38 -74 -101.5 -116.5t-151.5 -42.5q-66 0 -118 22.5t-87 60.5
t-53.5 88.5t-18.5 105.5zM524 320q-21 83 -75.5 121t-123.5 38q-72 0 -123 -39t-74 -120h396zM355 684q0 20 15 35t35 15t34.5 -15t14.5 -35t-14.5 -34.5t-34.5 -14.5t-35 14.5t-15 34.5zM182 684q0 20 15 35t35 15t34.5 -15t14.5 -35t-14.5 -34.5t-34.5 -14.5t-35 14.5
t-15 34.5z" />
    <glyph glyph-name="uni0436" unicode="&#x436;" horiz-adv-x="748" 
d="M289 278l-278 253h94l235 -214v214h68v-214l235 214h94l-278 -253l295 -278h-90l-256 239v-239h-68v239l-256 -239h-90z" />
    <glyph glyph-name="uni0437" unicode="&#x437;" horiz-adv-x="411" 
d="M15 53l43 52q49 -52 126 -52q52 0 83 26t31 72q0 45 -30 71.5t-81 26.5h-48v64h48q41 0 66 24t25 60q0 34 -21.5 58.5t-69.5 24.5q-34 0 -62.5 -14.5t-51.5 -34.5l-40 51q29 26 69 44.5t88 18.5q74 0 116 -40t42 -102q0 -39 -19 -68.5t-51 -47.5q42 -16 66 -51.5
t24 -84.5q0 -33 -11.5 -62.5t-34 -52t-57 -36t-81.5 -13.5q-54 0 -96 17.5t-73 48.5z" />
    <glyph glyph-name="uni0438" unicode="&#x438;" horiz-adv-x="624" 
d="M148 531v-389l381 389h15v-531h-68v384l-381 -384h-15v531h68z" />
    <glyph glyph-name="uni0439" unicode="&#x439;" horiz-adv-x="624" 
d="M80 531h68v-389l381 389h15v-531h-68v384l-381 -384h-15v531zM154 745h64q14 -26 38 -41t56 -15t56 15t38 41h64q-6 -22 -19.5 -42t-33 -35.5t-46 -25t-59.5 -9.5t-59.5 9.5t-46 25t-33 35.5t-19.5 42z" />
    <glyph glyph-name="uni045D" unicode="&#x45d;" horiz-adv-x="624" 
d="M148 531v-389l381 389h15v-531h-68v384l-381 -384h-15v531h68zM155 759h105l97 -129h-68z" />
    <glyph glyph-name="uni043A" unicode="&#x43a;" horiz-adv-x="502" 
d="M77 0v531h68v-217l248 217h98l-291 -253l308 -278h-94l-269 241v-241h-68z" />
    <glyph glyph-name="uni045C" unicode="&#x45c;" horiz-adv-x="502" 
d="M77 0v531h68v-217l248 217h98l-291 -253l308 -278h-94l-269 241v-241h-68zM206 630l97 129h105l-134 -129h-68z" />
    <glyph glyph-name="uni043B" unicode="&#x43b;" horiz-adv-x="554" 
d="M265 531h24l237 -531h-73l-176 398l-178 -398h-73z" />
    <glyph glyph-name="uni043C" unicode="&#x43c;" horiz-adv-x="879" 
d="M26 0l182 531h18l214 -415l213 415h19l181 -531h-72l-131 391l-204 -391h-13l-204 391l-131 -391h-72z" />
    <glyph glyph-name="uni043D" unicode="&#x43d;" horiz-adv-x="606" 
d="M80 0v531h69v-215h309v215h68v-531h-68v254h-309v-254h-69z" />
    <glyph glyph-name="uni043E" unicode="&#x43e;" horiz-adv-x="655" 
d="M51 264q0 57 21 108t58 89.5t87.5 61t110.5 22.5t110.5 -22.5t87.5 -61t58 -89.5t21 -108t-21 -107.5t-57.5 -88.5t-87.5 -60t-111 -22t-111 22t-87.5 60t-57.5 88.5t-21 107.5zM121 263q0 -43 15.5 -81.5t43 -67.5t65.5 -45.5t83 -16.5t82.5 16.5t65.5 45.5t43.5 67.5
t15.5 81.5q0 44 -16.5 83.5t-44.5 69t-66 46.5t-80 17q-43 0 -80.5 -17t-65.5 -46.5t-44.5 -69t-16.5 -83.5z" />
    <glyph glyph-name="uni043F" unicode="&#x43f;" horiz-adv-x="606" 
d="M80 0v531h446v-531h-68v469h-309v-469h-69z" />
    <glyph glyph-name="uni0440" unicode="&#x440;" horiz-adv-x="684" 
d="M80 -194v725h68v-97q40 56 93.5 83.5t117.5 27.5q58 0 108.5 -22t87.5 -60t58 -88.5t21 -107.5t-20.5 -107.5t-57.5 -89t-86.5 -61t-108.5 -22.5q-127 0 -213 104v-285h-68zM354 49q44 0 82.5 17.5t67 47t44.5 69t16 82.5t-15.5 81.5t-43.5 68t-66.5 47t-84.5 17.5
q-45 0 -83.5 -16.5t-67 -45.5t-44.5 -68.5t-16 -85.5q0 -49 17.5 -89t47 -67.5t67.5 -42.5t79 -15z" />
    <glyph glyph-name="uni0441" unicode="&#x441;" horiz-adv-x="618" 
d="M51 266q0 60 21.5 111t59 88.5t89.5 58.5t113 21q77 0 139 -30.5t100 -84.5l-50 -43q-38 46 -84 69t-108 23q-45 0 -83.5 -16.5t-66.5 -45t-44 -67.5t-16 -84q0 -47 16 -86.5t44 -68t66.5 -44t84.5 -15.5q116 0 191 90l51 -40q-42 -54 -103 -85t-139 -31q-61 0 -113 21.5
t-89 59t-58 89t-21 110.5z" />
    <glyph glyph-name="uni0442" unicode="&#x442;" horiz-adv-x="359" 
d="M5 531h349v-62h-140v-469h-69v469h-140v62z" />
    <glyph glyph-name="uni0443" unicode="&#x443;" horiz-adv-x="536" 
d="M89 531l184 -417l180 417h71l-317 -725h-72l103 230l-219 495h70z" />
    <glyph glyph-name="uni045E" unicode="&#x45e;" horiz-adv-x="536" 
d="M89 531l184 -417l180 417h71l-317 -725h-72l103 230l-219 495h70zM180 745q14 -26 38 -41t56 -15t56 15t38 41h64q-6 -22 -19.5 -42t-33 -35.5t-46 -25t-59.5 -9.5t-59.5 9.5t-46 25t-33 35.5t-19.5 42h64z" />
    <glyph glyph-name="uni0444" unicode="&#x444;" horiz-adv-x="1082" 
d="M323 542q123 0 184 -91v285h68v-285q64 91 184 91q58 0 108 -20.5t86.5 -58t57.5 -88.5t21 -113q0 -61 -21 -112t-58 -88t-86 -57.5t-106 -20.5q-123 0 -186 96v-274h-68v274q-61 -97 -187 -97q-55 0 -104 20.5t-86 57.5t-58 88.5t-21 112.5q0 62 21 113t57.5 88.5
t86.5 58t107 20.5zM331 49q83 0 131 57.5t48 160.5q0 51 -14.5 91t-39.5 67t-58.5 41t-71.5 14q-42 0 -79.5 -16t-65.5 -45t-44.5 -68t-16.5 -86q0 -45 15 -84t42.5 -68.5t66.5 -46.5t87 -17zM752 49q48 0 87 17t66.5 46.5t42.5 69t15 84.5q0 46 -16.5 85.5t-44.5 68
t-66 44.5t-80 16q-38 0 -71.5 -13.5t-58 -41t-39 -70.5t-14.5 -102q0 -48 15 -85.5t39.5 -64t57 -40.5t67.5 -14z" />
    <glyph glyph-name="uni0445" unicode="&#x445;" horiz-adv-x="480" 
d="M-4 0l201 279l-182 252h82l141 -196l141 196h81l-181 -252l204 -279h-83l-162 223l-160 -223h-82z" />
    <glyph glyph-name="uni0447" unicode="&#x447;" horiz-adv-x="461" 
d="M100 531v-96q0 -46 6.5 -73t20 -41t35 -17.5t51.5 -3.5h100v231h68v-531h-68v238h-120q-82 0 -121 42.5t-39 117.5v133h67z" />
    <glyph glyph-name="uni0446" unicode="&#x446;" horiz-adv-x="627" 
d="M70 531h69v-469h309v469h68v-469h95v-189h-65v127h-476v531z" />
    <glyph glyph-name="uni0448" unicode="&#x448;" horiz-adv-x="954" 
d="M80 0v531h69v-469h293v469h69v-469h293v469h70v-531h-794z" />
    <glyph glyph-name="uni0449" unicode="&#x449;" horiz-adv-x="1005" 
d="M80 531h69v-469h293v469h69v-469h293v469h70v-467h115v-191h-65v127h-844v531z" />
    <glyph glyph-name="uni045F" unicode="&#x45f;" horiz-adv-x="606" 
d="M149 531v-469h308v469h69v-531h-191v-127h-65v127h-190v531h69z" />
    <glyph glyph-name="uni044F" unicode="&#x44f;" horiz-adv-x="449" 
d="M184 242q-63 10 -97.5 46.5t-34.5 95.5q0 34 12.5 61.5t34 46.5t52 29t66.5 10h152v-531h-69v238h-49l-151 -238h-74zM119 383q0 -43 29 -64t97 -21h55v173h-65q-59 0 -87.5 -19.5t-28.5 -68.5z" />
    <glyph glyph-name="uni044C" unicode="&#x44c;" horiz-adv-x="475" 
d="M148 531v-206h82q44 0 82.5 -8t67 -27t45.5 -50.5t17 -78.5q0 -38 -13.5 -68t-38.5 -50.5t-58.5 -31.5t-74.5 -11h-177v531h68zM150 263v-201h79q30 0 55.5 4.5t44 15.5t29 29.5t10.5 45.5q0 35 -12 56t-33 32t-50 14.5t-64 3.5h-59z" />
    <glyph glyph-name="uni044A" unicode="&#x44a;" horiz-adv-x="520" 
d="M27 469v62h166v-206h82q44 0 82.5 -8t67 -27t45.5 -50.5t17 -78.5q0 -38 -13.5 -68t-38.5 -50.5t-58.5 -31.5t-74.5 -11h-177v469h-98zM195 263v-201h79q30 0 55.5 4.5t44 15.5t29 29.5t10.5 45.5q0 35 -12 56t-33 32t-50 14.5t-64 3.5h-59z" />
    <glyph glyph-name="uni044B" unicode="&#x44b;" horiz-adv-x="681" 
d="M80 531h68v-206h82q44 0 82.5 -8t67 -27t45.5 -50.5t17 -78.5q0 -38 -13.5 -68t-38.5 -50.5t-58.5 -31.5t-74.5 -11h-177v531zM150 263v-201h79q30 0 55.5 4.5t44 15.5t29 29.5t10.5 45.5q0 35 -12 56t-33 32t-50 14.5t-64 3.5h-59zM597 531v-531h-68v531h68z" />
    <glyph glyph-name="uni0459" unicode="&#x459;" horiz-adv-x="793" 
d="M25 0l237 531h24l94 -206h168q44 0 82.5 -8t67 -27t45.5 -50.5t17 -78.5q0 -38 -13.5 -68t-38.5 -50.5t-58.5 -31.5t-74.5 -11h-123l-178 398l-176 -398h-73zM407 263l90 -201h50q30 0 55.5 4.5t44 15.5t29 29.5t10.5 45.5q0 35 -12 56t-33 32t-50 14.5t-64 3.5h-120z
" />
    <glyph glyph-name="uni045A" unicode="&#x45a;" horiz-adv-x="850" 
d="M80 531h69v-215h309v215h68v-215h70q47 0 87.5 -7.5t70 -26t46.5 -48.5t17 -75q0 -76 -53 -117.5t-142 -41.5h-164v254h-309v-254h-69v531zM526 60h88q66 0 97.5 23.5t31.5 74.5q0 52 -32.5 75t-114.5 23h-70v-196z" />
    <glyph glyph-name="uni0455" unicode="&#x455;" horiz-adv-x="388" 
d="M34 62l43 49q26 -29 53.5 -44t57.5 -15q20 0 37.5 6.5t31 18.5t21.5 28t8 35q0 28 -14 46.5t-43 34.5q-36 20 -67.5 38t-54.5 38.5t-36 46.5t-13 60q0 32 11.5 57.5t31 44.5t46.5 29t57 10q44 0 78.5 -19.5t68.5 -52.5l-44 -45q-24 23 -49.5 37t-57.5 14
q-33 0 -56.5 -20.5t-23.5 -50.5q0 -29 16.5 -48.5t48.5 -36.5q40 -22 71 -40.5t52 -38.5t32 -44t11 -57q0 -31 -11.5 -59.5t-32.5 -50t-50.5 -34.5t-65.5 -13q-45 0 -86.5 19.5t-70.5 56.5z" />
    <glyph glyph-name="uni0454" unicode="&#x454;" horiz-adv-x="636" 
d="M51 261q0 59 22 110.5t61 90t93.5 61t120.5 22.5q77 0 142 -31t102 -93l-55 -34q-70 92 -192 92q-45 0 -82 -13.5t-65.5 -37t-47 -55t-25.5 -67.5h252v-60h-255q3 -40 20.5 -76t46.5 -63t69 -42.5t88 -15.5q116 0 191 93l55 -35q-39 -60 -103.5 -90t-145.5 -30
q-66 0 -119.5 22t-92 59.5t-59.5 87.5t-21 105z" />
    <glyph glyph-name="uni044D" unicode="&#x44d;" horiz-adv-x="636" 
d="M288 545q66 0 120.5 -22.5t93.5 -61t61 -90t22 -110.5q0 -55 -21 -105t-59.5 -87.5t-92 -59.5t-119.5 -22q-81 0 -145.5 30t-103.5 90l55 35q75 -93 191 -93q48 0 88 15.5t69 42.5t46.5 63t20.5 76h-255v60h252q-7 36 -25.5 67.5t-47 55t-65.5 37t-82 13.5
q-122 0 -192 -92l-55 34q37 62 102 93t142 31z" />
    <glyph glyph-name="uni0456" unicode="&#x456;" horiz-adv-x="221" 
d="M77 0v531h68v-531h-68zM54 694q0 24 16.5 40t39.5 16t40 -16.5t17 -39.5t-17 -40t-40 -17t-39.5 17t-16.5 40z" />
    <glyph glyph-name="uni0457" unicode="&#x457;" horiz-adv-x="176" 
d="M54 531h68v-531h-68v531zM164 734q20 0 34.5 -15t14.5 -35t-14.5 -34.5t-34.5 -14.5t-35 14.5t-15 34.5t15 35t35 15zM-39 684q0 20 15 35t35 15t34.5 -15t14.5 -35t-14.5 -34.5t-34.5 -14.5t-35 14.5t-15 34.5z" />
    <glyph glyph-name="uni0458" unicode="&#x458;" horiz-adv-x="244" 
d="M0 -189v62q9 -7 21 -11.5t28 -4.5q24 0 37.5 15.5t13.5 47.5v611h68v-611q0 -129 -91 -129q-23 0 -42 6t-35 14zM77 694q0 23 16.5 39.5t39.5 16.5t40 -16.5t17 -39.5t-17 -40t-40 -17t-39.5 17t-16.5 40z" />
    <glyph glyph-name="uni045B" unicode="&#x45b;" horiz-adv-x="610" 
d="M80 662v74h68v-74h179v-57h-179v-169q83 109 199 109q43 0 79 -15t62 -45t40.5 -75t14.5 -105v-305h-68v289q0 94 -32 144t-109 50q-41 0 -75.5 -17t-59 -47t-38 -72t-13.5 -93v-254h-68v605h-78v57h78z" />
    <glyph glyph-name="uni044E" unicode="&#x44e;" horiz-adv-x="839" 
d="M149 531v-226h89q7 50 30.5 93.5t59.5 76t83 51.5t101 19q60 0 110.5 -22.5t87.5 -61t58 -89.5t21 -108t-21 -107.5t-57.5 -88.5t-87.5 -60t-111 -22q-57 0 -106 20.5t-86 55.5t-59 82t-25 101h-87v-245h-69v531h69zM512 52q45 0 82.5 16.5t65.5 45.5t43.5 67.5
t15.5 81.5q0 44 -16.5 83.5t-44.5 69t-66 46.5t-80 17q-43 0 -80.5 -17t-65.5 -46.5t-44.5 -69t-16.5 -83.5q0 -43 15.5 -81.5t43 -67.5t65.5 -45.5t83 -16.5z" />
    <glyph glyph-name="uni0452" unicode="&#x452;" horiz-adv-x="613" 
d="M80 662v74h68v-74h179v-57h-179v-169q83 109 199 109q43 0 79 -15t62 -45t40.5 -75t14.5 -105v-385q0 -129 -91 -129q-23 0 -42 5.5t-35 11.5v62q9 -5 21 -9t28 -4q24 0 37.5 15.5t13.5 47.5v369q0 94 -32 144t-109 50q-41 0 -75.5 -17t-59 -47t-38 -72t-13.5 -93v-254
h-68v605h-78v57h78z" />
    <glyph glyph-name="uni0493" unicode="&#x493;" horiz-adv-x="424" 
d="M90 298v233h319v-62h-251v-171h174v-62h-174v-236h-68v236h-70v62h70z" />
    <glyph glyph-name="uni0497" unicode="&#x497;" horiz-adv-x="750" 
d="M-6 0l295 278l-278 253h94l235 -214v214h68v-214l235 214h94l-278 -253l227 -214h70v-191h-65v127h-27l-256 239v-239h-68v239l-256 -239h-90z" />
    <glyph glyph-name="uni049B" unicode="&#x49b;" horiz-adv-x="505" 
d="M80 531h68v-217l248 217h98l-291 -253l237 -214h71v-191h-65v127h-29l-269 241v-241h-68v531z" />
    <glyph glyph-name="uni049D" unicode="&#x49d;" horiz-adv-x="505" 
d="M80 0v531h68v-224h49v106h45v-106h33l150 224h79l-172 -253l179 -278h-79l-160 252h-30v-111h-45v111h-49v-252h-68z" />
    <glyph glyph-name="uni04A3" unicode="&#x4a3;" horiz-adv-x="613" 
d="M80 531h69v-213h309v213h68v-467h72v-191h-65v127h-75v256h-309v-256h-69v531z" />
    <glyph glyph-name="uni04AF" unicode="&#x4af;" horiz-adv-x="554" 
d="M99 531l156 -355q8 -17 13 -30.5t9 -26.5l10 26t13 31l153 355h73l-216 -484v-241h-68v245l-216 480h73z" />
    <glyph glyph-name="uni04B3" unicode="&#x4b3;" horiz-adv-x="500" 
d="M197 279l-182 252h82l141 -196l141 196h81l-181 -252l157 -215h67v-191h-65v127h-38l-162 223l-160 -223h-82z" />
    <glyph glyph-name="uni04B9" unicode="&#x4b9;" horiz-adv-x="461" 
d="M33 531h67v-96q0 -41 5 -67t15.5 -41t27 -21t40.5 -7v104h45v-105h80v233h68v-531h-68v238h-80v-107h-45v107q-80 2 -117.5 44.5t-37.5 115.5v133z" />
    <glyph glyph-name="uni04BB" unicode="&#x4bb;" horiz-adv-x="613" 
d="M80 0v736h68v-300q83 109 199 109q43 0 79 -15t62 -45t40.5 -75t14.5 -105v-305h-68v289q0 94 -32 144t-109 50q-41 0 -75.5 -17t-59 -47t-38 -72t-13.5 -93v-254h-68z" />
    <glyph glyph-name="uni04CF" unicode="&#x4cf;" horiz-adv-x="200" 
d="M134 736v-736h-68v736h68z" />
    <glyph glyph-name="uni04D9" unicode="&#x4d9;" horiz-adv-x="650" 
d="M51 266v5h478q-1 46 -17 84t-43 65.5t-64.5 42.5t-82.5 15q-39 0 -69 -10t-53.5 -27.5t-41 -39.5t-32.5 -46l-57 30q38 74 101.5 116.5t151.5 42.5q66 0 118 -22.5t87 -60.5t53.5 -88t18.5 -106q0 -54 -19.5 -105t-55 -90t-86 -62.5t-112.5 -23.5q-58 0 -108.5 21
t-87.5 58t-58 88.5t-21 112.5zM325 52q72 0 123 39t74 120h-396q21 -83 75.5 -121t123.5 -38z" />
    <glyph glyph-name="uni04E9" unicode="&#x4e9;" horiz-adv-x="655" 
d="M328 545q60 0 110.5 -22.5t87.5 -61t58 -89.5t21 -108t-21 -107.5t-57.5 -88.5t-87.5 -60t-111 -22t-111 22t-87.5 60t-57.5 88.5t-21 107.5t21 108t58 89.5t87.5 61t110.5 22.5zM328 52q42 0 78.5 15t64 41t44 61.5t19.5 75.5h-412q3 -40 19.5 -75.5t43.5 -61.5
t63.5 -41t79.5 -15zM125 307h406q-7 36 -26 67.5t-46 55t-60.5 36.5t-70.5 13t-70.5 -13t-60.5 -36.5t-45.5 -55t-26.5 -67.5z" />
    <glyph glyph-name="Alpha" unicode="&#x391;" horiz-adv-x="695" 
d="M340 718h17l333 -718h-75l-110 236h-315l-110 -236h-75zM222 304h251l-125 269z" />
    <glyph glyph-name="Beta" unicode="&#x392;" horiz-adv-x="572" 
d="M87 718h152q57 0 98.5 -13t68.5 -36.5t40 -55.5t13 -70q0 -48 -22.5 -86.5t-69.5 -64.5q151 -51 151 -186q0 -40 -15.5 -77.5t-45 -66t-73 -45.5t-100.5 -17h-197v718zM159 347v-277h111q46 0 78.5 11.5t53.5 30t31 43t10 50.5q0 68 -54.5 105t-154.5 37h-75zM159 648
v-231h48q80 0 128.5 29t48.5 97q0 48 -34 76.5t-97 28.5h-94z" />
    <glyph glyph-name="Gamma" unicode="&#x393;" horiz-adv-x="463" 
d="M87 718h360v-70h-288v-648h-72v718z" />
    <glyph glyph-name="uni0394" unicode="&#x394;" horiz-adv-x="610" 
d="M266 700h80l241 -665v-35h-565v35zM507 58l-186 517q-12 34 -16 55h-3q-2 -11 -6 -25.5t-9 -28.5l-187 -518h407z" />
    <glyph glyph-name="uni2206" unicode="&#x2206;" horiz-adv-x="610" 
d="M267 700h80l241 -665v-35h-565v35zM509 58l-186 517q-12 34 -16 55h-3q-3 -16 -7 -29.5t-8 -24.5l-187 -518h407z" />
    <glyph glyph-name="Epsilon" unicode="&#x395;" horiz-adv-x="535" 
d="M87 0v718h410v-69h-338v-227h338v-68h-338v-284h338v-70h-410z" />
    <glyph glyph-name="Zeta" unicode="&#x396;" horiz-adv-x="480" 
d="M329 648h-270v70h379l-300 -648h285v-70h-396z" />
    <glyph glyph-name="Eta" unicode="&#x397;" horiz-adv-x="683" 
d="M87 0v718h72v-301h366v301h72v-718h-72v347h-366v-347h-72z" />
    <glyph glyph-name="Theta" unicode="&#x398;" horiz-adv-x="869" 
d="M56 356q0 80 29 149.5t79.5 120.5t118.5 80.5t146 29.5q82 0 152 -29t121.5 -79.5t81 -119.5t29.5 -149q0 -79 -29 -148t-80 -120t-120 -80t-149 -29q-83 0 -152.5 30t-120 81.5t-78.5 119.5t-28 143zM433 52q63 0 118.5 23t97 63.5t65.5 97.5t24 124q0 68 -25.5 124.5
t-67.5 97t-97 62.5t-115 22q-59 0 -113.5 -22.5t-96.5 -63.5t-67 -98t-25 -126q0 -66 24.5 -122t66 -96.5t96 -63t115.5 -22.5zM235 328v70h400v-70h-400z" />
    <glyph glyph-name="Iota" unicode="&#x399;" horiz-adv-x="245" 
d="M87 718h72v-718h-72v718z" />
    <glyph glyph-name="Kappa" unicode="&#x39a;" horiz-adv-x="570" 
d="M87 0v718h72v-298l290 298h88l-318 -331l351 -387h-89l-322 356v-356h-72z" />
    <glyph glyph-name="Lambda" unicode="&#x39b;" horiz-adv-x="646" 
d="M5 0l308 718h16l312 -718h-78l-242 555l-238 -555h-78z" />
    <glyph glyph-name="Mu" unicode="&#x39c;" horiz-adv-x="919" 
d="M157 718h12l292 -589l289 589h12l102 -718h-70l-66 488q-1 7 -2 13t-2 13l-254 -514h-18l-245 490q-3 7 -6.5 13.5t-6.5 13.5q-1 -8 -2 -15t-2 -15l-65 -487h-70z" />
    <glyph glyph-name="Nu" unicode="&#x39d;" horiz-adv-x="736" 
d="M87 0v718h15l476 -550v550h72v-718h-16l-475 543v-543h-72z" />
    <glyph glyph-name="Xi" unicode="&#x39e;" horiz-adv-x="515" 
d="M48 718h419v-70h-419v70zM78 423h359v-70h-359v70zM38 71h439v-71h-439v71z" />
    <glyph glyph-name="Omicron" unicode="&#x39f;" horiz-adv-x="869" 
d="M56 356q0 80 29 149.5t79.5 120.5t118.5 80.5t146 29.5q82 0 152 -29t121.5 -79.5t81 -119.5t29.5 -149q0 -79 -29 -148t-80 -120t-120 -80t-149 -29q-83 0 -152.5 30t-120 81.5t-78.5 119.5t-28 143zM131 356q0 -66 24.5 -122t66 -96.5t96 -63t115.5 -22.5
q63 0 118.5 23t97 63.5t65.5 97.5t24 124q0 68 -25.5 124.5t-67.5 97t-97 62.5t-115 22q-59 0 -113.5 -22.5t-96.5 -63.5t-67 -98t-25 -126z" />
    <glyph glyph-name="Pi" unicode="&#x3a0;" horiz-adv-x="683" 
d="M87 0v718h510v-718h-72v648h-365v-648h-73z" />
    <glyph glyph-name="Rho" unicode="&#x3a1;" horiz-adv-x="567" 
d="M87 718h194q53 0 99.5 -8.5t81.5 -30t55 -58.5t20 -94q0 -59 -21.5 -96.5t-58 -59t-84 -29.5t-98.5 -8h-116v-334h-72v718zM159 648v-244h119q40 0 74 5t58.5 19t38 38t13.5 61t-13.5 60.5t-37.5 37t-56 18.5t-69 5h-127z" />
    <glyph glyph-name="Sigma" unicode="&#x3a3;" horiz-adv-x="486" 
d="M36 708v10h407v-70h-293l161 -290l-162 -288h302v-70h-415v10l195 348z" />
    <glyph glyph-name="Tau" unicode="&#x3a4;" horiz-adv-x="426" 
d="M16 718h394v-70h-160v-648h-72v648h-162v70z" />
    <glyph glyph-name="Upsilon" unicode="&#x3a5;" horiz-adv-x="561" 
d="M15 718h83l184 -296l181 296h83l-228 -375v-343h-72v343z" />
    <glyph glyph-name="Phi" unicode="&#x3a6;" horiz-adv-x="859" 
d="M394 657v61h72v-61q79 -6 143 -28t109 -59.5t69 -89.5t24 -116q0 -63 -24.5 -115t-70 -90t-109 -60.5t-141.5 -27.5v-71h-72v71q-78 5 -141.5 27.5t-109 60.5t-70 90t-24.5 115q0 64 24 116t69 89.5t109 59.5t143 28zM466 138q58 3 107.5 18t85.5 42.5t56.5 68.5t20.5 97
q0 100 -71 159t-199 67v-452zM124 364q0 -56 20.5 -97t56.5 -68.5t85.5 -42.5t107.5 -18v452q-128 -8 -199 -67t-71 -159z" />
    <glyph glyph-name="Chi" unicode="&#x3a7;" horiz-adv-x="609" 
d="M263 370l-213 348h84l172 -280l173 280h83l-214 -348l228 -370h-84l-186 301l-188 -301h-84z" />
    <glyph glyph-name="Psi" unicode="&#x3a8;" horiz-adv-x="791" 
d="M142 718v-254q0 -59 13 -100.5t39.5 -68.5t67.5 -40.5t97 -16.5v480h72v-480q57 2 98 15.5t67.5 40.5t39.5 69t13 101v254h72v-267q0 -137 -73.5 -207t-216.5 -76v-168h-72v168q-143 6 -216 76t-73 207v267h72z" />
    <glyph glyph-name="uni03A9" unicode="&#x3a9;" horiz-adv-x="726" 
d="M55 402q0 76 22.5 138t63 105.5t97.5 67t125 23.5t125 -23.5t97.5 -67t63 -105.5t22.5 -138q0 -54 -11.5 -102.5t-30.5 -90.5t-42 -77.5t-46 -64.5h129v-67h-225v57q24 26 51 62.5t49 81t36.5 95.5t14.5 106q0 127 -63 195.5t-170 68.5t-170 -68.5t-63 -195.5
q0 -55 14.5 -106t36.5 -95.5t49 -81t51 -62.5v-57h-225v67h129q-23 29 -46 64.5t-42 77.5t-30.5 90.5t-11.5 102.5z" />
    <glyph glyph-name="uni2126" unicode="&#x2126;" horiz-adv-x="726" 
d="M55 402q0 76 22.5 138t63 105.5t97.5 67t125 23.5t125 -23.5t97.5 -67t63 -105.5t22.5 -138q0 -54 -11.5 -102.5t-30.5 -90.5t-42 -77.5t-46 -64.5h129v-67h-225v57q24 26 51 62.5t49 81t36.5 95.5t14.5 106q0 127 -63 195.5t-170 68.5t-170 -68.5t-63 -195.5
q0 -55 14.5 -106t36.5 -95.5t49 -81t51 -62.5v-57h-225v67h129q-23 29 -46 64.5t-42 77.5t-30.5 90.5t-11.5 102.5z" />
    <glyph glyph-name="Alphatonos" unicode="&#x386;" horiz-adv-x="695" 
d="M340 718h17l333 -718h-75l-110 236h-315l-110 -236h-75zM222 304h251l-125 269zM112 718h85l-63 -165h-58z" />
    <glyph glyph-name="Epsilontonos" unicode="&#x388;" horiz-adv-x="598" 
d="M150 0v718h410v-69h-338v-227h338v-68h-338v-284h338v-70h-410zM-25 553l36 165h85l-63 -165h-58z" />
    <glyph glyph-name="Etatonos" unicode="&#x389;" horiz-adv-x="747" 
d="M151 0v718h72v-301h366v301h72v-718h-72v347h-366v-347h-72zM-25 553l36 165h85l-63 -165h-58z" />
    <glyph glyph-name="Iotatonos" unicode="&#x38a;" horiz-adv-x="308" 
d="M222 718v-718h-72v718h72zM-25 553l36 165h85l-63 -165h-58z" />
    <glyph glyph-name="Omicrontonos" unicode="&#x38c;" horiz-adv-x="869" 
d="M56 356q0 80 29 149.5t79.5 120.5t118.5 80.5t146 29.5q82 0 152 -29t121.5 -79.5t81 -119.5t29.5 -149q0 -79 -29 -148t-80 -120t-120 -80t-149 -29q-83 0 -152.5 30t-120 81.5t-78.5 119.5t-28 143zM433 52q63 0 118.5 23t97 63.5t65.5 97.5t24 124q0 68 -25.5 124.5
t-67.5 97t-97 62.5t-115 22q-59 0 -113.5 -22.5t-96.5 -63.5t-67 -98t-25 -126q0 -66 24.5 -122t66 -96.5t96 -63t115.5 -22.5zM9 718h85l-63 -165h-58z" />
    <glyph glyph-name="Upsilontonos" unicode="&#x38e;" horiz-adv-x="655" 
d="M192 718l184 -296l181 296h83l-228 -375v-343h-72v343l-231 375h83zM-25 553l36 165h85l-63 -165h-58z" />
    <glyph glyph-name="Omegatonos" unicode="&#x38f;" horiz-adv-x="744" 
d="M363 736q68 0 125 -23.5t97.5 -67t63 -105.5t22.5 -138q0 -54 -11.5 -102.5t-30.5 -90.5t-42 -77.5t-46 -64.5h129v-67h-225v57q24 26 51 62.5t49 81t36.5 95.5t14.5 106q0 127 -63 195.5t-170 68.5t-170 -68.5t-63 -195.5q0 -55 14.5 -106t36.5 -95.5t49 -81t51 -62.5
v-57h-225v67h129q-23 29 -46 64.5t-42 77.5t-30.5 90.5t-11.5 102.5q0 76 22.5 138t63 105.5t97.5 67t125 23.5zM11 718h85l-63 -165h-58z" />
    <glyph glyph-name="Iotadieresis" unicode="&#x3aa;" horiz-adv-x="245" 
d="M87 0v718h72v-718h-72zM210 886q20 0 34.5 -15t14.5 -35t-14.5 -34.5t-34.5 -14.5t-35 14.5t-15 34.5t15 35t35 15zM-13 836q0 20 15 35t35 15t34.5 -15t14.5 -35t-14.5 -34.5t-34.5 -14.5t-35 14.5t-15 34.5z" />
    <glyph glyph-name="Upsilondieresis" unicode="&#x3ab;" horiz-adv-x="561" 
d="M15 718h83l184 -296l181 296h83l-228 -375v-343h-72v343zM318 832q0 20 15 35t35 15t34.5 -15t14.5 -35t-14.5 -34.5t-34.5 -14.5t-35 14.5t-15 34.5zM145 832q0 20 15 35t35 15t34.5 -15t14.5 -35t-14.5 -34.5t-34.5 -14.5t-35 14.5t-15 34.5z" />
    <glyph glyph-name="Alpha.ss02" horiz-adv-x="695" 
d="M340 718h17l333 -718h-75l-129 276h-277l-129 -276h-75zM241 344h214l-107 229z" />
    <glyph glyph-name="Beta.ss02" horiz-adv-x="538" 
d="M239 718q45 0 79 -13t56.5 -35.5t33.5 -52.5t11 -64q0 -36 -16 -67.5t-45 -49.5q78 -21 119 -77t41 -129q0 -46 -16 -87.5t-48.5 -73t-82.5 -50.5t-119 -19h-165v718h152zM159 387v-317h91q96 0 144.5 41t48.5 119q0 79 -54.5 118t-154.5 39h-75zM234 457q30 0 50.5 8
t34 21.5t19.5 30.5t6 36q0 18 -5.5 35t-17.5 30.5t-31.5 21.5t-47.5 8h-83v-191h75z" />
    <glyph glyph-name="Epsilon.ss02" horiz-adv-x="535" 
d="M87 0v718h410v-70h-338v-185h338v-70h-338v-323h338v-70h-410z" />
    <glyph glyph-name="Eta.ss02" horiz-adv-x="683" 
d="M87 0v718h72v-241h366v241h72v-718h-72v407h-366v-407h-72z" />
    <glyph glyph-name="Kappa.ss02" horiz-adv-x="570" 
d="M87 0v718h72v-251l229 251h85l-170 -186l267 -532h-81l-237 477l-93 -103v-374h-72z" />
    <glyph glyph-name="Rho.ss02" horiz-adv-x="537" 
d="M87 718h163q59 0 105.5 -9.5t79 -30t50 -53t17.5 -79.5t-17.5 -79.5t-50 -53t-79 -30t-105.5 -9.5h-91v-374h-72v718zM159 648v-204h91q90 0 133.5 21.5t43.5 80.5t-43.5 80.5t-133.5 21.5h-91z" />
    <glyph glyph-name="Alpha.ss03" horiz-adv-x="695" 
d="M340 718h17l333 -718h-75l-73 156h-389l-73 -156h-75zM185 224h326l-163 349z" />
    <glyph glyph-name="Epsilon.ss03" horiz-adv-x="535" 
d="M87 0v718h410v-70h-338v-279h338v-70h-338v-229h338v-70h-410z" />
    <glyph glyph-name="Eta.ss03" horiz-adv-x="683" 
d="M87 0v718h72v-392h366v392h72v-718h-72v256h-366v-256h-72z" />
    <glyph glyph-name="Kappa.ss03" horiz-adv-x="570" 
d="M87 0v718h72v-393l299 393h85l-217 -286l244 -432h-83l-209 369l-119 -156v-213h-72z" />
    <glyph glyph-name="Rho.ss03" horiz-adv-x="547" 
d="M87 718h123q68 0 124.5 -17t97 -49.5t63 -80.5t22.5 -111t-22.5 -111.5t-63 -81.5t-97 -50.5t-124.5 -17.5h-51v-199h-72v718zM159 648v-379h51q109 0 170.5 47.5t61.5 143.5t-61.5 142t-170.5 46h-51z" />
    <glyph glyph-name="Epsilon.ss04" horiz-adv-x="512" 
d="M56 356q0 80 29 149.5t80 120.5t119.5 80.5t147.5 29.5v-70q-54 0 -104 -18.5t-90 -53t-67.5 -82.5t-35.5 -107h278v-70h-281q4 -62 29.5 -114t66 -89.5t93.5 -58.5t111 -21v-70q-82 0 -151 30t-119 81.5t-78 119.5t-28 143z" />
    <glyph glyph-name="Kappa.ss04" horiz-adv-x="590" 
d="M87 0v718h72v-397l301 397h78v-5l-304 -401l334 -307v-5h-93l-316 293v-293h-72z" />
    <glyph glyph-name="Epsilon.ss05" horiz-adv-x="329" 
d="M204 718h103q-90 -60 -144 -137t-64 -176h199v-70h-200q8 -101 63 -185t146 -150h-103q-33 26 -65.5 63.5t-58.5 84t-42 101t-16 115.5q0 62 16 116.5t42 99.5t58.5 80t65.5 58z" />
    <glyph glyph-name="alpha" unicode="&#x3b1;" horiz-adv-x="684" 
d="M51 267q0 57 21 107.5t58 88.5t87 60t108 22q65 0 118.5 -27.5t93.5 -83.5v97h67v-531h-67v91q-44 -53 -97.5 -78.5t-116.5 -25.5q-58 0 -108 22.5t-86.5 61t-57 89t-20.5 107.5zM330 49q41 0 79 15t67.5 42.5t47.5 67.5t18 89q0 46 -16 85.5t-44.5 68.5t-67 45.5
t-83.5 16.5q-46 0 -84.5 -17.5t-66.5 -47t-43.5 -68t-15.5 -81.5t16 -82t44 -69t66 -47.5t83 -17.5z" />
    <glyph glyph-name="beta" unicode="&#x3b2;" horiz-adv-x="605" 
d="M85 541q0 56 15.5 95.5t42.5 65t62.5 37t74.5 11.5t71.5 -11.5t56 -33t36.5 -51.5t13 -68q0 -51 -26.5 -89t-80.5 -58q47 -4 85 -21.5t64.5 -45t41 -64.5t14.5 -82q0 -53 -17.5 -97t-48 -76t-72.5 -49.5t-91 -17.5q-57 0 -102 23.5t-71 68.5v-272h-68v735zM318 51
q38 0 68.5 12.5t52.5 35t34 53.5t12 69q0 36 -11 67t-37.5 54.5t-70.5 37t-110 13.5h-35v57h4q81 0 121.5 35.5t40.5 93.5q0 48 -28.5 77.5t-80.5 29.5q-29 0 -52 -8.5t-39.5 -27.5t-25 -50t-8.5 -76v-299q0 -39 13 -71.5t35.5 -55t52.5 -35t64 -12.5z" />
    <glyph glyph-name="gamma" unicode="&#x3b3;" horiz-adv-x="554" 
d="M26 531h73l177 -386l177 386h73l-216 -471v-254h-67v255z" />
    <glyph glyph-name="delta" unicode="&#x3b4;" horiz-adv-x="571" 
d="M51 223q0 44 16.5 86t46.5 76t72 54.5t93 20.5q26 0 46 -4l-210 220v60h349v-60h-256l213 -225q23 -24 41 -47.5t31.5 -50t20.5 -58.5t7 -72q0 -50 -18 -93t-49.5 -75t-74.5 -50.5t-93 -18.5q-49 0 -92 18.5t-75 50.5t-50 75t-18 93zM121 221q0 -36 12.5 -66.5t35 -53.5
t52.5 -36t65 -13t65 13t52.5 36t35 54.5t12.5 67.5q0 35 -13 66t-35 54.5t-52 37t-65 13.5q-34 0 -64.5 -13.5t-52.5 -37t-35 -55t-13 -67.5z" />
    <glyph glyph-name="epsilon" unicode="&#x3b5;" horiz-adv-x="411" 
d="M133 287q-32 18 -51 47.5t-19 68.5q0 62 42 102t116 40q48 0 88 -18.5t69 -44.5l-40 -51q-23 20 -51.5 34.5t-62.5 14.5q-48 0 -69.5 -24.5t-21.5 -58.5q0 -36 25 -60t66 -24h48v-64h-48q-51 0 -81 -26.5t-30 -71.5q0 -46 31 -72t83 -26q77 0 126 52l43 -52
q-31 -31 -73 -48.5t-96 -17.5q-46 0 -81 13.5t-57.5 36t-34 52t-11.5 62.5q0 49 24 84.5t66 51.5z" />
    <glyph glyph-name="zeta" unicode="&#x3b6;" horiz-adv-x="445" 
d="M51 247q0 54 22 107.5t61.5 106.5t94 107t119.5 108h-247v60h339v-60q-68 -60 -126.5 -114t-101 -105.5t-67 -103t-24.5 -106.5q0 -36 11.5 -63t35 -48t57.5 -37t79 -30q29 -9 54 -20.5t43 -28t28.5 -40t10.5 -56.5q0 -37 -6.5 -66.5t-12.5 -51.5h-73q8 26 13.5 53
t5.5 56q0 24 -9 39.5t-23.5 26t-33.5 17t-39 12.5q-45 13 -84 33t-67 48.5t-44 67t-16 88.5z" />
    <glyph glyph-name="eta" unicode="&#x3b7;" horiz-adv-x="610" 
d="M80 531h68v-95q83 109 199 109q44 0 80 -15t62 -46t40.5 -77t14.5 -109v-492h-68v483q0 94 -32.5 144t-109.5 50q-36 0 -69.5 -15t-59.5 -43.5t-41.5 -71t-15.5 -98.5v-255h-68v531z" />
    <glyph glyph-name="theta" unicode="&#x3b8;" horiz-adv-x="655" 
d="M51 366q0 88 18.5 159t54 121t87 77t117.5 27q65 0 116 -27t86.5 -77t54.5 -121t19 -159q0 -87 -18.5 -157.5t-54 -120t-86.5 -76t-117 -26.5t-117.5 26.5t-87 76t-54 120t-18.5 157.5zM328 49q94 0 147.5 75.5t58.5 213.5h-413q5 -136 58.5 -212.5t148.5 -76.5zM534 398
q-3 67 -18.5 121t-41.5 91.5t-63 57.5t-83 20q-93 0 -146.5 -77.5t-60.5 -212.5h413z" />
    <glyph glyph-name="iota" unicode="&#x3b9;" horiz-adv-x="176" 
d="M122 531v-531h-68v531h68z" />
    <glyph glyph-name="kappa" unicode="&#x3ba;" horiz-adv-x="502" 
d="M77 0v531h68v-217l248 217h98l-291 -253l308 -278h-94l-269 241v-241h-68z" />
    <glyph glyph-name="lambda" unicode="&#x3bb;" horiz-adv-x="536" 
d="M237 491l-107 245h72l322 -736h-73l-177 409l-183 -409h-72z" />
    <glyph glyph-name="uni03BC" unicode="&#x3bc;" horiz-adv-x="584" 
d="M76 -194v725h68v-293q0 -28 2.5 -51.5t10.5 -41.5q17 -38 54.5 -60.5t82.5 -22.5q51 0 89.5 31t50.5 83q5 20 5.5 34.5t0.5 34.5v286h68v-531h-68v58q-27 -34 -62 -52t-86 -18q-48 0 -84 17t-64 51v-250h-68z" />
    <glyph glyph-name="nu" unicode="&#x3bd;" horiz-adv-x="554" 
d="M26 531h73l178 -398l176 398h73l-237 -531h-24z" />
    <glyph glyph-name="xi" unicode="&#x3be;" horiz-adv-x="465" 
d="M58 232q0 72 40.5 125t110.5 75q-111 56 -111 152q0 39 15.5 70t43.5 52t67 32.5t86 11.5q75 0 136 -18l-16 -65q-54 19 -129 19q-61 0 -97.5 -30.5t-36.5 -81.5q0 -27 15 -49t40.5 -38t59 -24.5t70.5 -8.5h58v-59h-98q-36 0 -69.5 -9.5t-59 -29t-41 -49.5t-15.5 -70
q0 -69 33.5 -109t118.5 -58q51 -11 84.5 -22t54 -26t29 -35.5t8.5 -50.5q0 -69 -51.5 -106.5t-133.5 -37.5q-44 0 -81 10l18 61q16 -4 30 -6t28 -2q121 0 121 78q0 26 -22 42q-24 17 -115 35q-191 38 -191 222z" />
    <glyph glyph-name="omicron" unicode="&#x3bf;" horiz-adv-x="655" 
d="M51 264q0 57 21 108t58 89.5t87.5 61t110.5 22.5t110.5 -22.5t87.5 -61t58 -89.5t21 -108t-21 -107.5t-57.5 -88.5t-87.5 -60t-111 -22t-111 22t-87.5 60t-57.5 88.5t-21 107.5zM121 263q0 -43 15.5 -81.5t43 -67.5t65.5 -45.5t83 -16.5t82.5 16.5t65.5 45.5t43.5 67.5
t15.5 81.5q0 44 -16.5 83.5t-44.5 69t-66 46.5t-80 17q-43 0 -80.5 -17t-65.5 -46.5t-44.5 -69t-16.5 -83.5z" />
    <glyph glyph-name="pi" unicode="&#x3c0;" horiz-adv-x="612" 
d="M150 531h426v-62h-108v-341q0 -71 55 -71q14 0 23 2t17 5l14 -58q-23 -13 -61 -13q-55 0 -85.5 33t-30.5 96v347h-199v-337q0 -82 -14 -132h-68q8 29 11.5 64.5t3.5 70.5v334q-23 0 -53 -6.5t-51 -16.5l-20 58q20 10 56 18.5t84 8.5z" />
    <glyph glyph-name="rho" unicode="&#x3c1;" horiz-adv-x="670" 
d="M66 -194v444q0 65 21 119t58.5 93t88 61t109.5 22t109.5 -22.5t87.5 -60.5t58 -89.5t21 -108.5q0 -58 -21 -109t-58.5 -88.5t-87.5 -59t-109 -21.5q-131 0 -209 114v-294h-68zM136 263q0 -44 15.5 -82.5t43 -67.5t65.5 -45.5t83 -16.5q47 0 85 17t65 46t42 67.5t15 81.5
q0 44 -16 83t-44 68.5t-66 46.5t-81 17t-81 -17t-66 -46.5t-44 -68.5t-16 -83z" />
    <glyph glyph-name="sigma1" unicode="&#x3c2;" horiz-adv-x="552" 
d="M51 261q0 62 20.5 114t57.5 90t88 59t112 21q72 0 127.5 -30t95.5 -82l-51 -42q-36 43 -81 66t-99 23q-43 0 -80 -16t-64 -44.5t-42 -67.5t-15 -86q0 -39 10.5 -70t34 -55t62.5 -40.5t96 -27.5q55 -10 92 -21t59.5 -26t32 -36.5t9.5 -53.5q0 -69 -51.5 -106.5
t-133.5 -37.5q-45 0 -81 10l18 61q32 -8 58 -8q120 0 120 78q0 19 -11 32t-30.5 21t-45.5 13.5t-55 10.5q-253 42 -253 251z" />
    <glyph glyph-name="sigma" unicode="&#x3c3;" horiz-adv-x="655" 
d="M51 259q0 59 21 109t58 86t87.5 56.5t110.5 20.5h305l-13 -62h-116q51 -37 76 -90.5t25 -119.5q0 -58 -21 -108t-57.5 -86.5t-87.5 -57.5t-111 -21t-111 21t-87.5 57.5t-57.5 86.5t-21 108zM121 258q0 -45 15.5 -83t43 -65t65.5 -42.5t83 -15.5t82.5 15.5t65.5 42.5
t43.5 65t15.5 83q0 46 -16.5 84t-44.5 65.5t-66 42.5t-80 15q-43 0 -80.5 -15t-65.5 -42.5t-44.5 -65.5t-16.5 -84z" />
    <glyph glyph-name="tau" unicode="&#x3c4;" horiz-adv-x="363" 
d="M358 531v-62h-142v-469h-68v469h-143v62h353z" />
    <glyph glyph-name="upsilon" unicode="&#x3c5;" horiz-adv-x="595" 
d="M66 275v256h69v-248q0 -54 7 -96.5t25 -72t50 -45.5t82 -16q43 0 76 14.5t55 41.5t33.5 65t11.5 84q0 81 -27.5 150.5t-81.5 122.5h83q38 -41 66.5 -108.5t28.5 -164.5q0 -60 -17 -110t-49 -86t-77 -56t-102 -20q-64 0 -108.5 19t-72 55.5t-40 90.5t-12.5 124z" />
    <glyph glyph-name="phi" unicode="&#x3c6;" horiz-adv-x="766" 
d="M257 532l22 -65q-158 -57 -158 -204q0 -95 56.5 -148t170.5 -61v489q10 1 18.5 1.5t16.5 0.5q77 0 138.5 -19.5t104.5 -55.5t66 -88t23 -118q0 -60 -19.5 -109t-57.5 -85t-93.5 -57.5t-127.5 -25.5v-181h-69v181q-73 4 -128.5 26t-93 58t-56.5 85t-19 108q0 96 55 165.5
t151 102.5zM645 263q0 99 -61 155.5t-167 59.5v-424q115 7 171.5 61t56.5 148z" />
    <glyph glyph-name="chi" unicode="&#x3c7;" horiz-adv-x="480" 
d="M201 187l-185 344h77l147 -273l146 273h75l-184 -342l207 -383h-78l-168 311l-168 -311h-73z" />
    <glyph glyph-name="psi" unicode="&#x3c8;" horiz-adv-x="736" 
d="M134 531v-233q0 -35 1.5 -64t7 -52.5t17 -42.5t31.5 -35q25 -20 60.5 -33t82.5 -17v477h68v-477q43 3 80.5 15.5t67.5 38.5q17 15 27 31.5t15.5 38.5t7.5 51.5t2 68.5v233h68v-260q0 -135 -67 -207t-201 -77v-181h-68v181q-53 3 -102 18.5t-87 45.5q-37 30 -58 81.5
t-21 142.5v256h68z" />
    <glyph glyph-name="omega" unicode="&#x3c9;" horiz-adv-x="857" 
d="M341 545l6 -66q-52 -4 -94 -23t-71 -50.5t-45 -73.5t-16 -92q0 -91 39.5 -141t111.5 -50q57 0 89.5 48t32.5 141v66h69v-66q0 -93 32.5 -141t89.5 -48q69 0 110.5 48.5t41.5 142.5q0 51 -16 93.5t-45.5 73.5t-71.5 50t-93 22l5 66q63 -3 116.5 -27t92.5 -64t60.5 -94
t21.5 -117q0 -60 -15.5 -107.5t-45 -81t-71.5 -51t-95 -17.5q-55 0 -96 30t-55 81q-14 -51 -55.5 -81t-96.5 -30q-106 0 -166 68t-60 189q0 63 21.5 117t60 94t92 64t116.5 27z" />
    <glyph glyph-name="iotatonos" unicode="&#x3af;" horiz-adv-x="176" 
d="M102 597h-58l36 165h85zM122 531v-531h-68v531h68z" />
    <glyph glyph-name="iotadieresis" unicode="&#x3ca;" horiz-adv-x="176" 
d="M54 531h68v-531h-68v531zM165 734q20 0 34.5 -15t14.5 -35t-14.5 -34.5t-34.5 -14.5t-35 14.5t-15 34.5t15 35t35 15zM-38 684q0 20 15 35t35 15t34.5 -15t14.5 -35t-14.5 -34.5t-34.5 -14.5t-35 14.5t-15 34.5z" />
    <glyph glyph-name="iotadieresistonos" unicode="&#x390;" horiz-adv-x="176" 
d="M54 531h68v-531h-68v531zM84 762h85l-63 -165h-58zM-64 674q0 18 13 30.5t31 12.5t30.5 -12.5t12.5 -30.5t-12.5 -31t-30.5 -13t-31 13t-13 31zM223 717q18 0 30.5 -12.5t12.5 -30.5t-12.5 -31t-30.5 -13t-30.5 13t-12.5 31t12.5 30.5t30.5 12.5z" />
    <glyph glyph-name="upsilontonos" unicode="&#x3cd;" horiz-adv-x="595" 
d="M66 275v256h69v-248q0 -54 7 -96.5t25 -72t50 -45.5t82 -16q43 0 76 14.5t55 41.5t33.5 65t11.5 84q0 81 -27.5 150.5t-81.5 122.5h83q38 -41 66.5 -108.5t28.5 -164.5q0 -60 -17 -110t-49 -86t-77 -56t-102 -20q-64 0 -108.5 19t-72 55.5t-40 90.5t-12.5 124zM286 762
h85l-63 -165h-58z" />
    <glyph glyph-name="upsilondieresis" unicode="&#x3cb;" horiz-adv-x="595" 
d="M135 531v-248q0 -54 7 -96.5t25 -72t50 -45.5t82 -16q43 0 76 14.5t55 41.5t33.5 65t11.5 84q0 81 -27.5 150.5t-81.5 122.5h83q38 -41 66.5 -108.5t28.5 -164.5q0 -60 -17 -110t-49 -86t-77 -56t-102 -20q-64 0 -108.5 19t-72 55.5t-40 90.5t-12.5 124v256h69zM331 684
q0 20 15 35t35 15t34.5 -15t14.5 -35t-14.5 -34.5t-34.5 -14.5t-35 14.5t-15 34.5zM208 734q20 0 34.5 -15t14.5 -35t-14.5 -34.5t-34.5 -14.5t-35 14.5t-15 34.5t15 35t35 15z" />
    <glyph glyph-name="upsilondieresistonos" unicode="&#x3b0;" horiz-adv-x="595" 
d="M135 531v-248q0 -54 7 -96.5t25 -72t50 -45.5t82 -16q43 0 76 14.5t55 41.5t33.5 65t11.5 84q0 81 -27.5 150.5t-81.5 122.5h83q38 -41 66.5 -108.5t28.5 -164.5q0 -60 -17 -110t-49 -86t-77 -56t-102 -20q-64 0 -108.5 19t-72 55.5t-40 90.5t-12.5 124v256h69zM290 762
h85l-63 -165h-58zM142 674q0 18 13 30.5t31 12.5t30.5 -12.5t12.5 -30.5t-12.5 -31t-30.5 -13t-31 13t-13 31zM429 717q18 0 30.5 -12.5t12.5 -30.5t-12.5 -31t-30.5 -13t-30.5 13t-12.5 31t12.5 30.5t30.5 12.5z" />
    <glyph glyph-name="omicrontonos" unicode="&#x3cc;" horiz-adv-x="655" 
d="M51 264q0 57 21 108t58 89.5t87.5 61t110.5 22.5t110.5 -22.5t87.5 -61t58 -89.5t21 -108t-21 -107.5t-57.5 -88.5t-87.5 -60t-111 -22t-111 22t-87.5 60t-57.5 88.5t-21 107.5zM328 52q45 0 82.5 16.5t65.5 45.5t43.5 67.5t15.5 81.5q0 44 -16.5 83.5t-44.5 69t-66 46.5
t-80 17q-43 0 -80.5 -17t-65.5 -46.5t-44.5 -69t-16.5 -83.5q0 -43 15.5 -81.5t43 -67.5t65.5 -45.5t83 -16.5zM320 762h85l-63 -165h-58z" />
    <glyph glyph-name="omegatonos" unicode="&#x3ce;" horiz-adv-x="857" 
d="M51 243q0 63 21.5 117t60 94t92 64t116.5 27l6 -66q-52 -4 -94 -23t-71 -50.5t-45 -73.5t-16 -92q0 -91 39.5 -141t111.5 -50q57 0 89.5 48t32.5 141v66h69v-66q0 -93 32.5 -141t89.5 -48q69 0 110.5 48.5t41.5 142.5q0 51 -16 93.5t-45.5 73.5t-71.5 50t-93 22l5 66
q63 -3 116.5 -27t92.5 -64t60.5 -94t21.5 -117q0 -60 -15.5 -107.5t-45 -81t-71.5 -51t-95 -17.5q-55 0 -96 30t-55 81q-14 -51 -55.5 -81t-96.5 -30q-106 0 -166 68t-60 189zM431 762h85l-63 -165h-58z" />
    </font>
</defs>
</svg>
